<?xml version="1.0" standalone="no"?>
<!DOCTYPE svg PUBLIC "-//W3C//DTD SVG 1.1//EN" "http://www.w3.org/Graphics/SVG/1.1/DTD/svg11.dtd" >
<svg xmlns="http://www.w3.org/2000/svg" xmlns:xlink="http://www.w3.org/1999/xlink" version="1.1">
<metadata>
Created by FontForge 20170924 at Thu May 27 12:54:32 2021
 By www
(c)2020,Fillo Graphic
</metadata>
<defs>
<font id="MagenthaRegular" horiz-adv-x="704" >
  <font-face 
    font-family="Magentha"
    font-weight="400"
    font-stretch="normal"
    units-per-em="2048"
    panose-1="0 0 0 0 0 0 0 0 0 0"
    ascent="1638"
    descent="-410"
    x-height="578"
    cap-height="988"
    bbox="-904.633 -778 2948.88 1491.09"
    underline-thickness="102"
    underline-position="-307"
    unicode-range="U+0020-F072"
  />
    <missing-glyph />
    <glyph glyph-name="space" unicode=" " horiz-adv-x="565" 
 />
    <glyph glyph-name="exclam" unicode="!" horiz-adv-x="337" 
d="M135 71q-7 37 -11 92q-7 81 -14 270q-8 260 -8 439q0 48 19 77q16 25 39 25q25 0 43 -31.5t18 -95.5v-32q3 -220 -1 -437q-3 -148 -9 -231q-5 -70 -11 -94t-16 -31q-7 -5 -14 -5q-5 0 -8 1q-19 6 -27 53zM176 -33q59 0 59 -121q0 -57 -15.5 -89t-43.5 -32q-36 0 -50 42
q-9 28 -9 82q0 55 15.5 86.5t43.5 31.5z" />
    <glyph glyph-name="quotedbl" unicode="&#x22;" horiz-adv-x="327" 
d="M204 974q9 0 14.5 -6t5.5 -15v-241q0 -20 -20 -20q-9 0 -15 5.5t-6 14.5v241q0 8 6.5 14.5t14.5 6.5zM123 974q9 0 15 -6.5t6 -14.5v-241q0 -20 -21 -20q-9 0 -15 5.5t-6 14.5v241q0 8 6.5 14.5t14.5 6.5z" />
    <glyph glyph-name="numbersign" unicode="#" horiz-adv-x="931" 
d="M808 196q21 0 21 -20q0 -9 -6 -15t-15 -6h-203q-9 -65 -28 -197.5t-25 -176.5q-1 -7 -7 -12.5t-14 -5.5h-3q-8 2 -13 8.5t-4 14.5q32 233 52 369h-206q-9 -65 -28 -197.5t-25 -176.5q-1 -7 -7 -12.5t-14 -5.5h-3q-8 1 -12 6q-6 -6 -14 -6h-3q-8 2 -13.5 8.5t-4.5 14.5
q32 233 52 369h-162q-9 0 -15 6t-6 15q0 20 21 20h168q2 14 6.5 44.5t6.5 46.5q83 576 87 619q1 8 8 14t15 5q7 0 13 -6q7 7 16 6q8 -1 14 -8t5 -15q-6 -61 -87 -621q-4 -29 -12 -85h206q2 14 6.5 44.5t6.5 46.5q83 576 87 619q1 8 8 14t15 5t13.5 -8t4.5 -15
q-6 -61 -87 -621q-2 -14 -6 -42.5t-6 -42.5h197z" />
    <glyph glyph-name="dollar" unicode="$" horiz-adv-x="626" 
d="M381 408q35 -40 53 -62.5t42.5 -60.5t35.5 -76.5t11 -82.5q0 -96 -48 -175q-45 -74 -112 -110q-13 -7 -25 -11q0 -18 0.5 -39t1 -32t0.5 -15q0 -9 -6 -15t-15 -6t-15 6t-6 15q0 36 -1 76q-5 -1 -14 -1q-36 0 -67 20q-81 53 -71 225q0 15 3 32v2v1q1 1 1 2q8 42 29 70
q5 7 13.5 8t15.5 -4t8 -13.5t-4 -15.5q-14 -19 -21 -52v-1l-3 -36q2 -73 39 -123q30 -40 56 -30q2 1 6.5 3t6.5 3q-1 53 -4.5 189t-5.5 211l-13 13q-41 41 -62 65t-51 68t-43.5 93t-13.5 106q0 82 53 149q50 64 108 66q1 0 3 0.5t3 0.5q0 12 -0.5 37t-1.5 34q0 9 6 15t14 6
q9 0 15 -6t6 -14q1 -23 3 -73q22 -4 43 -15q45 -16 75 -47q57 -59 54 -159q0 -2 -2 -6v-2q-1 -8 -7 -14t-15 -5q-8 1 -14 7.5t-5 14.5v7q0 36 -20.5 77t-52.5 69q-18 15 -29 20q-8 3 -26 7q2 -48 5 -168t5 -179q25 -32 59 -69zM236 641q11 -46 43 -101q-2 59 -5 156t-4 132
h-2q-12 -3 -21 -18q-16 -26 -19 -74.5t8 -94.5zM274 -139q11 -2 22 0v4q-9 -4 -22 -4zM388 117q4 72 -61 147q6 -246 8 -314q47 69 53 167z" />
    <glyph glyph-name="percent" unicode="%" horiz-adv-x="940" 
d="M797 81q40 -64 40 -150t-40 -150q-15 -25 -34 -39q-33 -28 -71 -28q-63 0 -105 67q-40 64 -40 150t40 150q42 67 105 67q24 0 47 -12q35 -17 58 -55zM743 -221q52 52 52 152q0 56 -19.5 101.5t-49.5 63.5q-18 -7 -35 -41q-27 -54 -27 -124q0 -63 25.5 -104.5t53.5 -47.5z
M662 1012q8 -1 13 -8.5t3 -15.5q-16 -72 -251 -902q-99 -347 -109 -385q-3 -15 -20 -15h-5q-8 2 -12.5 10t-2.5 16q10 37 109 386q232 814 250 898q1 8 9 13t16 3zM352 557q-17 -27 -34 -40q-32 -27 -71 -27q-63 0 -105 67q-40 64 -40 149q0 86 40 150q42 67 105 67
q25 0 48 -12q33 -17 57 -55q40 -64 40 -150q0 -85 -40 -149zM219 706q0 -63 25.5 -104t53.5 -47q52 52 52 151q0 56 -19.5 101.5t-49.5 63.5q-18 -7 -35 -40q-27 -54 -27 -125z" />
    <glyph glyph-name="ampersand" unicode="&#x26;" horiz-adv-x="968" 
d="M866 569q5 -39 -21 -62t-77 -40v-2q0 -10 -5.5 -54t-26.5 -136t-52 -170q-28 -72 -69 -134q-21 -32 -37 -50q-3 -4 -9.5 -10t-9.5 -10q-92 -94 -210 -94q-110 0 -183 86q-79 92 -60 213q17 108 83 179q28 31 69 53q-29 12 -54 35q-39 36 -56 89t-10 115q17 141 88 215
q61 64 156 70q57 3 90 -52q19 -32 18 -64v-3q0 -1 -0.5 -2.5t-0.5 -2.5q-1 -15 -12 -35q-10 -17 -28 -7q-17 11 -7 28q4 6 6 21q-1 36 -20.5 55.5t-38.5 19.5q-39 0 -76 -53q-49 -71 -57 -195q-8 -101 48 -160q40 -42 88 -42h2h1l1 -1h1h1h1l1 -1h1q2 -1 5 -4l1 -1l1 -1v-1
h1l1 -2l1 -1v-1v-2q0 -1 1 -1v-1v-2v-2v-2v-2v0v-2h-1v-2l-1 -1l-1 -2l-1 -2l-2 -1v-1l-1 -1l-1 -1h-1l-1 -1h-1q-1 0 -1 -1h-2v-1h-2q-24 -4 -35 -5q-92 -29 -126 -224q-10 -53 4.5 -109.5t46.5 -95.5q38 -44 80 -44q76 0 151 68q49 46 89 118.5t63.5 150.5t37 144
t18.5 121q-54 -18 -91 -39.5t-57 -57.5q-6 -11 -18 -11q-5 0 -10 3q-18 11 -8 28q15 27 36.5 47.5t51 35t49.5 22t53 18.5q56 18 76.5 31t17.5 33q-1 8 4.5 14.5t13.5 8.5q8 1 14.5 -4t8.5 -13z" />
    <glyph glyph-name="quotesingle" unicode="'" horiz-adv-x="245" 
d="M123 974q8 0 14.5 -6.5t6.5 -14.5v-241q0 -9 -6 -14.5t-15 -5.5q-21 0 -21 20v241q0 8 6 14.5t15 6.5z" />
    <glyph glyph-name="parenleft" unicode="(" horiz-adv-x="565" 
d="M443 -207q9 0 15 -6t6 -15t-6 -15t-15 -6q-29 0 -54 6q-6 1 -18 5q-122 37 -194 193q-75 164 -75 375q0 280 66 443q68 167 206 199q9 4 21 4h2q22 3 46 3q9 0 15 -6t6 -14q0 -9 -6 -15t-15 -6q-25 0 -57 -7q-55 -26 -105 -227q-52 -207 -52 -375q0 -157 52 -336
q50 -172 106 -193q2 0 4.5 -1t3.5 -1h2q3 0 7 -2q18 -3 39 -3z" />
    <glyph glyph-name="parenright" unicode=")" horiz-adv-x="565" 
d="M398 773q66 -163 66 -443q0 -211 -75 -375q-72 -156 -194 -193q-12 -4 -18 -5q-26 -6 -54 -6q-8 0 -14.5 6t-6.5 15t6.5 15t14.5 6q21 0 39 3q4 2 7 2h2q2 0 3.5 1t3.5 1q57 22 107 193q52 179 52 336q0 168 -52 375q-50 201 -105 227q-32 7 -57 7q-8 0 -14.5 6t-6.5 15
q0 8 6.5 14t14.5 6q23 0 46 -3h2q12 0 21 -4q138 -32 206 -199z" />
    <glyph glyph-name="asterisk" unicode="*" horiz-adv-x="667" 
d="M545 311q8 0 14.5 -6t6.5 -15q0 -20 -21 -20h-176q108 -169 137 -205q13 -17 -2 -29q-7 -5 -14 -5q-10 0 -16 7q-21 25 -131 196v-164q0 -9 -6 -15t-15 -6t-15 6t-6 15v149q-94 -145 -113 -168q-6 -8 -16 -8q-6 0 -13 5q-16 12 -3 29q24 29 129 193h-162q-21 0 -21 20
q0 9 6 15t15 6h170q-141 221 -188 298q-11 17 7 28t29 -7q67 -110 160 -255v285q0 9 6 15t15 6t15 -6t6 -15v-299q124 195 169 269q11 18 29 7q17 -11 7 -28q-38 -63 -187 -298h184z" />
    <glyph glyph-name="plus" unicode="+" 
d="M601 332q0 -8 -4 -12q4 -4 4 -13t-6 -15t-15 -6h-202v-254q0 -9 -6 -15t-15 -6t-15 6t-6 15v254h-213q-9 0 -15 6t-6 15q0 8 5 13q-5 5 -5 12q0 8 6 14.5t15 6.5h213v279q0 8 6 14.5t15 6.5t15 -6.5t6 -14.5v-279h202q9 0 15 -6.5t6 -14.5z" />
    <glyph glyph-name="comma" unicode="," horiz-adv-x="327" 
d="M225 -186v-23q0 -61 -16 -107q-23 -64 -68 -64q-9 0 -15 6t-6 15t6 15t15 6q12 0 23 22q10 19 14 43q-10 -2 -14 -2q-35 0 -51 29q-11 19 -11 58q0 38 17 61t45 23q12 0 26 -7q20 -4 28 -33q7 -19 7 -42z" />
    <glyph glyph-name="hyphen" unicode="-" 
d="M580 353q9 0 15 -6.5t6 -14.5q0 -9 -6 -15t-15 -6h-457q-9 0 -15 6t-6 15q0 8 6 14.5t15 6.5h457z" />
    <glyph glyph-name="period" unicode="." horiz-adv-x="327" 
d="M164 -104q9 0 17.5 -3t19.5 -11t17.5 -26.5t6.5 -45.5q0 -41 -18 -63t-43 -22q-35 0 -51 29q-11 19 -11 58q0 38 17 61t45 23z" />
    <glyph glyph-name="zero" unicode="0" horiz-adv-x="598" 
d="M443 776q53 -181 53 -444t-53 -442q-55 -189 -144 -189t-144 189q-53 179 -53 442t53 444q55 189 144 189t144 -189zM403 -99q51 173 51 431q0 259 -51 432q-25 85 -54 124q-41 -72 -64 -224.5t-22 -342.5q1 -186 26.5 -334.5t64.5 -202.5q25 38 49 117z" />
    <glyph glyph-name="one" unicode="1" horiz-adv-x="503" 
d="M382 -236q8 0 14 -6.5t6 -14.5q0 -9 -6 -15t-14 -6h-144h-64q-9 0 -15 6t-6 15q0 8 6 14.5t15 6.5h43v958v37q-6 -13 -16.5 -38t-14.5 -33q-28 -66 -44 -101q-9 -19 -27 -11q-19 9 -11 27q9 21 44 101q54 124 71 157q0 1 1 3q42 83 78 83q10 0 17 -7q6 -6 10 -17.5
t9.5 -73.5t8 -170.5t2 -327t-5.5 -523.5q0 -16 -0.5 -38t-0.5 -26h44z" />
    <glyph glyph-name="two" unicode="2" horiz-adv-x="757" 
d="M643 -224q18 -9 9 -28q-11 -22 -33 -26q-29 -7 -69.5 16t-118.5 82q-5 4 -15.5 11.5t-15.5 11.5q-57 -157 -152 -157q-70 0 -111 49q-35 43 -35 104q0 31 11 61q6 23 18 41q33 47 100 39h2q42 -4 98 -38q26 150 26 362q0 227 -28 390q-12 68 -26.5 108.5t-22.5 46.5l-9 6
q-43 0 -70 -149q-8 -53 -8 -87q0 -8 -6.5 -14.5t-14.5 -6.5q-9 0 -15 6.5t-6 14.5q0 46 8 93q10 60 27.5 110t52 88.5t79.5 38.5q78 0 119 -185q35 -155 35 -386q0 -272 -50 -463q-2 -5 -4 -15t-4 -15q7 -5 21 -15.5t21 -15.5q129 -98 154 -92q2 0 5 6q4 7 12.5 9.5
t15.5 -1.5zM232 -262q26 0 49.5 42t40.5 118q-59 37 -94 41h-1h-2h-6q-47 0 -66 -51q-12 -51 14 -102q24 -48 65 -48z" />
    <glyph glyph-name="three" unicode="3" horiz-adv-x="622" 
d="M420 266q62 -69 85.5 -151t13.5 -150t-42 -129q-37 -71 -93.5 -113.5t-112.5 -42.5q-11 0 -17 1q-74 10 -118 94q-19 31 -24 57v1q-6 22 -9 35q-2 8 3 15.5t13 9.5q19 5 25 -16q11 -49 28 -82q15 -23 35 -39.5t31 -17.5q63 -4 111 79q50 86 56 201t-36 180
q-37 57 -104 50q-12 -3 -25 -3q-10 0 -15 1h-1h-1h-1v1h-1q-1 0 -1 0.5t-1 0.5h-1h-1l-1 1h-1v1h-1v1h-1v1h-1l-1 1v0v1l-1 1l-1 1l-1 2v1l-1 1v1v1v1l-1 1v1v1v1v2v0v1l1 1v0v2v1l1 1v1h1l1 1v1v1l1 1l1 1l1 1l1 1l1 1l1 1h1h1v1v0h2l1 1h1h1h1h1h1v1h1h8q56 6 93 90
q39 87 39 213q0 117 -33 189q-33 75 -89 75q-40 0 -66.5 -71.5t-27.5 -139.5q0 -56 10 -112q1 -8 -4 -15t-13 -9q-8 -1 -15 4t-9 13q-10 56 -10 114v3v11q2 168 76 248q50 54 118 48q100 -9 144 -108q47 -105 21 -264q-25 -153 -97 -250q-17 -22 -30 -35q56 -2 78 -26z" />
    <glyph glyph-name="four" unicode="4" horiz-adv-x="655" 
d="M552 -166v-38v-32.5t0.5 -24t0.5 -16.5v-7v-1q0 -29 -26 -44q-13 -7 -30 -7q-22 0 -36 10q-24 16 -22 43q1 2 0.5 147.5t-1.5 299.5q-54 15 -171 99q-9 7 -27 19q-18 -59 -44 -79q-20 -15 -38 -12q-38 5 -51 46q-9 28 -2 60t26 50q27 26 60 13q17 -7 23 -11q6 31 12 70
q14 92 35 335q8 90 15 161q1 8 7.5 13.5t14.5 4.5t14 -7.5t5 -14.5q-2 -22 -4.5 -48t-5 -59.5t-4.5 -53.5q-28 -319 -52 -425q7 -5 21 -14.5t19 -13.5q102 -72 146 -89q0 53 -0.5 160.5t-1.5 153.5q0 44 -0.5 93t-1 75t-0.5 32q0 27 15 41.5t36 14.5q22 1 40 -13t19 -35
q2 -57 6 -508v-2q2 -289 3 -386zM170 235q19 15 34 72q-14 8 -27 14q-2 1 -6 1q-6 0 -11 -5q-10 -10 -14 -31t1 -37t17 -16q3 0 6 2z" />
    <glyph glyph-name="five" unicode="5" horiz-adv-x="600" 
d="M492 224q19 -192 -25 -344q-29 -100 -75 -140t-95 -40q-99 0 -148 157q-9 30 -14 53q-21 95 -21 193q0 20 20 20q9 0 15 -5.5t6 -14.5q0 -112 29 -217q1 -3 2.5 -8.5t2.5 -8.5q10 -31 24.5 -54.5t26.5 -34.5t25 -17.5t19 -7.5t11 -1q31 0 51 77q21 77 21 206
q0 150 -26 263q-9 41 -20 68t-18 35t-11 8q-46 0 -115 -75l-24 -32l-9 -12q-13 -16 -29 -10q-14 6 -13 22q1 0 1 1v1q2 19 17 191q33 382 38 426q0 3 1 4v2q0 1 0.5 1t0.5 1v1h1l1 1v1l2 1v1l1 1l1 1l1 1h2l1 1q1 1 2 1h2l1 1h1h2h243q18 0 20 -20v-47q0 -8 -6 -14t-14 -6
h-228q-20 -216 -32 -362q-4 -49 -11 -123q39 46 75 74q97 75 177 23q70 -45 90 -243z" />
    <glyph glyph-name="six" unicode="6" horiz-adv-x="606" 
d="M504 84v-1q0 -164 -45 -264.5t-110 -117.5q-23 -8 -48 -8q-101 0 -154 203q-45 172 -45 421q0 250 48 436q56 212 159 212q45 0 76 -57q23 -42 38 -113q8 -41 16 -107q3 -25 3 -48q0 -9 1.5 -28.5t1.5 -27.5q0 -9 -6.5 -15t-14.5 -6q-9 0 -15 6t-6 15q0 30 -6 98
q-9 56 -24 97q-13 37 -27.5 56.5t-24.5 19.5q-17 -5 -39 -80q-24 -85 -39 -216q-12 -101 -17 -238q19 23 25 29q52 50 106 44q72 -8 113 -104q34 -82 34 -196v-10zM463 83v11q0 99 -29.5 175.5t-81.5 82.5q-36 4 -72 -32q-31 -29 -56 -78q-1 -124 8 -234q9 -94 25.5 -157
t33.5 -87.5t35 -24.5q7 0 11 1q63 22 96 130q27 86 30 213z" />
    <glyph glyph-name="seven" unicode="7" horiz-adv-x="630" 
d="M509 269q8 -1 14 -7.5t5 -14.5q-2 -20 -21 -20h-1q-11 1 -60 1q-21 -148 -64 -438l-7 -49q-4 -29 -24.5 -45.5t-45.5 -16.5h-9q-25 3 -40 24t-11 56q0 3 1.5 14t4 28.5t4.5 35.5q48 375 50 390q-11 0 -29 0.5t-26 0.5t-14 6t-6 15q0 8 6.5 14t14.5 6h59q70 568 72 670
q-8 -2 -25.5 -6.5t-21.5 -5.5q-52 -14 -65 -16q-8 -2 -25 -7t-25 -8q-80 -24 -91 -27q-8 -2 -16 2.5t-10 12.5q-5 19 15 25q6 2 90 27q27 8 51 15q1 0 3 1q47 14 79 21.5t61.5 12t49.5 2.5t32 -10q14 -10 20.5 -36.5t3.5 -127.5t-23 -277q-28 -231 -33 -268h57z" />
    <glyph glyph-name="eight" unicode="8" horiz-adv-x="591" 
d="M410 258q76 -129 80 -280t-67 -229q-47 -51 -116 -51q-47 0 -96 23q-28 10 -50 35q-37 41 -49.5 109.5t-6.5 123.5q9 70 33.5 132.5t41.5 88t44 60.5q4 5 10 13q-1 2 -3.5 5.5t-3.5 5.5q-42 61 -62.5 95.5t-40.5 97t-20 128.5q0 135 31 225q42 123 134 125q52 1 89 -25
l1 -1q12 -9 13 -10q56 -55 56 -218q0 -72 -22 -169.5t-65 -177.5q21 -34 38 -58q25 -37 31 -48zM266 842q-73 -214 50 -435q34 72 52 156t18 148q0 145 -43 188q-1 1 -3.5 3t-3.5 3q-14 7 -27 2q-24 -11 -43 -65zM257 -246q33 0 57.5 13.5t36.5 34.5t17 39t5 33
q0 120 -30 205t-84 168l-1 -1q0 -2 -1 -2q-19 -24 -30.5 -41t-30.5 -50.5t-31.5 -76t-18.5 -92.5q-6 -46 5 -105.5t41 -94.5q16 -17 32 -24h2h1q18 -6 30 -6z" />
    <glyph glyph-name="nine" unicode="9" horiz-adv-x="563" 
d="M434 637q26 -161 26 -351q0 -245 -41 -401q-50 -192 -148 -192q-45 0 -77 57q-21 38 -37 114q-12 59 -16 106q-4 23 -4 48q-2 46 -2 56q0 8 6 14.5t15 6.5q8 0 14.5 -6.5t6.5 -14.5q0 -54 5 -99q8 -50 25 -96q28 -76 51 -76q17 6 35 81q19 77 30 217q6 76 8 192
q-38 -33 -81 -29q-47 6 -83 66t-50.5 124t-14.5 110v10v2q1 2 1 3q0 48 5 100q7 71 20 121q40 165 137 165q95 0 149 -224q11 -51 20 -102v-2zM307 327q14 13 25 31q-2 166 -16 291q-7 59 -16 105.5t-17.5 75t-18 47t-17 25.5t-14.5 7q-3 -1 -9.5 -7.5t-18.5 -27t-23 -50.5
q-20 -59 -30 -128v-2q-6 -50 -8 -116v-14q0 -72 34 -162.5t77 -95.5q28 -3 52 21z" />
    <glyph glyph-name="colon" unicode=":" horiz-adv-x="327" 
d="M164 532q-36 0 -51 28q-11 19 -11 59q0 37 17 60t45 23q9 0 17.5 -3t19.5 -10.5t17.5 -26t6.5 -45.5q0 -41 -18 -63t-43 -22zM164 87q9 0 17.5 -3t19.5 -10.5t17.5 -26t6.5 -45.5q0 -41 -18 -63t-43 -22q-35 0 -51 29q-11 19 -11 58q0 37 17 60t45 23z" />
    <glyph glyph-name="semicolon" unicode=";" horiz-adv-x="331" 
d="M228 3q0 -4 0.5 -12t0.5 -11q0 -61 -16 -107q-23 -64 -68 -64q-9 0 -15 6.5t-6 14.5q0 9 6 15t15 6q12 0 23 22q10 19 14 43q-10 -2 -15 -2q-34 0 -50 29q-11 19 -11 59q0 38 16.5 60.5t44.5 22.5q13 0 27 -7q20 -4 28 -33q6 -16 6 -42zM164 532q-36 0 -51 28
q-11 19 -11 59q0 37 17 60t45 23q9 0 17.5 -3t19.5 -10.5t17.5 -26t6.5 -45.5q0 -41 -18 -63t-43 -22z" />
    <glyph glyph-name="less" unicode="&#x3c;" horiz-adv-x="589" 
d="M483 -51q5 -7 5 -16t-7 -14t-14 -5q-9 0 -15 8q-1 0 -1 1l-4 -4q-7 -5 -13 -5q-10 0 -16 8q-2 3 -29 30q-122 131 -176 193q-56 64 -80 96q-40 54 -26 75q17 25 150.5 188.5t161.5 191.5q15 14 29 0l2 -2l2 2q6 6 15 6t15 -6q14 -14 0 -29q-25 -26 -148.5 -177
t-154.5 -192q13 -28 110 -138q62 -71 165 -179q8 -8 14.5 -15.5t10 -11.5t4.5 -5z" />
    <glyph glyph-name="equal" unicode="=" 
d="M123 375q-9 0 -15 6t-6 15t6 15t15 6h457q9 0 15 -6t6 -15t-6 -15t-15 -6h-457zM580 258q9 0 15 -6t6 -15t-6 -15t-15 -6h-457q-9 0 -15 6t-6 15t6 15t15 6h457z" />
    <glyph glyph-name="greater" unicode="&#x3e;" horiz-adv-x="581" 
d="M475 316q14 -20 -27 -75q-30 -40 -79 -96q-39 -44 -177 -193q-24 -24 -28 -30q-6 -8 -16 -8q-7 0 -12 4q-5 -4 -13 -4q-6 0 -13 5q-16 13 -3 30q1 1 4.5 5t10.5 11.5t15 15.5q103 108 165 179q95 108 109 138q-31 41 -154.5 192t-148.5 177q-14 14 1 29q13 13 27 2
q15 11 27 -2q28 -28 161.5 -191.5t150.5 -188.5z" />
    <glyph glyph-name="question" unicode="?" horiz-adv-x="606" 
d="M309 -33q59 0 59 -121q0 -57 -15.5 -89t-43.5 -32q-36 0 -50 42q-9 29 -9 82q0 55 15.5 86.5t43.5 31.5zM469 862q49 -116 28 -272q-22 -168 -113 -287q-13 -16 -19 -45t-6.5 -49.5t-0.5 -67.5v-24q0 -34 -15 -55q-16 -24 -41 -24q-22 0 -37.5 18.5t-15.5 51.5v1l9 189
q0 35 22 59q35 37 66.5 102.5t51.5 142.5q20 80 20.5 150.5t-18.5 114.5q-28 65 -94 65q-61 0 -104 -60q-40 -57 -52 -151q-6 -48 -6 -105q0 -9 -6 -15t-15 -6t-15 6t-6 15q0 30 4 82q0 10 1 16q18 171 95 238q52 46 126 37q93 -12 141 -127z" />
    <glyph glyph-name="at" unicode="@" horiz-adv-x="1079" 
d="M957 325q8 -1 14 -7.5t5 -14.5q-8 -132 -42.5 -232.5t-81.5 -160t-111 -97t-124 -50.5t-127 -13q-84 0 -158 47t-129 135q-47 76 -74 171.5t-27 188.5q0 263 116 433q56 82 131 126t160 44q169 0 270 -183q37 -68 57 -144t20 -132q0 -216 -56 -330q-50 -102 -129 -102
q-42 0 -70 31q-38 41 -52 143q-2 -8 -6.5 -21.5t-6.5 -18.5v-2q-7 -22 -17 -44q-38 -88 -91 -88q-59 0 -96 63q-40 67 -40 193q0 149 61.5 246.5t127.5 97.5q37 0 66 -33q2 -2 8 -10q4 21 21.5 33.5t40.5 11.5q28 -2 47 -24t17 -60q-12 -202 -8 -311q4 -112 22 -134
q21 5 57 66q41 72 53 131q10 69 10 162q0 51 -18.5 122t-53.5 133q-90 162 -234 162q-153 0 -256 -151q-109 -160 -109 -410q0 -88 25 -178t69 -160q101 -162 252 -162q412 0 445 513q1 9 7 15t15 5zM545 443v3q0 37 -16.5 65t-39.5 28q-4 0 -10 -5t-15 -20.5t-16 -38.5
q-26 -83 -26 -203q0 -77 9.5 -125.5t15.5 -57.5t12 -12q11 7 25 39q5 12 12 32q25 75 43 176l1 10q0 26 5 108v1z" />
    <glyph glyph-name="A" unicode="A" horiz-adv-x="1857" 
d="M1977 483q3 -21 -8.5 -110t-32.5 -188q-16 -74 -33 -136q0 -2 -1.5 -10t-2.5 -13q-21 -121 -53 -202q-59 -148 -158 -148q-38 0 -70 15t-56.5 39.5t-45 63.5t-35 80.5t-26.5 98t-19.5 107t-14 117t-10 119t-6.5 121.5q-89 -21 -244 -66q-22 -188 -37 -536q-3 -78 -5 -88
q-3 -17 -21 -17h-2l-2 1q-8 1 -13 8.5t-3 15.5l4 82q15 322 36 521q-93 -27 -116 -34q-396 -118 -567 -153q-145 -29 -232 -29q-103 0 -149 37q-41 32 -51 84.5t12 113.5q18 49 51.5 84.5t69.5 34.5q8 0 14 -6.5t6 -14.5q0 -20 -21 -20h-1q-18 0 -42 -26.5t-38 -66.5
q-7 -19 -11 -40.5t3 -55.5t33 -55q27 -21 78 -27t130.5 5t151 24.5t184 44t181 50.5t186.5 55q107 33 133 40q7 64 13 100q11 80 31 169q18 82 36 131q0 1 1 3q61 172 153 172q96 0 143 -200q24 -105 43 -273q102 12 138 -18q7 -5 7 -14t-5 -16q-12 -15 -29 -2
q-23 19 -107 9q1 -16 4.5 -46t5.5 -46q28 -285 54 -397q39 -166 101 -166q26 0 53 31q51 59 98 219v1q17 55 33 134q20 94 30.5 180t8.5 103q-1 8 4.5 14.5t13.5 8.5q8 1 15 -4t9 -13zM1166 416q135 39 237 63q-1 7 -1 21t-1 21q-10 218 -21 297q-7 47 -16.5 73.5t-14 30
t-7.5 3.5q-26 0 -53 -39.5t-49 -103.5q-37 -109 -63 -285q-8 -54 -11 -81z" />
    <glyph glyph-name="A" unicode="&#xc5;" horiz-adv-x="1857" 
d="M1977 483q3 -21 -8.5 -110t-32.5 -188q-16 -74 -33 -136q0 -2 -1.5 -10t-2.5 -13q-21 -121 -53 -202q-59 -148 -158 -148q-38 0 -70 15t-56.5 39.5t-45 63.5t-35 80.5t-26.5 98t-19.5 107t-14 117t-10 119t-6.5 121.5q-89 -21 -244 -66q-22 -188 -37 -536q-3 -78 -5 -88
q-3 -17 -21 -17h-2l-2 1q-8 1 -13 8.5t-3 15.5l4 82q15 322 36 521q-93 -27 -116 -34q-396 -118 -567 -153q-145 -29 -232 -29q-103 0 -149 37q-41 32 -51 84.5t12 113.5q18 49 51.5 84.5t69.5 34.5q8 0 14 -6.5t6 -14.5q0 -20 -21 -20h-1q-18 0 -42 -26.5t-38 -66.5
q-7 -19 -11 -40.5t3 -55.5t33 -55q27 -21 78 -27t130.5 5t151 24.5t184 44t181 50.5t186.5 55q107 33 133 40q7 64 13 100q11 80 31 169q18 82 36 131q0 1 1 3q61 172 153 172q96 0 143 -200q24 -105 43 -273q102 12 138 -18q7 -5 7 -14t-5 -16q-12 -15 -29 -2
q-23 19 -107 9q1 -16 4.5 -46t5.5 -46q28 -285 54 -397q39 -166 101 -166q26 0 53 31q51 59 98 219v1q17 55 33 134q20 94 30.5 180t8.5 103q-1 8 4.5 14.5t13.5 8.5q8 1 15 -4t9 -13zM1166 416q135 39 237 63q-1 7 -1 21t-1 21q-10 218 -21 297q-7 47 -16.5 73.5t-14 30
t-7.5 3.5q-26 0 -53 -39.5t-49 -103.5q-37 -109 -63 -285q-8 -54 -11 -81z" />
    <glyph glyph-name="A" unicode="&#xc4;" horiz-adv-x="1857" 
d="M1977 483q3 -21 -8.5 -110t-32.5 -188q-16 -74 -33 -136q0 -2 -1.5 -10t-2.5 -13q-21 -121 -53 -202q-59 -148 -158 -148q-38 0 -70 15t-56.5 39.5t-45 63.5t-35 80.5t-26.5 98t-19.5 107t-14 117t-10 119t-6.5 121.5q-89 -21 -244 -66q-22 -188 -37 -536q-3 -78 -5 -88
q-3 -17 -21 -17h-2l-2 1q-8 1 -13 8.5t-3 15.5l4 82q15 322 36 521q-93 -27 -116 -34q-396 -118 -567 -153q-145 -29 -232 -29q-103 0 -149 37q-41 32 -51 84.5t12 113.5q18 49 51.5 84.5t69.5 34.5q8 0 14 -6.5t6 -14.5q0 -20 -21 -20h-1q-18 0 -42 -26.5t-38 -66.5
q-7 -19 -11 -40.5t3 -55.5t33 -55q27 -21 78 -27t130.5 5t151 24.5t184 44t181 50.5t186.5 55q107 33 133 40q7 64 13 100q11 80 31 169q18 82 36 131q0 1 1 3q61 172 153 172q96 0 143 -200q24 -105 43 -273q102 12 138 -18q7 -5 7 -14t-5 -16q-12 -15 -29 -2
q-23 19 -107 9q1 -16 4.5 -46t5.5 -46q28 -285 54 -397q39 -166 101 -166q26 0 53 31q51 59 98 219v1q17 55 33 134q20 94 30.5 180t8.5 103q-1 8 4.5 14.5t13.5 8.5q8 1 15 -4t9 -13zM1166 416q135 39 237 63q-1 7 -1 21t-1 21q-10 218 -21 297q-7 47 -16.5 73.5t-14 30
t-7.5 3.5q-26 0 -53 -39.5t-49 -103.5q-37 -109 -63 -285q-8 -54 -11 -81z" />
    <glyph glyph-name="A" unicode="&#xc3;" horiz-adv-x="1857" 
d="M1977 483q3 -21 -8.5 -110t-32.5 -188q-16 -74 -33 -136q0 -2 -1.5 -10t-2.5 -13q-21 -121 -53 -202q-59 -148 -158 -148q-38 0 -70 15t-56.5 39.5t-45 63.5t-35 80.5t-26.5 98t-19.5 107t-14 117t-10 119t-6.5 121.5q-89 -21 -244 -66q-22 -188 -37 -536q-3 -78 -5 -88
q-3 -17 -21 -17h-2l-2 1q-8 1 -13 8.5t-3 15.5l4 82q15 322 36 521q-93 -27 -116 -34q-396 -118 -567 -153q-145 -29 -232 -29q-103 0 -149 37q-41 32 -51 84.5t12 113.5q18 49 51.5 84.5t69.5 34.5q8 0 14 -6.5t6 -14.5q0 -20 -21 -20h-1q-18 0 -42 -26.5t-38 -66.5
q-7 -19 -11 -40.5t3 -55.5t33 -55q27 -21 78 -27t130.5 5t151 24.5t184 44t181 50.5t186.5 55q107 33 133 40q7 64 13 100q11 80 31 169q18 82 36 131q0 1 1 3q61 172 153 172q96 0 143 -200q24 -105 43 -273q102 12 138 -18q7 -5 7 -14t-5 -16q-12 -15 -29 -2
q-23 19 -107 9q1 -16 4.5 -46t5.5 -46q28 -285 54 -397q39 -166 101 -166q26 0 53 31q51 59 98 219v1q17 55 33 134q20 94 30.5 180t8.5 103q-1 8 4.5 14.5t13.5 8.5q8 1 15 -4t9 -13zM1166 416q135 39 237 63q-1 7 -1 21t-1 21q-10 218 -21 297q-7 47 -16.5 73.5t-14 30
t-7.5 3.5q-26 0 -53 -39.5t-49 -103.5q-37 -109 -63 -285q-8 -54 -11 -81z" />
    <glyph glyph-name="A" unicode="&#xc2;" horiz-adv-x="1857" 
d="M1977 483q3 -21 -8.5 -110t-32.5 -188q-16 -74 -33 -136q0 -2 -1.5 -10t-2.5 -13q-21 -121 -53 -202q-59 -148 -158 -148q-38 0 -70 15t-56.5 39.5t-45 63.5t-35 80.5t-26.5 98t-19.5 107t-14 117t-10 119t-6.5 121.5q-89 -21 -244 -66q-22 -188 -37 -536q-3 -78 -5 -88
q-3 -17 -21 -17h-2l-2 1q-8 1 -13 8.5t-3 15.5l4 82q15 322 36 521q-93 -27 -116 -34q-396 -118 -567 -153q-145 -29 -232 -29q-103 0 -149 37q-41 32 -51 84.5t12 113.5q18 49 51.5 84.5t69.5 34.5q8 0 14 -6.5t6 -14.5q0 -20 -21 -20h-1q-18 0 -42 -26.5t-38 -66.5
q-7 -19 -11 -40.5t3 -55.5t33 -55q27 -21 78 -27t130.5 5t151 24.5t184 44t181 50.5t186.5 55q107 33 133 40q7 64 13 100q11 80 31 169q18 82 36 131q0 1 1 3q61 172 153 172q96 0 143 -200q24 -105 43 -273q102 12 138 -18q7 -5 7 -14t-5 -16q-12 -15 -29 -2
q-23 19 -107 9q1 -16 4.5 -46t5.5 -46q28 -285 54 -397q39 -166 101 -166q26 0 53 31q51 59 98 219v1q17 55 33 134q20 94 30.5 180t8.5 103q-1 8 4.5 14.5t13.5 8.5q8 1 15 -4t9 -13zM1166 416q135 39 237 63q-1 7 -1 21t-1 21q-10 218 -21 297q-7 47 -16.5 73.5t-14 30
t-7.5 3.5q-26 0 -53 -39.5t-49 -103.5q-37 -109 -63 -285q-8 -54 -11 -81z" />
    <glyph glyph-name="A" unicode="&#xc1;" horiz-adv-x="1857" 
d="M1977 483q3 -21 -8.5 -110t-32.5 -188q-16 -74 -33 -136q0 -2 -1.5 -10t-2.5 -13q-21 -121 -53 -202q-59 -148 -158 -148q-38 0 -70 15t-56.5 39.5t-45 63.5t-35 80.5t-26.5 98t-19.5 107t-14 117t-10 119t-6.5 121.5q-89 -21 -244 -66q-22 -188 -37 -536q-3 -78 -5 -88
q-3 -17 -21 -17h-2l-2 1q-8 1 -13 8.5t-3 15.5l4 82q15 322 36 521q-93 -27 -116 -34q-396 -118 -567 -153q-145 -29 -232 -29q-103 0 -149 37q-41 32 -51 84.5t12 113.5q18 49 51.5 84.5t69.5 34.5q8 0 14 -6.5t6 -14.5q0 -20 -21 -20h-1q-18 0 -42 -26.5t-38 -66.5
q-7 -19 -11 -40.5t3 -55.5t33 -55q27 -21 78 -27t130.5 5t151 24.5t184 44t181 50.5t186.5 55q107 33 133 40q7 64 13 100q11 80 31 169q18 82 36 131q0 1 1 3q61 172 153 172q96 0 143 -200q24 -105 43 -273q102 12 138 -18q7 -5 7 -14t-5 -16q-12 -15 -29 -2
q-23 19 -107 9q1 -16 4.5 -46t5.5 -46q28 -285 54 -397q39 -166 101 -166q26 0 53 31q51 59 98 219v1q17 55 33 134q20 94 30.5 180t8.5 103q-1 8 4.5 14.5t13.5 8.5q8 1 15 -4t9 -13zM1166 416q135 39 237 63q-1 7 -1 21t-1 21q-10 218 -21 297q-7 47 -16.5 73.5t-14 30
t-7.5 3.5q-26 0 -53 -39.5t-49 -103.5q-37 -109 -63 -285q-8 -54 -11 -81z" />
    <glyph glyph-name="A" unicode="&#xc0;" horiz-adv-x="1857" 
d="M1977 483q3 -21 -8.5 -110t-32.5 -188q-16 -74 -33 -136q0 -2 -1.5 -10t-2.5 -13q-21 -121 -53 -202q-59 -148 -158 -148q-38 0 -70 15t-56.5 39.5t-45 63.5t-35 80.5t-26.5 98t-19.5 107t-14 117t-10 119t-6.5 121.5q-89 -21 -244 -66q-22 -188 -37 -536q-3 -78 -5 -88
q-3 -17 -21 -17h-2l-2 1q-8 1 -13 8.5t-3 15.5l4 82q15 322 36 521q-93 -27 -116 -34q-396 -118 -567 -153q-145 -29 -232 -29q-103 0 -149 37q-41 32 -51 84.5t12 113.5q18 49 51.5 84.5t69.5 34.5q8 0 14 -6.5t6 -14.5q0 -20 -21 -20h-1q-18 0 -42 -26.5t-38 -66.5
q-7 -19 -11 -40.5t3 -55.5t33 -55q27 -21 78 -27t130.5 5t151 24.5t184 44t181 50.5t186.5 55q107 33 133 40q7 64 13 100q11 80 31 169q18 82 36 131q0 1 1 3q61 172 153 172q96 0 143 -200q24 -105 43 -273q102 12 138 -18q7 -5 7 -14t-5 -16q-12 -15 -29 -2
q-23 19 -107 9q1 -16 4.5 -46t5.5 -46q28 -285 54 -397q39 -166 101 -166q26 0 53 31q51 59 98 219v1q17 55 33 134q20 94 30.5 180t8.5 103q-1 8 4.5 14.5t13.5 8.5q8 1 15 -4t9 -13zM1166 416q135 39 237 63q-1 7 -1 21t-1 21q-10 218 -21 297q-7 47 -16.5 73.5t-14 30
t-7.5 3.5q-26 0 -53 -39.5t-49 -103.5q-37 -109 -63 -285q-8 -54 -11 -81z" />
    <glyph glyph-name="B" unicode="B" horiz-adv-x="1216" 
d="M1360 512q7 -5 8 -13.5t-4 -15.5q-31 -43 -70 -80.5t-92 -72t-87.5 -55t-100.5 -55.5q-6 -3 -17.5 -9t-17.5 -9q57 -81 57 -206q0 -73 -36.5 -143t-98.5 -118q-80 -62 -171 -62q-26 0 -52 6q-26 5 -42 17l-1 1q-25 16 -37 45q-17 39 -9 93q5 31 15 62q0 1 0.5 1t0.5 1
q15 42 30 69q61 111 217 209q-55 93 -169 120h-1v1h-1q-3 0 -4 1l-2 1l-1 1l-2 2q-1 0 -1 1l-1 1l-1 1q-1 0 -1 1v2t-0.5 1t-0.5 1t-0.5 1t-0.5 1v2v2v1v1v3v1l1 1l1 1v1v1l1 1v1h1l1 2l1 1q1 1 2 1l1 1v1q1 1 3 1l1 1h1h1l1 1h1h1h1h2q19 0 35 3q62 15 104 113
q47 108 47 250q0 89 -22 146q-21 51 -53 51q-59 0 -115 -84t-114 -260q-65 -256 -65 -561q0 -16 0.5 -43t0.5 -40q1 -81 1 -162q0 -28 -29 -42q-19 -9 -47 -9q-31 0 -50 12.5t-19 32.5q0 67 -6 589q-4 438 -4 464q0 60 -17 112t-51 52q-88 0 -147 -74q-56 -70 -83 -201v-1
q-25 -142 3 -277t93 -174q18 -11 7 -29q-10 -18 -28 -7q-88 53 -118 230q-28 168 16 328q31 115 95 183q72 78 176 78q100 0 153 -74q48 -68 48 -195q0 -217 1 -322q9 54 30 140v1q1 2 2 5.5t1 5.5q45 173 115 272q85 120 205 120q83 0 129 -78q39 -66 39 -172
q0 -159 -81 -281q-56 -84 -134 -118q56 -16 100 -46q26 -17 48 -41q7 3 20.5 11t20.5 11q65 35 98 54t84.5 52.5t88.5 69t66 75.5q5 7 13.5 8t15.5 -4zM870 140q-142 -89 -198 -192q-14 -24 -28 -63v-1q0 -1 -1 -3t-1 -3q-1 -2 -1 -4l-1 -2v-2l-1 -2l-1 -2q0 -1 -1 -4t-1 -4
q-17 -69 7 -109q8 -12 17 -19q8 -6 22 -9l2 -1h2q65 -9 117 35q43 37 67.5 101t24.5 140q0 80 -25 144z" />
    <glyph glyph-name="C" unicode="C" horiz-adv-x="1583" 
d="M1708 516q8 1 15 -5t8 -14q8 -84 -35.5 -258t-132.5 -315q-25 -40 -47 -66q-18 -22 -27 -32q-141 -155 -332 -155q-147 0 -249 105q-81 84 -117.5 208.5t-33.5 235.5q3 89 25 186q-147 0 -290.5 35t-256.5 97q-145 81 -202 189.5t-16 225.5q7 20 26 13q20 -7 13 -27
q-13 -38 -14.5 -75.5t7.5 -68t26.5 -60t38 -52t46.5 -44.5t48.5 -36.5t46.5 -28.5q109 -61 251 -94.5t287 -31.5q34 119 95 222t141 172q137 119 285 102q86 -9 115 -82q36 -87 -27 -191v-1h-1q-13 -21 -24 -34q-141 -176 -434 -218q-17 -100 -17 -201q0 -210 65 -345
q68 -142 185 -142q178 0 303 148q1 1 3 4q26 32 46 64v1q86 135 127.5 304t34.5 243q-1 8 4.5 14.5t13.5 7.5zM951 461q267 42 394 201q12 15 21 30q54 99 19 158q-26 43 -91 43q-166 0 -271 -213q-45 -94 -72 -219z" />
    <glyph glyph-name="C" unicode="&#xc7;" horiz-adv-x="1583" 
d="M1708 516q8 1 15 -5t8 -14q8 -84 -35.5 -258t-132.5 -315q-25 -40 -47 -66q-18 -22 -27 -32q-141 -155 -332 -155q-147 0 -249 105q-81 84 -117.5 208.5t-33.5 235.5q3 89 25 186q-147 0 -290.5 35t-256.5 97q-145 81 -202 189.5t-16 225.5q7 20 26 13q20 -7 13 -27
q-13 -38 -14.5 -75.5t7.5 -68t26.5 -60t38 -52t46.5 -44.5t48.5 -36.5t46.5 -28.5q109 -61 251 -94.5t287 -31.5q34 119 95 222t141 172q137 119 285 102q86 -9 115 -82q36 -87 -27 -191v-1h-1q-13 -21 -24 -34q-141 -176 -434 -218q-17 -100 -17 -201q0 -210 65 -345
q68 -142 185 -142q178 0 303 148q1 1 3 4q26 32 46 64v1q86 135 127.5 304t34.5 243q-1 8 4.5 14.5t13.5 7.5zM951 461q267 42 394 201q12 15 21 30q54 99 19 158q-26 43 -91 43q-166 0 -271 -213q-45 -94 -72 -219z" />
    <glyph glyph-name="D" unicode="D" horiz-adv-x="1292" 
d="M1444 512q17 -13 5 -29q-22 -30 -74.5 -64.5t-98.5 -58t-138 -67.5q-13 -6 -28.5 -13.5t-35 -17t-29.5 -14.5q-10 -114 -35 -205q-50 -178 -138 -268q-79 -81 -184 -81q-14 0 -21 1h-5q-45 0 -77 31q-2 2 -4.5 5t-3.5 4l-2 2q-34 37 -31 94q0 23 8 50v1h1v1
q46 168 328 326q43 306 3 536q-13 75 -35 117.5t-47 42.5q-50 0 -102 -78t-85 -183q-1 -6 -6 -9q-14 -42 -20 -65q-39 -142 -61.5 -315.5t-22.5 -331.5v-10q1 -81 1 -162q0 -28 -29 -42q-19 -9 -47 -9q-31 0 -50 12.5t-19 32.5q0 67 -6 589q-4 438 -4 464q0 60 -17 112
t-51 52q-88 0 -147 -74q-56 -70 -83 -201v-1q-25 -142 3 -277t93 -174q18 -11 7 -29q-10 -18 -28 -7q-88 53 -118 230q-28 168 16 328q31 115 95 183q72 78 176 78q100 0 153 -74q48 -68 48 -195q0 -143 2 -397q19 119 49 229q23 82 53 154q94 226 226 226q144 0 194 -237
q27 -127 27 -339v-32q0 -38 -1 -57q14 7 39.5 19t32.5 15q124 59 196 100.5t99 77.5q5 7 13.5 8t15.5 -4zM873 157q-269 -159 -287 -322q0 -1 -0.5 -4t-0.5 -4q0 -37 23 -64q21 -23 60 -27q8 2 14 4q63 24 113 136q47 104 76 271q1 2 1 5.5t1 4.5z" />
    <glyph glyph-name="E" unicode="E" horiz-adv-x="1411" 
d="M1529 508q8 -1 14 -7.5t5 -14.5q0 -12 -6.5 -66.5t-32.5 -169t-65 -211.5q-35 -89 -85 -166l-1 -1q-16 -27 -46 -62q-7 -9 -23 -25q-111 -114 -257 -114q-65 0 -124 27.5t-102 77.5q-96 114 -73 261q20 133 102 221q43 46 96 71q-44 15 -78 46q-76 70 -82 190
q-218 -49 -410 -27q-133 15 -221 62q-101 55 -132 144q-19 56 2.5 114.5t53.5 83.5q7 5 16 4t14 -8q13 -16 -4 -29q-22 -17 -39.5 -62.5t-2.5 -89.5q25 -72 106.5 -118t210.5 -60q195 -20 406 29q0 5 2 17q20 173 109 265q78 80 191 86q67 5 107 -62q23 -38 21 -78v-4v-5
q-3 -25 -14 -42q-67 -109 -277 -181q-3 -118 61 -188q51 -54 113 -54h3h1h1l1 -1h1h1l1 -1h1q2 -1 5 -4h1v-1l1 -1q1 -1 1 -2q1 0 1 -1t0.5 -1t0.5 -1v-1l1 -2v-1v-2v-2v-2v-2v-1h-1v-1v-1l-1 -2v-1l-3 -3l-1 -1v-1l-1 -1l-2 -1l-2 -1l-1 -1h-1h-1v-1h-2q-30 -6 -44 -7
q-119 -37 -162 -282q-12 -67 6.5 -138.5t59.5 -121.5q48 -57 103 -57q62 0 139 46.5t132 132.5q1 0 1 1t1 2h1q40 61 79 158q47 116 72 240.5t30 193.5q1 8 7.5 14t14.5 5zM1151 807q7 12 9 29q-1 46 -27 71.5t-52 25.5q-51 0 -102 -71t-66 -212q182 67 238 157z" />
    <glyph glyph-name="E" unicode="&#xcb;" horiz-adv-x="1411" 
d="M1529 508q8 -1 14 -7.5t5 -14.5q0 -12 -6.5 -66.5t-32.5 -169t-65 -211.5q-35 -89 -85 -166l-1 -1q-16 -27 -46 -62q-7 -9 -23 -25q-111 -114 -257 -114q-65 0 -124 27.5t-102 77.5q-96 114 -73 261q20 133 102 221q43 46 96 71q-44 15 -78 46q-76 70 -82 190
q-218 -49 -410 -27q-133 15 -221 62q-101 55 -132 144q-19 56 2.5 114.5t53.5 83.5q7 5 16 4t14 -8q13 -16 -4 -29q-22 -17 -39.5 -62.5t-2.5 -89.5q25 -72 106.5 -118t210.5 -60q195 -20 406 29q0 5 2 17q20 173 109 265q78 80 191 86q67 5 107 -62q23 -38 21 -78v-4v-5
q-3 -25 -14 -42q-67 -109 -277 -181q-3 -118 61 -188q51 -54 113 -54h3h1h1l1 -1h1h1l1 -1h1q2 -1 5 -4h1v-1l1 -1q1 -1 1 -2q1 0 1 -1t0.5 -1t0.5 -1v-1l1 -2v-1v-2v-2v-2v-2v-1h-1v-1v-1l-1 -2v-1l-3 -3l-1 -1v-1l-1 -1l-2 -1l-2 -1l-1 -1h-1h-1v-1h-2q-30 -6 -44 -7
q-119 -37 -162 -282q-12 -67 6.5 -138.5t59.5 -121.5q48 -57 103 -57q62 0 139 46.5t132 132.5q1 0 1 1t1 2h1q40 61 79 158q47 116 72 240.5t30 193.5q1 8 7.5 14t14.5 5zM1151 807q7 12 9 29q-1 46 -27 71.5t-52 25.5q-51 0 -102 -71t-66 -212q182 67 238 157z" />
    <glyph glyph-name="E" unicode="&#xca;" horiz-adv-x="1411" 
d="M1529 508q8 -1 14 -7.5t5 -14.5q0 -12 -6.5 -66.5t-32.5 -169t-65 -211.5q-35 -89 -85 -166l-1 -1q-16 -27 -46 -62q-7 -9 -23 -25q-111 -114 -257 -114q-65 0 -124 27.5t-102 77.5q-96 114 -73 261q20 133 102 221q43 46 96 71q-44 15 -78 46q-76 70 -82 190
q-218 -49 -410 -27q-133 15 -221 62q-101 55 -132 144q-19 56 2.5 114.5t53.5 83.5q7 5 16 4t14 -8q13 -16 -4 -29q-22 -17 -39.5 -62.5t-2.5 -89.5q25 -72 106.5 -118t210.5 -60q195 -20 406 29q0 5 2 17q20 173 109 265q78 80 191 86q67 5 107 -62q23 -38 21 -78v-4v-5
q-3 -25 -14 -42q-67 -109 -277 -181q-3 -118 61 -188q51 -54 113 -54h3h1h1l1 -1h1h1l1 -1h1q2 -1 5 -4h1v-1l1 -1q1 -1 1 -2q1 0 1 -1t0.5 -1t0.5 -1v-1l1 -2v-1v-2v-2v-2v-2v-1h-1v-1v-1l-1 -2v-1l-3 -3l-1 -1v-1l-1 -1l-2 -1l-2 -1l-1 -1h-1h-1v-1h-2q-30 -6 -44 -7
q-119 -37 -162 -282q-12 -67 6.5 -138.5t59.5 -121.5q48 -57 103 -57q62 0 139 46.5t132 132.5q1 0 1 1t1 2h1q40 61 79 158q47 116 72 240.5t30 193.5q1 8 7.5 14t14.5 5zM1151 807q7 12 9 29q-1 46 -27 71.5t-52 25.5q-51 0 -102 -71t-66 -212q182 67 238 157z" />
    <glyph glyph-name="E" unicode="&#xc9;" horiz-adv-x="1411" 
d="M1529 508q8 -1 14 -7.5t5 -14.5q0 -12 -6.5 -66.5t-32.5 -169t-65 -211.5q-35 -89 -85 -166l-1 -1q-16 -27 -46 -62q-7 -9 -23 -25q-111 -114 -257 -114q-65 0 -124 27.5t-102 77.5q-96 114 -73 261q20 133 102 221q43 46 96 71q-44 15 -78 46q-76 70 -82 190
q-218 -49 -410 -27q-133 15 -221 62q-101 55 -132 144q-19 56 2.5 114.5t53.5 83.5q7 5 16 4t14 -8q13 -16 -4 -29q-22 -17 -39.5 -62.5t-2.5 -89.5q25 -72 106.5 -118t210.5 -60q195 -20 406 29q0 5 2 17q20 173 109 265q78 80 191 86q67 5 107 -62q23 -38 21 -78v-4v-5
q-3 -25 -14 -42q-67 -109 -277 -181q-3 -118 61 -188q51 -54 113 -54h3h1h1l1 -1h1h1l1 -1h1q2 -1 5 -4h1v-1l1 -1q1 -1 1 -2q1 0 1 -1t0.5 -1t0.5 -1v-1l1 -2v-1v-2v-2v-2v-2v-1h-1v-1v-1l-1 -2v-1l-3 -3l-1 -1v-1l-1 -1l-2 -1l-2 -1l-1 -1h-1h-1v-1h-2q-30 -6 -44 -7
q-119 -37 -162 -282q-12 -67 6.5 -138.5t59.5 -121.5q48 -57 103 -57q62 0 139 46.5t132 132.5q1 0 1 1t1 2h1q40 61 79 158q47 116 72 240.5t30 193.5q1 8 7.5 14t14.5 5zM1151 807q7 12 9 29q-1 46 -27 71.5t-52 25.5q-51 0 -102 -71t-66 -212q182 67 238 157z" />
    <glyph glyph-name="E" unicode="&#xc8;" horiz-adv-x="1411" 
d="M1529 508q8 -1 14 -7.5t5 -14.5q0 -12 -6.5 -66.5t-32.5 -169t-65 -211.5q-35 -89 -85 -166l-1 -1q-16 -27 -46 -62q-7 -9 -23 -25q-111 -114 -257 -114q-65 0 -124 27.5t-102 77.5q-96 114 -73 261q20 133 102 221q43 46 96 71q-44 15 -78 46q-76 70 -82 190
q-218 -49 -410 -27q-133 15 -221 62q-101 55 -132 144q-19 56 2.5 114.5t53.5 83.5q7 5 16 4t14 -8q13 -16 -4 -29q-22 -17 -39.5 -62.5t-2.5 -89.5q25 -72 106.5 -118t210.5 -60q195 -20 406 29q0 5 2 17q20 173 109 265q78 80 191 86q67 5 107 -62q23 -38 21 -78v-4v-5
q-3 -25 -14 -42q-67 -109 -277 -181q-3 -118 61 -188q51 -54 113 -54h3h1h1l1 -1h1h1l1 -1h1q2 -1 5 -4h1v-1l1 -1q1 -1 1 -2q1 0 1 -1t0.5 -1t0.5 -1v-1l1 -2v-1v-2v-2v-2v-2v-1h-1v-1v-1l-1 -2v-1l-3 -3l-1 -1v-1l-1 -1l-2 -1l-2 -1l-1 -1h-1h-1v-1h-2q-30 -6 -44 -7
q-119 -37 -162 -282q-12 -67 6.5 -138.5t59.5 -121.5q48 -57 103 -57q62 0 139 46.5t132 132.5q1 0 1 1t1 2h1q40 61 79 158q47 116 72 240.5t30 193.5q1 8 7.5 14t14.5 5zM1151 807q7 12 9 29q-1 46 -27 71.5t-52 25.5q-51 0 -102 -71t-66 -212q182 67 238 157z" />
    <glyph glyph-name="F" unicode="F" horiz-adv-x="929" 
d="M1111 939v-3v-3v-1l-1 -1v-2l-1 -1v-1l-1 -1v-1l-1 -1l-1 -1v-1q-26 -31 -58.5 -53t-62 -35t-70 -18.5t-70 -7t-76 3t-74 8.5t-76.5 12q-100 16 -149 20q2 -6 2 -11q7 -248 8 -467h210q8 0 14.5 -6t6.5 -15t-6.5 -15t-14.5 -6h-210q1 -119 1 -539v-42q0 -28 -30 -42
q-19 -9 -47 -9q-31 0 -50 12.5t-19 32.5q0 24 -1 111t-2 228t-2 248h-51q-9 0 -15 6t-6 15t6 15t15 6h51q0 20 -0.5 60t-0.5 59q-3 270 -3 353v5q-127 -18 -211 -104q-67 -68 -73 -190q-2 -35 3 -68q4 -36 15 -71q48 -165 201 -211q8 -2 11.5 -10t1.5 -16q-5 -14 -20 -14h-6
q-84 25 -143 87t-85 152q-12 43 -16 77q-7 35 -3 83q7 157 83 247q102 122 271 132q101 6 300 -34q55 -11 83.5 -16t76 -11.5t77.5 -4.5t66.5 8t64.5 22.5t52 41.5l2 1q1 0 1 1v1h1l1 1h1l1 1h2h1l1 1h2h5h1h2q1 0 3 -2h1l1 -1h1l1 -1l1 -1h1l1 -2l1 -1q0 -1 0.5 -1t0.5 -1
t0.5 -1t0.5 -1t0.5 -1t0.5 -1t0.5 -1t0.5 -1v-2z" />
    <glyph glyph-name="G" unicode="G" horiz-adv-x="1775" 
d="M1896 517q9 0 15 -6.5t6 -15.5q0 -29 -54.5 -83t-210.5 -190q-49 -43 -116 -101q28 -617 -149 -811q-79 -87 -195 -87q-64 0 -114.5 29t-77.5 81q-55 105 -1 246q0 1 0.5 2t0.5 2t0.5 1t0.5 1q19 49 55 101q102 146 328 354q-3 116 -9 206q-14 -61 -32 -106
q-39 -99 -97 -163q-104 -115 -265 -115q-125 0 -212 90q-70 72 -101 178t-28 201q3 84 20 155q-263 2 -458 110q-124 69 -173 162.5t-14 194.5q7 20 26 13q20 -7 13 -27q-11 -40 -12.5 -73t13 -64.5t31 -55.5t42.5 -46.5t48 -37.5t46 -29q92 -51 210 -79t239 -27
q29 101 80.5 188t119.5 146q115 100 243 86q74 -8 100 -71q31 -74 -23 -164l-1 -1v-1q-6 -10 -20 -28q-122 -152 -367 -187q-14 -84 -14 -167q0 -175 55 -291q57 -119 154 -119q64 0 114 18.5t85.5 55.5t58 72.5t47.5 88.5q31 79 44 166t11 152q-1 13 -1 25v2q1 23 24 36.5
t55 13.5q26 0 45 -10q27 -14 27 -42q0 -22 6 -81q11 -107 19 -241q62 54 92 80q138 119 180 159q65 62 70 83q0 8 6.5 14.5t14.5 6.5zM1137 708q11 13 18 25q44 83 16 130q-20 35 -74 35q-139 0 -226 -179q-38 -78 -60 -180q218 35 326 169zM1187 -710q47 0 83 39
q106 115 114 540q1 39 1 116q-199 -187 -295 -323q-35 -52 -51 -93v-1q-13 -36 -19 -73.5t-0.5 -77.5t24.5 -68q41 -59 143 -59z" />
    <glyph glyph-name="H" unicode="H" horiz-adv-x="1890" 
d="M1990 516q8 0 14 -6t6 -14q0 -12 -4.5 -63.5t-17.5 -150.5t-30 -186q-1 -6 -3.5 -19.5t-4.5 -20.5l-4 -20q-25 -136 -61 -213q-68 -148 -182 -148q-74 0 -126 58q-114 125 -134 523q-95 -23 -290 -83q2 -162 3 -260q0 -30 0.5 -70t1 -61t0.5 -31q0 -28 -29 -42
q-19 -9 -48 -9q-31 0 -50 12.5t-19 32.5q0 109 -3 383q-374 -117 -543 -151q-143 -29 -235 -29q-118 0 -174 47q-32 27 -46 67.5t-11 80.5t19 76q20 47 53.5 72.5t69.5 20.5q8 -1 13.5 -8.5t4.5 -15.5t-8.5 -13.5t-15.5 -4.5q-21 3 -42.5 -15t-35.5 -52q-21 -39 -16 -92.5
t41 -83.5t113 -34.5t159 7t211 44t216 58.5t227 70q-1 27 -1.5 81t-0.5 81q-4 438 -4 464q0 60 -17.5 112t-51.5 52q-87 0 -146 -74q-56 -70 -83 -201l-1 -1q-25 -142 3.5 -277t93.5 -174q18 -11 7 -29t-29 -7q-87 52 -117 230q-28 168 16 328q32 116 94 183q72 78 176 78
q100 0 153 -74q48 -68 48 -195q0 -208 4 -532q199 61 289 82q-9 262 22 601q0 4 0.5 9.5t1 8.5t0.5 4q1 20 19.5 31.5t48.5 10.5q28 -1 48 -12.5t20 -31.5q0 -16 -4 -128q-10 -302 -7 -469q65 3 93 -21q16 -12 3 -29q-5 -7 -14 -7t-16 5q-14 13 -65 10q0 -11 1 -34t2 -34
q18 -369 98 -450q22 -22 45 -22q49 0 92.5 83t78.5 240q1 1 1 4t1 5l6 30q17 84 30 180.5t17.5 149t4.5 63.5q0 8 6 14t14 6h1z" />
    <glyph glyph-name="I" unicode="I" horiz-adv-x="753" 
d="M616 -299q7 5 16 4t14 -8q13 -16 -4 -29q-15 -12 -41.5 -15t-48.5 -0.5t-67 8.5q-67 9 -70 9q-103 9 -151 -19q-4 -3 -11 -3q-12 0 -18 10q-10 17 8 28q48 29 118 29q0 68 -6 590q-4 438 -4 463q0 60 -17 112.5t-51 52.5q-87 0 -147 -75q-56 -70 -83 -201v-1
q-25 -142 3 -277t93 -174q17 -11 7 -28q-11 -18 -28 -8q-88 53 -118 230q-28 168 16 328q31 115 95 183q72 78 176 78q100 0 153 -74q48 -67 48 -195q0 -381 7 -836q1 -81 1 -162q0 -13 -5 -20q97 -14 115 0z" />
    <glyph glyph-name="I" unicode="&#xcf;" horiz-adv-x="753" 
d="M616 -299q7 5 16 4t14 -8q13 -16 -4 -29q-15 -12 -41.5 -15t-48.5 -0.5t-67 8.5q-67 9 -70 9q-103 9 -151 -19q-4 -3 -11 -3q-12 0 -18 10q-10 17 8 28q48 29 118 29q0 68 -6 590q-4 438 -4 463q0 60 -17 112.5t-51 52.5q-87 0 -147 -75q-56 -70 -83 -201v-1
q-25 -142 3 -277t93 -174q17 -11 7 -28q-11 -18 -28 -8q-88 53 -118 230q-28 168 16 328q31 115 95 183q72 78 176 78q100 0 153 -74q48 -67 48 -195q0 -381 7 -836q1 -81 1 -162q0 -13 -5 -20q97 -14 115 0z" />
    <glyph glyph-name="I" unicode="&#xce;" horiz-adv-x="753" 
d="M616 -299q7 5 16 4t14 -8q13 -16 -4 -29q-15 -12 -41.5 -15t-48.5 -0.5t-67 8.5q-67 9 -70 9q-103 9 -151 -19q-4 -3 -11 -3q-12 0 -18 10q-10 17 8 28q48 29 118 29q0 68 -6 590q-4 438 -4 463q0 60 -17 112.5t-51 52.5q-87 0 -147 -75q-56 -70 -83 -201v-1
q-25 -142 3 -277t93 -174q17 -11 7 -28q-11 -18 -28 -8q-88 53 -118 230q-28 168 16 328q31 115 95 183q72 78 176 78q100 0 153 -74q48 -67 48 -195q0 -381 7 -836q1 -81 1 -162q0 -13 -5 -20q97 -14 115 0z" />
    <glyph glyph-name="I" unicode="&#xcd;" horiz-adv-x="753" 
d="M616 -299q7 5 16 4t14 -8q13 -16 -4 -29q-15 -12 -41.5 -15t-48.5 -0.5t-67 8.5q-67 9 -70 9q-103 9 -151 -19q-4 -3 -11 -3q-12 0 -18 10q-10 17 8 28q48 29 118 29q0 68 -6 590q-4 438 -4 463q0 60 -17 112.5t-51 52.5q-87 0 -147 -75q-56 -70 -83 -201v-1
q-25 -142 3 -277t93 -174q17 -11 7 -28q-11 -18 -28 -8q-88 53 -118 230q-28 168 16 328q31 115 95 183q72 78 176 78q100 0 153 -74q48 -67 48 -195q0 -381 7 -836q1 -81 1 -162q0 -13 -5 -20q97 -14 115 0z" />
    <glyph glyph-name="I" unicode="&#xcc;" horiz-adv-x="753" 
d="M616 -299q7 5 16 4t14 -8q13 -16 -4 -29q-15 -12 -41.5 -15t-48.5 -0.5t-67 8.5q-67 9 -70 9q-103 9 -151 -19q-4 -3 -11 -3q-12 0 -18 10q-10 17 8 28q48 29 118 29q0 68 -6 590q-4 438 -4 463q0 60 -17 112.5t-51 52.5q-87 0 -147 -75q-56 -70 -83 -201v-1
q-25 -142 3 -277t93 -174q17 -11 7 -28q-11 -18 -28 -8q-88 53 -118 230q-28 168 16 328q31 115 95 183q72 78 176 78q100 0 153 -74q48 -67 48 -195q0 -381 7 -836q1 -81 1 -162q0 -13 -5 -20q97 -14 115 0z" />
    <glyph glyph-name="J" unicode="J" horiz-adv-x="737" 
d="M858 515q19 -7 12 -27q-13 -33 -65 -63.5t-166 -82.5q-108 -49 -171 -82q-8 -223 -65 -378q-76 -207 -220 -207q-102 0 -143 62q-48 74 4 191q5 13 19 41q77 145 281 269q3 56 3 114q0 154 -22 290.5t-58.5 217.5t-78.5 81q-38 0 -68 -36.5t-43.5 -75.5t-22.5 -86v-2
q-14 -113 -11.5 -205t12.5 -155q1 -8 -4 -15t-13 -9q-8 -1 -15 4t-9 13q-21 118 -12 270q3 54 11 107q21 129 73 189q47 56 116 56q84 0 146 -100.5t91.5 -252t29.5 -325.5v-11q65 33 152 73q49 22 75.5 34.5t60.5 30.5t51.5 32t22.5 26q7 19 27 12zM340 187
q-173 -111 -240 -238q-10 -18 -18 -38q-39 -95 -9 -146q13 -24 40 -24q112 0 176 184q37 105 51 262z" />
    <glyph glyph-name="K" unicode="K" horiz-adv-x="972" 
d="M1080 496q8 -1 13 -9t3 -16q0 -1 -1 -5.5t-2 -9.5l-2 -10q-40 -219 -77 -327l-3 -6v-3l-1 -1v-2l-3 -6q-86 -239 -206 -239q-82 0 -161 90t-139 215q1 -64 2.5 -166.5t1.5 -117.5q1 -81 1 -162q0 -28 -29 -42q-19 -9 -47 -9q-31 0 -50 12.5t-19 32.5q0 68 -6 590
q-4 438 -4 463q0 60 -17 112.5t-51 52.5q-87 0 -147 -75q-56 -70 -83 -201v-1q-25 -142 3 -277t93 -174q17 -11 7 -28q-11 -18 -28 -8q-88 53 -118 230q-28 168 16 328q31 115 95 183q72 78 176 78q100 0 153 -74q48 -67 48 -195q0 -143 2 -399v1l1 1q87 151 194.5 357.5
t126.5 273.5q5 19 25 14q20 -6 15 -25q-19 -68 -120.5 -263.5t-193.5 -357.5q36 -24 67.5 -75.5t73.5 -140.5q21 -44 33.5 -69t31.5 -57t36 -47.5t32 -15.5q35 0 72.5 52.5t67.5 129.5v1q1 1 1 2q1 1 1 2.5t1 2.5q1 2 3.5 9t3.5 11q0 1 1 3t1 3v0q44 129 76 321q1 7 3 16
t2 11q1 8 9 13t16 3z" />
    <glyph glyph-name="L" unicode="L" horiz-adv-x="761" 
d="M1021 -141q6 6 15 6t15 -6t6 -14.5t-6 -14.5q-18 -18 -34 -30q-33 -28 -75.5 -46t-80 -25.5t-94.5 -8t-91.5 1.5t-98.5 8q-96 8 -148.5 10t-127 -9.5t-124.5 -42.5q-2 -1 -4 -3t-4 -3q-2 -2 -8 -4l-12 -9q-7 -5 -13 -5q-10 0 -16 8q-13 17 3 29q10 8 30 22q79 59 216 68
q-8 11 -8 22q0 68 -6 524q-4 384 -4 411q0 60 -17 112t-51 52q-87 0 -147 -75q-56 -70 -83 -201v-1q-25 -142 3 -277t93 -174q17 -10 7 -28q-10 -17 -28 -7q-89 53 -118 229q-28 169 16 329q31 113 95 182q72 78 176 78q100 0 153 -74q48 -67 48 -195q0 -370 7 -741
q1 -66 1 -138q0 -17 -12 -29q16 -1 48 -3.5t48 -3.5q78 -6 117.5 -7.5t100 0.5t104.5 16t79 40l8 8q1 1 7 4z" />
    <glyph glyph-name="M" unicode="M" horiz-adv-x="1681" 
d="M1799 516q21 -6 16 -25q-22 -99 -63 -207l-9 -21q-11 -33 -17 -52q-15 -42 -23 -65.5t-25.5 -67t-31 -69.5t-35 -59.5t-41.5 -52t-46 -32t-53 -13.5q-72 0 -116 59q-36 47 -57 141q-25 109 -33 383q-6 195 -16 255q-15 94 -46 94q-20 0 -45.5 -33t-48.5 -90
q-51 -127 -83 -317v-5t-1 -4q-35 -212 -35 -394q0 -1 -0.5 -2.5t-0.5 -2.5q0 -2 0.5 -6t0.5 -5q1 -20 -15 -33.5t-42 -15.5q-26 -1 -47 12.5t-22 37.5q-1 16 -3 156q-2 340 -21 497q-31 268 -105 268q-29 0 -54.5 -24t-45.5 -71t-34.5 -92t-28 -113t-20 -105.5t-15.5 -95.5
q-33 -271 -31 -583v-2v-39v-1q0 -28 -29 -42q-19 -9 -47 -9q-31 0 -50 12.5t-19 32.5q0 68 -6 590q-4 438 -4 463q0 60 -17 112.5t-51 52.5q-87 0 -147 -75q-56 -70 -83 -201v-1q-25 -142 3 -277t93 -174q17 -11 7 -28q-11 -18 -28 -8q-88 53 -118 230q-28 168 16 328
q31 115 95 183q72 78 176 78q100 0 153 -74q48 -67 48 -195q0 -228 1 -338q48 376 154 483q42 43 95 43q84 0 138 -113q43 -92 67 -249q17 -109 25 -242q1 6 2.5 17t2.5 17v2q0 3 1.5 10.5t2.5 11.5q0 1 0.5 2.5t0.5 2.5q17 95 38 178q40 155 92 245q61 108 136 108
q58 0 94 -54q28 -42 44 -124q20 -103 26 -348q6 -218 18 -289q20 -112 61 -112q30 0 71 50.5t85 139.5q35 75 51 115v1q4 14 9 24q39 102 61 200q6 21 25 16z" />
    <glyph glyph-name="N" unicode="N" horiz-adv-x="1224" 
d="M1342 516q21 -6 16 -25q-21 -93 -64 -207l-3.5 -10.5t-4.5 -11.5v-1q0 -1 -7 -20t-11 -30q-15 -42 -23 -65.5t-25.5 -67t-31 -69.5t-35 -59.5t-41.5 -52t-46 -32t-53 -13.5q-71 0 -115 59q-36 47 -57 141q-25 109 -33 383q-6 195 -16 255q-15 94 -46 94q-24 0 -53 -41
t-56 -113q-47 -125 -77 -300v-2q-11 -64 -14 -89v-2q0 -1 -0.5 -3.5t-0.5 -3.5q-39 -282 -39 -509q0 -28 -29 -42q-19 -9 -47 -9q-31 0 -50 12.5t-19 32.5q0 68 -6 590q-4 438 -4 463q0 60 -17 112.5t-51 52.5q-87 0 -147 -75q-56 -70 -83 -201v-1q-25 -142 3 -277t93 -174
q17 -11 7 -28q-11 -18 -28 -8q-88 53 -118 230q-28 168 16 328q31 115 95 183q72 78 176 78q100 0 153 -74q48 -67 48 -195q0 -271 3 -503q1 3 1 10t1 10l1 1q8 64 14 97q11 63 19 99q93 464 260 464q57 0 93 -54q29 -44 45 -124q20 -103 26 -348q6 -218 18 -289
q20 -112 61 -112q30 0 71 50.5t85 139.5q35 75 51 115v1q5 14 9 24q39 102 61 200q6 21 25 16z" />
    <glyph glyph-name="N" unicode="&#xd1;" horiz-adv-x="1224" 
d="M1342 516q21 -6 16 -25q-21 -93 -64 -207l-3.5 -10.5t-4.5 -11.5v-1q0 -1 -7 -20t-11 -30q-15 -42 -23 -65.5t-25.5 -67t-31 -69.5t-35 -59.5t-41.5 -52t-46 -32t-53 -13.5q-71 0 -115 59q-36 47 -57 141q-25 109 -33 383q-6 195 -16 255q-15 94 -46 94q-24 0 -53 -41
t-56 -113q-47 -125 -77 -300v-2q-11 -64 -14 -89v-2q0 -1 -0.5 -3.5t-0.5 -3.5q-39 -282 -39 -509q0 -28 -29 -42q-19 -9 -47 -9q-31 0 -50 12.5t-19 32.5q0 68 -6 590q-4 438 -4 463q0 60 -17 112.5t-51 52.5q-87 0 -147 -75q-56 -70 -83 -201v-1q-25 -142 3 -277t93 -174
q17 -11 7 -28q-11 -18 -28 -8q-88 53 -118 230q-28 168 16 328q31 115 95 183q72 78 176 78q100 0 153 -74q48 -67 48 -195q0 -271 3 -503q1 3 1 10t1 10l1 1q8 64 14 97q11 63 19 99q93 464 260 464q57 0 93 -54q29 -44 45 -124q20 -103 26 -348q6 -218 18 -289
q20 -112 61 -112q30 0 71 50.5t85 139.5q35 75 51 115v1q5 14 9 24q39 102 61 200q6 21 25 16z" />
    <glyph glyph-name="O" unicode="O" horiz-adv-x="1026" 
d="M1133 510q15 14 29 0t0 -29q-167 -164 -394 -208q-9 -139 -42 -250q-1 -4 -4.5 -15t-5.5 -17q-23 -67 -54 -119q-43 -74 -99 -118q-1 -1 -4 -3q-1 -1 -2 -1q-86 -65 -198 -65q-121 0 -211 104q-89 103 -126.5 277.5t-10.5 355.5q4 32 39 51.5t72 15.5q34 -3 52 -27
q15 -19 13 -48q-1 -41 -2 -98t7 -131t20 -142.5t38 -132.5t61 -101q47 -50 112 -50q88 0 160 79q37 53 55 135.5t19.5 138.5t0.5 148q-157 -6 -285 51q-125 55 -194 155q-74 106 -69 244q1 65 33 125q0 1 0.5 1t0.5 1t2 3q20 37 58 71q83 72 187 69q86 -3 160 -55.5
t126 -148.5q102 -188 93 -458v-2q206 41 363 194zM389 349q120 -53 269 -47q0 2 -0.5 7t-0.5 8q0 76 -15.5 181t-45.5 195q-21 63 -46.5 113t-69 89.5t-94.5 39.5q-53 0 -110.5 -29.5t-91.5 -83.5q-31 -52 -32 -113q-4 -120 58 -214t179 -146z" />
    <glyph glyph-name="O" unicode="&#xd8;" horiz-adv-x="1026" 
d="M1133 510q15 14 29 0t0 -29q-167 -164 -394 -208q-9 -139 -42 -250q-1 -4 -4.5 -15t-5.5 -17q-23 -67 -54 -119q-43 -74 -99 -118q-1 -1 -4 -3q-1 -1 -2 -1q-86 -65 -198 -65q-121 0 -211 104q-89 103 -126.5 277.5t-10.5 355.5q4 32 39 51.5t72 15.5q34 -3 52 -27
q15 -19 13 -48q-1 -41 -2 -98t7 -131t20 -142.5t38 -132.5t61 -101q47 -50 112 -50q88 0 160 79q37 53 55 135.5t19.5 138.5t0.5 148q-157 -6 -285 51q-125 55 -194 155q-74 106 -69 244q1 65 33 125q0 1 0.5 1t0.5 1t2 3q20 37 58 71q83 72 187 69q86 -3 160 -55.5
t126 -148.5q102 -188 93 -458v-2q206 41 363 194zM389 349q120 -53 269 -47q0 2 -0.5 7t-0.5 8q0 76 -15.5 181t-45.5 195q-21 63 -46.5 113t-69 89.5t-94.5 39.5q-53 0 -110.5 -29.5t-91.5 -83.5q-31 -52 -32 -113q-4 -120 58 -214t179 -146z" />
    <glyph glyph-name="O" unicode="&#xd6;" horiz-adv-x="1026" 
d="M1133 510q15 14 29 0t0 -29q-167 -164 -394 -208q-9 -139 -42 -250q-1 -4 -4.5 -15t-5.5 -17q-23 -67 -54 -119q-43 -74 -99 -118q-1 -1 -4 -3q-1 -1 -2 -1q-86 -65 -198 -65q-121 0 -211 104q-89 103 -126.5 277.5t-10.5 355.5q4 32 39 51.5t72 15.5q34 -3 52 -27
q15 -19 13 -48q-1 -41 -2 -98t7 -131t20 -142.5t38 -132.5t61 -101q47 -50 112 -50q88 0 160 79q37 53 55 135.5t19.5 138.5t0.5 148q-157 -6 -285 51q-125 55 -194 155q-74 106 -69 244q1 65 33 125q0 1 0.5 1t0.5 1t2 3q20 37 58 71q83 72 187 69q86 -3 160 -55.5
t126 -148.5q102 -188 93 -458v-2q206 41 363 194zM389 349q120 -53 269 -47q0 2 -0.5 7t-0.5 8q0 76 -15.5 181t-45.5 195q-21 63 -46.5 113t-69 89.5t-94.5 39.5q-53 0 -110.5 -29.5t-91.5 -83.5q-31 -52 -32 -113q-4 -120 58 -214t179 -146z" />
    <glyph glyph-name="O" unicode="&#xd5;" horiz-adv-x="1026" 
d="M1133 510q15 14 29 0t0 -29q-167 -164 -394 -208q-9 -139 -42 -250q-1 -4 -4.5 -15t-5.5 -17q-23 -67 -54 -119q-43 -74 -99 -118q-1 -1 -4 -3q-1 -1 -2 -1q-86 -65 -198 -65q-121 0 -211 104q-89 103 -126.5 277.5t-10.5 355.5q4 32 39 51.5t72 15.5q34 -3 52 -27
q15 -19 13 -48q-1 -41 -2 -98t7 -131t20 -142.5t38 -132.5t61 -101q47 -50 112 -50q88 0 160 79q37 53 55 135.5t19.5 138.5t0.5 148q-157 -6 -285 51q-125 55 -194 155q-74 106 -69 244q1 65 33 125q0 1 0.5 1t0.5 1t2 3q20 37 58 71q83 72 187 69q86 -3 160 -55.5
t126 -148.5q102 -188 93 -458v-2q206 41 363 194zM389 349q120 -53 269 -47q0 2 -0.5 7t-0.5 8q0 76 -15.5 181t-45.5 195q-21 63 -46.5 113t-69 89.5t-94.5 39.5q-53 0 -110.5 -29.5t-91.5 -83.5q-31 -52 -32 -113q-4 -120 58 -214t179 -146z" />
    <glyph glyph-name="O" unicode="&#xd4;" horiz-adv-x="1026" 
d="M1133 510q15 14 29 0t0 -29q-167 -164 -394 -208q-9 -139 -42 -250q-1 -4 -4.5 -15t-5.5 -17q-23 -67 -54 -119q-43 -74 -99 -118q-1 -1 -4 -3q-1 -1 -2 -1q-86 -65 -198 -65q-121 0 -211 104q-89 103 -126.5 277.5t-10.5 355.5q4 32 39 51.5t72 15.5q34 -3 52 -27
q15 -19 13 -48q-1 -41 -2 -98t7 -131t20 -142.5t38 -132.5t61 -101q47 -50 112 -50q88 0 160 79q37 53 55 135.5t19.5 138.5t0.5 148q-157 -6 -285 51q-125 55 -194 155q-74 106 -69 244q1 65 33 125q0 1 0.5 1t0.5 1t2 3q20 37 58 71q83 72 187 69q86 -3 160 -55.5
t126 -148.5q102 -188 93 -458v-2q206 41 363 194zM389 349q120 -53 269 -47q0 2 -0.5 7t-0.5 8q0 76 -15.5 181t-45.5 195q-21 63 -46.5 113t-69 89.5t-94.5 39.5q-53 0 -110.5 -29.5t-91.5 -83.5q-31 -52 -32 -113q-4 -120 58 -214t179 -146z" />
    <glyph glyph-name="O" unicode="&#xd3;" horiz-adv-x="1026" 
d="M1133 510q15 14 29 0t0 -29q-167 -164 -394 -208q-9 -139 -42 -250q-1 -4 -4.5 -15t-5.5 -17q-23 -67 -54 -119q-43 -74 -99 -118q-1 -1 -4 -3q-1 -1 -2 -1q-86 -65 -198 -65q-121 0 -211 104q-89 103 -126.5 277.5t-10.5 355.5q4 32 39 51.5t72 15.5q34 -3 52 -27
q15 -19 13 -48q-1 -41 -2 -98t7 -131t20 -142.5t38 -132.5t61 -101q47 -50 112 -50q88 0 160 79q37 53 55 135.5t19.5 138.5t0.5 148q-157 -6 -285 51q-125 55 -194 155q-74 106 -69 244q1 65 33 125q0 1 0.5 1t0.5 1t2 3q20 37 58 71q83 72 187 69q86 -3 160 -55.5
t126 -148.5q102 -188 93 -458v-2q206 41 363 194zM389 349q120 -53 269 -47q0 2 -0.5 7t-0.5 8q0 76 -15.5 181t-45.5 195q-21 63 -46.5 113t-69 89.5t-94.5 39.5q-53 0 -110.5 -29.5t-91.5 -83.5q-31 -52 -32 -113q-4 -120 58 -214t179 -146z" />
    <glyph glyph-name="O" unicode="&#xd2;" horiz-adv-x="1026" 
d="M1133 510q15 14 29 0t0 -29q-167 -164 -394 -208q-9 -139 -42 -250q-1 -4 -4.5 -15t-5.5 -17q-23 -67 -54 -119q-43 -74 -99 -118q-1 -1 -4 -3q-1 -1 -2 -1q-86 -65 -198 -65q-121 0 -211 104q-89 103 -126.5 277.5t-10.5 355.5q4 32 39 51.5t72 15.5q34 -3 52 -27
q15 -19 13 -48q-1 -41 -2 -98t7 -131t20 -142.5t38 -132.5t61 -101q47 -50 112 -50q88 0 160 79q37 53 55 135.5t19.5 138.5t0.5 148q-157 -6 -285 51q-125 55 -194 155q-74 106 -69 244q1 65 33 125q0 1 0.5 1t0.5 1t2 3q20 37 58 71q83 72 187 69q86 -3 160 -55.5
t126 -148.5q102 -188 93 -458v-2q206 41 363 194zM389 349q120 -53 269 -47q0 2 -0.5 7t-0.5 8q0 76 -15.5 181t-45.5 195q-21 63 -46.5 113t-69 89.5t-94.5 39.5q-53 0 -110.5 -29.5t-91.5 -83.5q-31 -52 -32 -113q-4 -120 58 -214t179 -146z" />
    <glyph glyph-name="P" unicode="P" horiz-adv-x="1181" 
d="M790 925q103 0 168 -76q50 -59 70 -153t4 -203q-17 -114 -62.5 -204t-112.5 -139q-68 -50 -146 -50q-18 0 -36 3q-52 8 -93 38q-23 16 -42 39l-1 1q-20 22 -38 59v-41q1 -72 2.5 -188.5t1.5 -127.5q1 -81 1 -162q0 -28 -29 -42q-19 -9 -47 -9q-31 0 -50 12.5t-19 32.5
q0 68 -6 590q-4 438 -4 463q0 60 -17 112.5t-51 52.5q-87 0 -147 -75q-56 -70 -83 -201v-1q-25 -142 3 -277t93 -174q17 -11 7 -28q-11 -18 -28 -8q-88 53 -118 230q-28 168 16 328q31 115 95 183q72 78 176 78q100 0 153 -74q48 -67 48 -195v-127q23 94 58 161q0 1 0.5 1
t0.5 1q19 37 41 65q20 24 28 32q71 73 164 73zM513 438q-12 -126 42 -209l6 -9q18 -25 45 -45q18 -12 37 -12q51 0 95.5 38t73.5 95t46.5 106t25.5 88q18 77 6 174.5t-54 148.5q-34 42 -87 42q-71 0 -121 -65l-1 -1q-13 -18 -31 -50q0 -1 -1 -1t-1 -1q-25 -49 -51 -138v-1
q-19 -71 -30 -160z" />
    <glyph glyph-name="Q" unicode="Q" horiz-adv-x="1085" 
d="M1195 510q15 14 29 0t0 -29q-167 -164 -394 -208q-9 -138 -42 -249v-1q-1 -4 -4.5 -15t-5.5 -17q-23 -67 -54 -119q-43 -74 -99 -118q-1 0 -2 -1l-2 -2t-2 -1q-10 -8 -20 -14q111 4 188 -14t119 -72q13 -16 -4 -29q-5 -4 -12 -4q-11 0 -17 8q-20 26 -55 41.5t-69 22
t-92.5 6.5t-93.5 -2t-104 -8q-1 0 -4 -0.5t-5 -0.5q-68 -5 -107 -7.5t-98.5 -1.5t-97 8.5t-77.5 25t-65 45.5q-14 15 2 29t29 -1q65 -71 262 -66q-45 24 -88 73q-89 103 -126.5 277.5t-10.5 355.5q4 32 39 51.5t72 15.5q34 -3 52 -27q15 -19 13 -48q-1 -41 -2 -98t7 -131
t20 -142.5t38 -132.5t61 -101q47 -50 112 -50q88 0 160 79q37 53 55 135.5t19.5 138.5t0.5 148q-157 -6 -285 51q-125 56 -194 155q-74 106 -69 244q1 65 33 125q0 1 0.5 1t0.5 1t0.5 1t0.5 1q22 40 59 72q83 72 187 69q86 -3 160 -55.5t126 -148.5q102 -188 93 -458v-2
q206 41 363 194zM451 349q120 -53 268 -47v15q0 75 -16 180t-46 196q-79 242 -209 242q-54 0 -112 -29.5t-91 -84.5q-30 -53 -31 -112q-4 -120 58 -214t179 -146z" />
    <glyph glyph-name="R" unicode="R" horiz-adv-x="1288" 
d="M1419 516q8 -1 13.5 -9t3.5 -16q-3 -17 -18.5 -70.5t-47.5 -147t-67 -178.5q-30 -92 -99 -210q-17 -29 -34 -54q0 -1 -2 -3t-2 -3q-82 -121 -158 -121q-107 0 -198 151q-55 90 -104 245q-16 0 -31 3q-50 8 -92 38h-1q-18 11 -42 39l-1 1q-20 22 -38 59v-43
q1 -72 2.5 -186.5t1.5 -127.5q1 -81 1 -162q0 -28 -29 -42q-19 -9 -47 -9q-31 0 -50 12.5t-19 32.5q0 68 -6 590q-4 438 -4 463q0 60 -17 112.5t-51 52.5q-87 0 -147 -75q-56 -70 -83 -201v-1q-25 -142 3 -277t93 -174q17 -11 7 -28q-11 -18 -28 -8q-88 53 -118 230
q-28 168 16 328q31 115 95 183q72 78 176 78q100 0 153 -74q48 -67 48 -195v-127q23 94 58 161q0 1 0.5 1t0.5 1q18 34 41 64q25 30 28 33q71 73 164 73q103 0 168 -76q50 -59 70 -153t4 -203q-17 -114 -63 -204t-113 -139q-5 -5 -22 -15q27 -43 77 -176q17 -44 28 -71
t27.5 -61.5t32 -51.5t30.5 -17q45 0 118 113v1q59 95 111 223l6 15q33 82 65 175t47 145.5t19 69.5q1 8 8.5 13t15.5 3zM513 438q-12 -126 42 -209q2 -4 3 -5l3 -3v-1q18 -25 45 -45q18 -12 37 -12q51 0 96 39q56 48 94.5 135t50.5 153q18 77 6 174.5t-54 148.5
q-34 42 -87 42q-71 0 -121 -65l-1 -1q-13 -18 -31 -50q0 -1 -1 -1t-1 -1q-25 -49 -51 -138v-1q-19 -71 -30 -160z" />
    <glyph glyph-name="S" unicode="S" horiz-adv-x="1339" 
d="M1447 511q14 14 29 -1q14 -14 -1 -30q-63 -60 -383 -272q58 -109 46 -215q-10 -97 -63.5 -172.5t-139.5 -116.5q-73 -34 -139 -34q-58 0 -98 26h-1q-27 18 -44 49q-13 25 -16 55.5t6 66t37.5 76.5t73.5 81q38 33 204 145q-18 29 -62 89q-37 51 -56 79.5t-47 77.5
t-43 98.5t-20 102.5q-158 -3 -319 29q-144 29 -247.5 75t-141.5 100q-43 60 -3 122q10 17 29 6q17 -10 6 -29q-25 -36 2 -75q33 -47 131 -89.5t232 -68.5q159 -31 309 -28q0 31 3 64q13 112 84 183q72 70 164 70q63 0 104 -46q5 -6 10 -13h1q4 -6 10 -18q20 -41 16 -86
q-6 -52 -50 -99t-145 -73q-37 -9 -77 -15q8 -48 33 -99t46.5 -82.5t64.5 -87.5q56 -75 79 -112q310 205 376 267zM1078 817q5 43 -19 76h-1q-29 37 -76 37q-44 0 -87 -67q-42 -66 -50 -140q-3 -32 -2 -56q50 8 72 14q152 39 163 136zM781 -7q-39 -34 -63.5 -68t-33 -63.5
t-7 -54t11.5 -43.5q9 -18 30 -32q1 0 1 -1t1 -1t3.5 -1.5t3.5 -2.5h1q36 -16 76 -6q78 21 135 102t70 156q13 73 -31 155q-162 -108 -198 -140z" />
    <glyph glyph-name="T" unicode="T" 
d="M1111 940v-1v-5v-1q0 -1 -0.5 -2t-0.5 -2l-1 -2q0 -1 -1 -1v-1l-1 -1l-1 -1v-1q-26 -31 -58.5 -53t-62 -35t-70 -18.5t-70 -7t-76 3t-74 8.5t-76.5 12q-108 18 -149 21q2 -6 2 -12q9 -359 9 -1048v-42q0 -28 -29 -42q-19 -9 -48 -9q-31 0 -50 12.5t-19 32.5q0 143 -6 749
q-3 270 -3 352v5q-127 -18 -211 -104q-67 -68 -73 -190q-2 -35 3 -68q4 -36 15 -71q48 -165 201 -211q8 -2 11.5 -10t1.5 -16q-5 -14 -20 -14h-6q-84 25 -143 87t-85 152q-12 43 -16 77q-7 34 -3 82q7 158 83 248q102 122 271 132q100 6 299 -34q66 -13 100.5 -19t90 -10.5
t90 0.5t73.5 22t67 47l2 1q1 0 1 1v1h1l1 1h1q1 0 1 0.5t1 0.5h1h1l1 1h2h4h1h1l1 -1h2h2v-1h2l1 -1l1 -1l1 -1h1l1 -2v-1l1 -1h1v-1l1 -1v-1l1 -1v-1q0 -1 0.5 -1t0.5 -1v-1z" />
    <glyph glyph-name="U" unicode="U" horiz-adv-x="1239" 
d="M1362 508q8 -1 13.5 -8t4.5 -15q-6 -55 -31.5 -164t-63.5 -213q-108 -295 -248 -295q-73 0 -125 58q-79 87 -108 313q-3 -23 -20 -127q-7 -41 -13 -68q-11 -57 -30 -111q-18 -53 -34 -87q-59 -122 -145 -122q-64 0 -108 45q-70 72 -86 263q-9 104 -3 375q1 126 1.5 236
t-16.5 202t-53 129q-26 26 -63 26q-56 0 -98 -40.5t-62.5 -97.5t-28.5 -125q-17 -157 36 -297q54 -144 156 -166q8 -1 13 -9t3 -16q-1 -8 -9 -13t-16 -3q-60 13 -107.5 62.5t-78.5 129.5q-57 147 -38 316q14 127 68 208q63 93 162 93q44 0 67.5 -1t56 -9t55.5 -24
q74 -52 97 -221q14 -104 2 -404q-5 -121 -6 -187.5t1.5 -161.5t15.5 -151t37 -81q15 -15 33 -15q24 0 51.5 38.5t51.5 103.5q20 58 34 123q6 26 13 67q32 181 44 413q0 222 23 422q5 39 44 56q23 10 49.5 7.5t44.5 -16.5q30 -24 24 -62q-44 -287 -20 -598
q11 -143 36.5 -246.5t58.5 -142.5q16 -19 30 -19q48 0 114 133t121 342l3 6q18 83 24 131q1 8 8 13.5t15 4.5z" />
    <glyph glyph-name="U" unicode="&#xdc;" horiz-adv-x="1239" 
d="M1362 508q8 -1 13.5 -8t4.5 -15q-6 -55 -31.5 -164t-63.5 -213q-108 -295 -248 -295q-73 0 -125 58q-79 87 -108 313q-3 -23 -20 -127q-7 -41 -13 -68q-11 -57 -30 -111q-18 -53 -34 -87q-59 -122 -145 -122q-64 0 -108 45q-70 72 -86 263q-9 104 -3 375q1 126 1.5 236
t-16.5 202t-53 129q-26 26 -63 26q-56 0 -98 -40.5t-62.5 -97.5t-28.5 -125q-17 -157 36 -297q54 -144 156 -166q8 -1 13 -9t3 -16q-1 -8 -9 -13t-16 -3q-60 13 -107.5 62.5t-78.5 129.5q-57 147 -38 316q14 127 68 208q63 93 162 93q44 0 67.5 -1t56 -9t55.5 -24
q74 -52 97 -221q14 -104 2 -404q-5 -121 -6 -187.5t1.5 -161.5t15.5 -151t37 -81q15 -15 33 -15q24 0 51.5 38.5t51.5 103.5q20 58 34 123q6 26 13 67q32 181 44 413q0 222 23 422q5 39 44 56q23 10 49.5 7.5t44.5 -16.5q30 -24 24 -62q-44 -287 -20 -598
q11 -143 36.5 -246.5t58.5 -142.5q16 -19 30 -19q48 0 114 133t121 342l3 6q18 83 24 131q1 8 8 13.5t15 4.5z" />
    <glyph glyph-name="U" unicode="&#xdb;" horiz-adv-x="1239" 
d="M1362 508q8 -1 13.5 -8t4.5 -15q-6 -55 -31.5 -164t-63.5 -213q-108 -295 -248 -295q-73 0 -125 58q-79 87 -108 313q-3 -23 -20 -127q-7 -41 -13 -68q-11 -57 -30 -111q-18 -53 -34 -87q-59 -122 -145 -122q-64 0 -108 45q-70 72 -86 263q-9 104 -3 375q1 126 1.5 236
t-16.5 202t-53 129q-26 26 -63 26q-56 0 -98 -40.5t-62.5 -97.5t-28.5 -125q-17 -157 36 -297q54 -144 156 -166q8 -1 13 -9t3 -16q-1 -8 -9 -13t-16 -3q-60 13 -107.5 62.5t-78.5 129.5q-57 147 -38 316q14 127 68 208q63 93 162 93q44 0 67.5 -1t56 -9t55.5 -24
q74 -52 97 -221q14 -104 2 -404q-5 -121 -6 -187.5t1.5 -161.5t15.5 -151t37 -81q15 -15 33 -15q24 0 51.5 38.5t51.5 103.5q20 58 34 123q6 26 13 67q32 181 44 413q0 222 23 422q5 39 44 56q23 10 49.5 7.5t44.5 -16.5q30 -24 24 -62q-44 -287 -20 -598
q11 -143 36.5 -246.5t58.5 -142.5q16 -19 30 -19q48 0 114 133t121 342l3 6q18 83 24 131q1 8 8 13.5t15 4.5z" />
    <glyph glyph-name="U" unicode="&#xda;" horiz-adv-x="1239" 
d="M1362 508q8 -1 13.5 -8t4.5 -15q-6 -55 -31.5 -164t-63.5 -213q-108 -295 -248 -295q-73 0 -125 58q-79 87 -108 313q-3 -23 -20 -127q-7 -41 -13 -68q-11 -57 -30 -111q-18 -53 -34 -87q-59 -122 -145 -122q-64 0 -108 45q-70 72 -86 263q-9 104 -3 375q1 126 1.5 236
t-16.5 202t-53 129q-26 26 -63 26q-56 0 -98 -40.5t-62.5 -97.5t-28.5 -125q-17 -157 36 -297q54 -144 156 -166q8 -1 13 -9t3 -16q-1 -8 -9 -13t-16 -3q-60 13 -107.5 62.5t-78.5 129.5q-57 147 -38 316q14 127 68 208q63 93 162 93q44 0 67.5 -1t56 -9t55.5 -24
q74 -52 97 -221q14 -104 2 -404q-5 -121 -6 -187.5t1.5 -161.5t15.5 -151t37 -81q15 -15 33 -15q24 0 51.5 38.5t51.5 103.5q20 58 34 123q6 26 13 67q32 181 44 413q0 222 23 422q5 39 44 56q23 10 49.5 7.5t44.5 -16.5q30 -24 24 -62q-44 -287 -20 -598
q11 -143 36.5 -246.5t58.5 -142.5q16 -19 30 -19q48 0 114 133t121 342l3 6q18 83 24 131q1 8 8 13.5t15 4.5z" />
    <glyph glyph-name="U" unicode="&#xd9;" horiz-adv-x="1239" 
d="M1362 508q8 -1 13.5 -8t4.5 -15q-6 -55 -31.5 -164t-63.5 -213q-108 -295 -248 -295q-73 0 -125 58q-79 87 -108 313q-3 -23 -20 -127q-7 -41 -13 -68q-11 -57 -30 -111q-18 -53 -34 -87q-59 -122 -145 -122q-64 0 -108 45q-70 72 -86 263q-9 104 -3 375q1 126 1.5 236
t-16.5 202t-53 129q-26 26 -63 26q-56 0 -98 -40.5t-62.5 -97.5t-28.5 -125q-17 -157 36 -297q54 -144 156 -166q8 -1 13 -9t3 -16q-1 -8 -9 -13t-16 -3q-60 13 -107.5 62.5t-78.5 129.5q-57 147 -38 316q14 127 68 208q63 93 162 93q44 0 67.5 -1t56 -9t55.5 -24
q74 -52 97 -221q14 -104 2 -404q-5 -121 -6 -187.5t1.5 -161.5t15.5 -151t37 -81q15 -15 33 -15q24 0 51.5 38.5t51.5 103.5q20 58 34 123q6 26 13 67q32 181 44 413q0 222 23 422q5 39 44 56q23 10 49.5 7.5t44.5 -16.5q30 -24 24 -62q-44 -287 -20 -598
q11 -143 36.5 -246.5t58.5 -142.5q16 -19 30 -19q48 0 114 133t121 342l3 6q18 83 24 131q1 8 8 13.5t15 4.5z" />
    <glyph glyph-name="V" unicode="V" horiz-adv-x="1173" 
d="M1034 952q14 14 30 -1q14 -15 -1 -30q-29 -28 -53.5 -117t-36 -169t-29.5 -225q-20 -162 -28 -217q-26 -174 -55 -276q-71 -248 -207 -248q-160 0 -221 242q-16 63 -27 156.5t-14 148.5t-10 181q-13 278 -37 391q-33 157 -111 157q-56 0 -98 -40.5t-62.5 -97.5
t-28.5 -125q-17 -157 36 -297q54 -144 156 -166q8 -1 13 -9t3 -16q-1 -8 -9 -13t-16 -3q-60 13 -107.5 62.5t-78.5 129.5q-57 147 -38 316q14 127 68 208q63 93 162 93q44 0 67.5 -1t56 -9t55.5 -24q74 -52 97 -221q9 -67 21 -302q17 -341 41 -478q38 -220 113 -220
q16 0 31.5 9t37.5 39t41.5 78.5t41 136.5t38.5 204q8 56 28 216q16 126 24 185.5t24.5 145.5t36 133.5t46.5 72.5z" />
    <glyph glyph-name="W" unicode="W" horiz-adv-x="1595" 
d="M1460 971q19 11 29 -6q11 -19 -6 -29q-66 -43 -102 -228q-20 -103 -34 -286v-1q-2 -18 -4.5 -53.5t-3.5 -51.5q0 -1 -0.5 -3t-0.5 -3v-4q-23 -306 -49 -422q-46 -205 -151 -217q-7 -1 -14 -1q-78 0 -137 69q-91 105 -132 363v-5q-31 -272 -129 -372q-50 -52 -116 -52
q-89 0 -146 59q-43 44 -69 121t-33.5 167t-9 196.5t2.5 209.5q2 117 2.5 215.5t-13.5 177.5t-45 110q-19 20 -50 20q-81 0 -137 -83q-52 -78 -66 -206q-11 -98 4.5 -191t60 -162.5t110.5 -83.5q8 -1 13 -9t3 -16q-1 -8 -9 -13t-16 -3q-79 17 -131.5 94.5t-70.5 179t-6 208.5
q15 139 73 225q67 102 172 102q43 0 67.5 -1.5t56 -9.5t54.5 -24q72 -52 88 -221q8 -82 -2 -329q-4 -88 -5 -129t-2.5 -123.5t2.5 -129t11.5 -105.5t22.5 -96.5t36 -59.5q27 -27 64 -27q59 0 103 94.5t68 272.5q0 1 1 3q16 137 13 319v1q-4 179 10 277q5 34 34.5 50.5
t63.5 11.5q32 -5 49.5 -26.5t13.5 -52.5q-18 -125 -22 -267t5.5 -271t36 -233t66.5 -150q25 -29 54 -29q72 0 115 218q25 129 44 370q7 95 11.5 147.5t13.5 133.5t20 129t27.5 102t39 87.5t51.5 51.5z" />
    <glyph glyph-name="X" unicode="X" horiz-adv-x="1079" 
d="M1190 516q8 -2 12.5 -10t2.5 -16q-3 -11 -4 -13q-36 -141 -78 -253v-1q-11 -35 -39 -92q-130 -285 -297 -285q-165 0 -256 220q-21 50 -35 99q-53 -128 -101 -223q-61 -119 -115.5 -179.5t-108.5 -69.5h-4q-17 0 -20 17q-1 8 4 15t13 9q83 13 194 227q51 98 120 270
q-24 97 -57 276q-46 251 -78 338q-47 130 -118 130q-20 0 -46.5 -15t-50.5 -46q-75 -96 -86 -311v-1l-1 -2q2 -111 43.5 -207.5t122.5 -156.5q7 -5 8 -13.5t-4 -15.5t-13.5 -8t-15.5 4q-135 101 -171 288q-9 48 -11 111v3v2q-1 105 32 209q33 100 89.5 156t123.5 56
q159 0 242 -193q46 -106 91 -352q88 226 135 320q46 93 84 138.5t76 51.5q8 1 15 -4t9 -13q1 -8 -4.5 -15t-13.5 -9q-50 -9 -128 -167q-57 -116 -158 -377l-1 -1v-2q11 -62 19.5 -103.5t21.5 -95t25.5 -88t31 -72t39 -58.5t48 -35t59.5 -14q75 0 158 120q30 44 53 92
q65 142 114 336q3 12 3 14q2 8 10 12.5t16 2.5z" />
    <glyph glyph-name="Y" unicode="Y" horiz-adv-x="1409" 
d="M1538 509q8 -1 13.5 -9t3.5 -16q-5 -26 -54 -65.5t-185 -133.5q-107 -73 -193 -136q-10 -423 -54 -585q-40 -144 -111 -203q-58 -48 -150 -48q-149 0 -208 112q-37 70 -21.5 164.5t79.5 185.5q106 150 331 326v24q3 221 -10 467q-28 -200 -82 -362q-29 -94 -66 -162h-1
q-97 -187 -212 -187q-84 0 -139 58q-46 49 -70 143q-28 113 -30 401q-2 248 -20 331q-17 79 -46 105t-64 26q-81 0 -137 -83q-52 -78 -66 -206q-11 -98 4.5 -191t60 -162.5t110.5 -83.5q8 -1 13 -9t3 -16t-9.5 -13t-15.5 -3q-79 17 -131.5 94.5t-70.5 179t-6 208.5
q15 139 73 225q67 102 172 102q43 0 67.5 -1.5t56 -9.5t54.5 -24q72 -52 88 -221q8 -90 10 -262q3 -272 21 -372q28 -153 103 -153q34 0 75 43.5t77 113.5q25 49 53 131q0 1 2 5t2 5q48 142 74.5 316t26.5 342q-1 20 17 34.5t48 17.5q31 3 56.5 -9.5t29.5 -39.5
q6 -48 11 -227t4 -369q0 -70 -1 -106q51 36 169 118q117 80 159 113q56 43 62 60q2 8 9 13t15 4zM789 -621q39 0 70 34q114 121 129 634q-200 -160 -295 -296q-33 -47 -50 -90q0 -1 -0.5 -2t-0.5 -2q-14 -37 -20 -74t-1 -77.5t24 -67.5q41 -59 144 -59z" />
    <glyph glyph-name="Y" unicode="&#x178;" horiz-adv-x="1409" 
d="M1538 509q8 -1 13.5 -9t3.5 -16q-5 -26 -54 -65.5t-185 -133.5q-107 -73 -193 -136q-10 -423 -54 -585q-40 -144 -111 -203q-58 -48 -150 -48q-149 0 -208 112q-37 70 -21.5 164.5t79.5 185.5q106 150 331 326v24q3 221 -10 467q-28 -200 -82 -362q-29 -94 -66 -162h-1
q-97 -187 -212 -187q-84 0 -139 58q-46 49 -70 143q-28 113 -30 401q-2 248 -20 331q-17 79 -46 105t-64 26q-81 0 -137 -83q-52 -78 -66 -206q-11 -98 4.5 -191t60 -162.5t110.5 -83.5q8 -1 13 -9t3 -16t-9.5 -13t-15.5 -3q-79 17 -131.5 94.5t-70.5 179t-6 208.5
q15 139 73 225q67 102 172 102q43 0 67.5 -1.5t56 -9.5t54.5 -24q72 -52 88 -221q8 -90 10 -262q3 -272 21 -372q28 -153 103 -153q34 0 75 43.5t77 113.5q25 49 53 131q0 1 2 5t2 5q48 142 74.5 316t26.5 342q-1 20 17 34.5t48 17.5q31 3 56.5 -9.5t29.5 -39.5
q6 -48 11 -227t4 -369q0 -70 -1 -106q51 36 169 118q117 80 159 113q56 43 62 60q2 8 9 13t15 4zM789 -621q39 0 70 34q114 121 129 634q-200 -160 -295 -296q-33 -47 -50 -90q0 -1 -0.5 -2t-0.5 -2q-14 -37 -20 -74t-1 -77.5t24 -67.5q41 -59 144 -59z" />
    <glyph glyph-name="Y" unicode="&#xdd;" horiz-adv-x="1409" 
d="M1538 509q8 -1 13.5 -9t3.5 -16q-5 -26 -54 -65.5t-185 -133.5q-107 -73 -193 -136q-10 -423 -54 -585q-40 -144 -111 -203q-58 -48 -150 -48q-149 0 -208 112q-37 70 -21.5 164.5t79.5 185.5q106 150 331 326v24q3 221 -10 467q-28 -200 -82 -362q-29 -94 -66 -162h-1
q-97 -187 -212 -187q-84 0 -139 58q-46 49 -70 143q-28 113 -30 401q-2 248 -20 331q-17 79 -46 105t-64 26q-81 0 -137 -83q-52 -78 -66 -206q-11 -98 4.5 -191t60 -162.5t110.5 -83.5q8 -1 13 -9t3 -16t-9.5 -13t-15.5 -3q-79 17 -131.5 94.5t-70.5 179t-6 208.5
q15 139 73 225q67 102 172 102q43 0 67.5 -1.5t56 -9.5t54.5 -24q72 -52 88 -221q8 -90 10 -262q3 -272 21 -372q28 -153 103 -153q34 0 75 43.5t77 113.5q25 49 53 131q0 1 2 5t2 5q48 142 74.5 316t26.5 342q-1 20 17 34.5t48 17.5q31 3 56.5 -9.5t29.5 -39.5
q6 -48 11 -227t4 -369q0 -70 -1 -106q51 36 169 118q117 80 159 113q56 43 62 60q2 8 9 13t15 4zM789 -621q39 0 70 34q114 121 129 634q-200 -160 -295 -296q-33 -47 -50 -90q0 -1 -0.5 -2t-0.5 -2q-14 -37 -20 -74t-1 -77.5t24 -67.5q41 -59 144 -59z" />
    <glyph glyph-name="Z" unicode="Z" horiz-adv-x="1058" 
d="M1189 519q17 -13 5 -29q-64 -86 -186 -179.5t-304 -209.5q82 -75 126 -194q40 -112 14 -248q-27 -143 -120 -248q-122 -140 -301 -178q-49 -11 -106 -11q-110 0 -189 46q-85 50 -114 136q-32 93 9 214q14 40 49 81q40 52 101 97l1 1q101 83 398 270q2 1 4.5 2.5t3.5 2.5
q-71 59 -180 100q-13 4 -13 21q-2 4 -2 5q-2 17 20 25q91 38 152 125.5t80.5 188.5t1.5 195q-5 27 -15 53.5t-30 59t-55 52.5t-81 20q-94 0 -182 -77q-117 -110 -171 -342q-6 -21 -25 -16q-21 6 -16 25q38 160 103 263l1 2q27 50 78 96v1q97 91 224 101q122 10 210.5 -53.5
t113.5 -180.5q34 -156 -56 -304q-87 -143 -259 -223q74 -14 140 -49q18 -9 50 -31q183 116 306 209t185 177q5 7 13.5 8t15.5 -4zM594 32q-130 -82 -199.5 -127.5t-157.5 -112t-130 -115.5q-71 -89 -57 -181q8 -47 38 -83t75 -51q56 -19 114 -19q136 0 252.5 91.5
t163.5 223.5q23 64 24.5 127.5t-24 132.5t-81.5 125q-3 -2 -9 -5.5t-9 -5.5z" />
    <glyph glyph-name="bracketleft" unicode="[" horiz-adv-x="456" 
d="M333 -228q8 0 14.5 -6t6.5 -15t-6 -14.5t-15 -5.5q-15 0 -36.5 -0.5t-29.5 -0.5t-23.5 -0.5t-22.5 -0.5h-19h-1h-21q-12 0 -58 2q-20 2 -20 20v1181q0 9 6 15t15 6h210q8 0 14.5 -6t6.5 -15q0 -8 -6.5 -14t-14.5 -6h-148v-1141h17h23q9 0 31 0.5t36 0.5h3h38z" />
    <glyph glyph-name="backslash" unicode="\" horiz-adv-x="501" 
d="M398 -148q2 -8 -2.5 -16t-12.5 -10h-5q-17 0 -20 15q-34 132 -114 444q-121 475 -141 551q-5 19 15 25q19 5 25 -15q43 -163 142 -551q28 -109 67 -263t46 -180z" />
    <glyph glyph-name="bracketright" unicode="]" horiz-adv-x="456" 
d="M334 953q9 0 15 -6t6 -15v-1181q0 -18 -20 -20q-46 -2 -58 -2h-22h-1h-19q-7 0 -22 0.5t-23 0.5t-30 0.5t-37 0.5q-21 0 -21 20q0 9 6 15t15 6h39h3q15 0 37 -0.5t30 -0.5h23h16v1141h-148q-9 0 -15 6t-6 14q0 9 6 15t15 6h211zM313 -229v1141v-1141z" />
    <glyph glyph-name="asciicircum" unicode="^" horiz-adv-x="528" 
d="M426 558q2 -8 -2.5 -16t-12.5 -10q-19 -5 -25 15q-3 12 -15 58q-39 149 -52 193q-30 95 -47 112q-21 -14 -52 -106q-16 -48 -59 -208q-3 -14 -9.5 -37t-8.5 -31q-5 -15 -20 -15h-5q-8 2 -12.5 10t-2.5 16q1 5 8 29t10 38q50 193 82 270t70 77q31 0 60.5 -71t78.5 -267
q3 -12 7.5 -31.5t6.5 -25.5z" />
    <glyph glyph-name="grave" unicode="`" horiz-adv-x="446" 
d="M339 812q12 -16 -5 -29q-5 -4 -12 -4q-11 0 -17 9q-41 56 -91 106t-74 57q-10 -13 -25 -6q-19 9 -11 27q8 19 29 21q34 5 108 -68q56 -55 98 -113z" />
    <glyph glyph-name="a" unicode="a" horiz-adv-x="843" 
d="M969 520q8 -2 13 -9t4 -15q-6 -37 -31.5 -135.5t-61.5 -195.5q-24 -64 -41 -100q-10 -24 -17 -35q-85 -162 -179 -162q-62 0 -110 51q-98 108 -106 423q-27 -96 -63 -168l-1 -1q-19 -47 -58 -91q-71 -83 -161 -83q-67 0 -114 79q-43 72 -43 166q0 124 67 221
q75 109 190 109q8 0 22 -2q20 -3 37 -14q21 -14 39 -36q35 -47 50 -122l3 -18q20 75 36 159q0 7 0.5 13.5t1 10.5t0.5 5q2 25 23.5 40t50.5 13q31 -3 52.5 -26t18.5 -62q-17 -209 0 -366.5t61 -206.5q16 -18 36 -18q26 0 55.5 30.5t53.5 72.5q25 47 57 132q35 95 60 190.5
t31 133.5q2 8 9 13t15 4zM365 256q9 34 6 84v2v1q-1 11 -5 40v1q-9 44 -28.5 84.5t-45.5 55.5q-12 6 -19 7h-1q-20 3 -49 -21q-36 -31 -63.5 -97t-27.5 -154q0 -116 33 -169q19 -31 43 -31q33 0 77 49l1 1q23 27 52 81q10 21 21 45q1 2 2.5 6t2.5 6q0 6 1 9z" />
    <glyph glyph-name="a" unicode="&#xe5;" horiz-adv-x="843" 
d="M969 520q8 -2 13 -9t4 -15q-6 -37 -31.5 -135.5t-61.5 -195.5q-24 -64 -41 -100q-10 -24 -17 -35q-85 -162 -179 -162q-62 0 -110 51q-98 108 -106 423q-27 -96 -63 -168l-1 -1q-19 -47 -58 -91q-71 -83 -161 -83q-67 0 -114 79q-43 72 -43 166q0 124 67 221
q75 109 190 109q8 0 22 -2q20 -3 37 -14q21 -14 39 -36q35 -47 50 -122l3 -18q20 75 36 159q0 7 0.5 13.5t1 10.5t0.5 5q2 25 23.5 40t50.5 13q31 -3 52.5 -26t18.5 -62q-17 -209 0 -366.5t61 -206.5q16 -18 36 -18q26 0 55.5 30.5t53.5 72.5q25 47 57 132q35 95 60 190.5
t31 133.5q2 8 9 13t15 4zM365 256q9 34 6 84v2v1q-1 11 -5 40v1q-9 44 -28.5 84.5t-45.5 55.5q-12 6 -19 7h-1q-20 3 -49 -21q-36 -31 -63.5 -97t-27.5 -154q0 -116 33 -169q19 -31 43 -31q33 0 77 49l1 1q23 27 52 81q10 21 21 45q1 2 2.5 6t2.5 6q0 6 1 9z" />
    <glyph glyph-name="a" unicode="&#xe4;" horiz-adv-x="843" 
d="M969 520q8 -2 13 -9t4 -15q-6 -37 -31.5 -135.5t-61.5 -195.5q-24 -64 -41 -100q-10 -24 -17 -35q-85 -162 -179 -162q-62 0 -110 51q-98 108 -106 423q-27 -96 -63 -168l-1 -1q-19 -47 -58 -91q-71 -83 -161 -83q-67 0 -114 79q-43 72 -43 166q0 124 67 221
q75 109 190 109q8 0 22 -2q20 -3 37 -14q21 -14 39 -36q35 -47 50 -122l3 -18q20 75 36 159q0 7 0.5 13.5t1 10.5t0.5 5q2 25 23.5 40t50.5 13q31 -3 52.5 -26t18.5 -62q-17 -209 0 -366.5t61 -206.5q16 -18 36 -18q26 0 55.5 30.5t53.5 72.5q25 47 57 132q35 95 60 190.5
t31 133.5q2 8 9 13t15 4zM365 256q9 34 6 84v2v1q-1 11 -5 40v1q-9 44 -28.5 84.5t-45.5 55.5q-12 6 -19 7h-1q-20 3 -49 -21q-36 -31 -63.5 -97t-27.5 -154q0 -116 33 -169q19 -31 43 -31q33 0 77 49l1 1q23 27 52 81q10 21 21 45q1 2 2.5 6t2.5 6q0 6 1 9z" />
    <glyph glyph-name="a" unicode="&#xe3;" horiz-adv-x="843" 
d="M969 520q8 -2 13 -9t4 -15q-6 -37 -31.5 -135.5t-61.5 -195.5q-24 -64 -41 -100q-10 -24 -17 -35q-85 -162 -179 -162q-62 0 -110 51q-98 108 -106 423q-27 -96 -63 -168l-1 -1q-19 -47 -58 -91q-71 -83 -161 -83q-67 0 -114 79q-43 72 -43 166q0 124 67 221
q75 109 190 109q8 0 22 -2q20 -3 37 -14q21 -14 39 -36q35 -47 50 -122l3 -18q20 75 36 159q0 7 0.5 13.5t1 10.5t0.5 5q2 25 23.5 40t50.5 13q31 -3 52.5 -26t18.5 -62q-17 -209 0 -366.5t61 -206.5q16 -18 36 -18q26 0 55.5 30.5t53.5 72.5q25 47 57 132q35 95 60 190.5
t31 133.5q2 8 9 13t15 4zM365 256q9 34 6 84v2v1q-1 11 -5 40v1q-9 44 -28.5 84.5t-45.5 55.5q-12 6 -19 7h-1q-20 3 -49 -21q-36 -31 -63.5 -97t-27.5 -154q0 -116 33 -169q19 -31 43 -31q33 0 77 49l1 1q23 27 52 81q10 21 21 45q1 2 2.5 6t2.5 6q0 6 1 9z" />
    <glyph glyph-name="a" unicode="&#xe2;" horiz-adv-x="843" 
d="M969 520q8 -2 13 -9t4 -15q-6 -37 -31.5 -135.5t-61.5 -195.5q-24 -64 -41 -100q-10 -24 -17 -35q-85 -162 -179 -162q-62 0 -110 51q-98 108 -106 423q-27 -96 -63 -168l-1 -1q-19 -47 -58 -91q-71 -83 -161 -83q-67 0 -114 79q-43 72 -43 166q0 124 67 221
q75 109 190 109q8 0 22 -2q20 -3 37 -14q21 -14 39 -36q35 -47 50 -122l3 -18q20 75 36 159q0 7 0.5 13.5t1 10.5t0.5 5q2 25 23.5 40t50.5 13q31 -3 52.5 -26t18.5 -62q-17 -209 0 -366.5t61 -206.5q16 -18 36 -18q26 0 55.5 30.5t53.5 72.5q25 47 57 132q35 95 60 190.5
t31 133.5q2 8 9 13t15 4zM365 256q9 34 6 84v2v1q-1 11 -5 40v1q-9 44 -28.5 84.5t-45.5 55.5q-12 6 -19 7h-1q-20 3 -49 -21q-36 -31 -63.5 -97t-27.5 -154q0 -116 33 -169q19 -31 43 -31q33 0 77 49l1 1q23 27 52 81q10 21 21 45q1 2 2.5 6t2.5 6q0 6 1 9z" />
    <glyph glyph-name="a" unicode="&#xe1;" horiz-adv-x="843" 
d="M969 520q8 -2 13 -9t4 -15q-6 -37 -31.5 -135.5t-61.5 -195.5q-24 -64 -41 -100q-10 -24 -17 -35q-85 -162 -179 -162q-62 0 -110 51q-98 108 -106 423q-27 -96 -63 -168l-1 -1q-19 -47 -58 -91q-71 -83 -161 -83q-67 0 -114 79q-43 72 -43 166q0 124 67 221
q75 109 190 109q8 0 22 -2q20 -3 37 -14q21 -14 39 -36q35 -47 50 -122l3 -18q20 75 36 159q0 7 0.5 13.5t1 10.5t0.5 5q2 25 23.5 40t50.5 13q31 -3 52.5 -26t18.5 -62q-17 -209 0 -366.5t61 -206.5q16 -18 36 -18q26 0 55.5 30.5t53.5 72.5q25 47 57 132q35 95 60 190.5
t31 133.5q2 8 9 13t15 4zM365 256q9 34 6 84v2v1q-1 11 -5 40v1q-9 44 -28.5 84.5t-45.5 55.5q-12 6 -19 7h-1q-20 3 -49 -21q-36 -31 -63.5 -97t-27.5 -154q0 -116 33 -169q19 -31 43 -31q33 0 77 49l1 1q23 27 52 81q10 21 21 45q1 2 2.5 6t2.5 6q0 6 1 9z" />
    <glyph glyph-name="a" unicode="&#xe0;" horiz-adv-x="843" 
d="M969 520q8 -2 13 -9t4 -15q-6 -37 -31.5 -135.5t-61.5 -195.5q-24 -64 -41 -100q-10 -24 -17 -35q-85 -162 -179 -162q-62 0 -110 51q-98 108 -106 423q-27 -96 -63 -168l-1 -1q-19 -47 -58 -91q-71 -83 -161 -83q-67 0 -114 79q-43 72 -43 166q0 124 67 221
q75 109 190 109q8 0 22 -2q20 -3 37 -14q21 -14 39 -36q35 -47 50 -122l3 -18q20 75 36 159q0 7 0.5 13.5t1 10.5t0.5 5q2 25 23.5 40t50.5 13q31 -3 52.5 -26t18.5 -62q-17 -209 0 -366.5t61 -206.5q16 -18 36 -18q26 0 55.5 30.5t53.5 72.5q25 47 57 132q35 95 60 190.5
t31 133.5q2 8 9 13t15 4zM365 256q9 34 6 84v2v1q-1 11 -5 40v1q-9 44 -28.5 84.5t-45.5 55.5q-12 6 -19 7h-1q-20 3 -49 -21q-36 -31 -63.5 -97t-27.5 -154q0 -116 33 -169q19 -31 43 -31q33 0 77 49l1 1q23 27 52 81q10 21 21 45q1 2 2.5 6t2.5 6q0 6 1 9z" />
    <glyph glyph-name="b" unicode="b" horiz-adv-x="817" 
d="M943 508q21 -6 16 -25q-34 -135 -152 -198q-72 -39 -221 -61q-22 -101 -84 -168q-75 -81 -178 -81q-44 0 -68 31q-19 26 -19 67q-2 39 14 79q1 2 3 4q23 52 72 71.5t123 25.5q8 51 8 98q0 83 -22 135q-21 49 -56 49q-63 0 -122 -86q-44 -67 -67 -162l-1 -1
q-9 -41 -16 -101q-7 -72 -7 -135q2 -32 -35 -40q-12 -2 -22 -2q-58 0 -68 33q-19 61 -30 195.5t-11 260.5q0 273 53 398q56 131 184 131q57 0 90 -44q25 -32 31 -83q3 -30 3 -32q0 -41 -12 -87q-17 -65 -51 -121q0 -1 -1 -3l-1 -2l-3 -3q-54 -86 -149 -155q-2 -110 3 -209
q25 114 71 185q23 36 51 61t53 35t42.5 14t32.5 4q87 0 141 -63q75 -85 54 -256q51 8 88.5 17t79 26t70 40t52.5 59.5t36 83.5q6 20 25 15zM223 960q-67 -78 -78 -411q71 56 114 124v2q35 60 49.5 115t11 92t-18.5 63q-19 32 -46 32q-18 0 -32 -17zM416 125q14 35 25 86
q-65 -6 -103.5 -24.5t-51.5 -63.5q-8 -28 -8 -47v-1q0 -21 11 -37q11 -15 30 -15q54 0 97 102z" />
    <glyph glyph-name="c" unicode="c" horiz-adv-x="536" 
d="M662 509q8 -2 13 -9t4 -15q-37 -215 -158 -359q-29 -39 -85.5 -80t-103.5 -51q-42 -12 -89 -12q-23 0 -49 3q-96 14 -150 109q-46 80 -44 184q2 78 29 142.5t75 102.5q68 54 146 39q11 -2 20 -6q32 -11 56 -46q25 -34 23 -72q-1 -8 -7.5 -14.5t-14.5 -5.5t-14.5 7.5
t-5.5 14.5q0 10 -1 16q-2 10 -9 23h-1q-15 27 -40 37q-8 2 -10 2q-50 0 -78.5 -63.5t-28.5 -149.5q0 -114 43 -189q47 -83 126 -83q8 0 12 1q45 13 86 41l3 3q2 1 9 6t11 8l1 1q28 23 55 54h1l1 1q1 1 1 2l3 3q110 131 146 338q1 8 9 13.5t16 3.5z" />
    <glyph glyph-name="c" unicode="&#xe7;" horiz-adv-x="536" 
d="M662 509q8 -2 13 -9t4 -15q-37 -215 -158 -359q-29 -39 -85.5 -80t-103.5 -51q-42 -12 -89 -12q-23 0 -49 3q-96 14 -150 109q-46 80 -44 184q2 78 29 142.5t75 102.5q68 54 146 39q11 -2 20 -6q32 -11 56 -46q25 -34 23 -72q-1 -8 -7.5 -14.5t-14.5 -5.5t-14.5 7.5
t-5.5 14.5q0 10 -1 16q-2 10 -9 23h-1q-15 27 -40 37q-8 2 -10 2q-50 0 -78.5 -63.5t-28.5 -149.5q0 -114 43 -189q47 -83 126 -83q8 0 12 1q45 13 86 41l3 3q2 1 9 6t11 8l1 1q28 23 55 54h1l1 1q1 1 1 2l3 3q110 131 146 338q1 8 9 13.5t16 3.5z" />
    <glyph glyph-name="d" unicode="d" horiz-adv-x="772" 
d="M898 520q8 -2 13 -9t4 -15q-45 -266 -89 -408v-1q-25 -89 -58 -150q-10 -19 -17 -29q-63 -105 -141 -105q-152 0 -211 239q-18 74 -27 168q-14 -39 -33 -77q-72 -148 -157 -148q-76 0 -126 65q-56 74 -56 207q0 158 89 267q37 45 81.5 71t85.5 26q67 0 111 -69
q12 152 50 258q66 181 191 181q22 0 42 -10q68 -32 80 -129l1 -1q3 -15 1 -33v-1q0 -120 -83 -218q-64 -75 -146 -114q-3 -65 -1 -149q3 -150 21.5 -261t43.5 -163.5t52 -52.5q51 0 98 73q87 150 157 571q2 8 9 13t15 4zM531 759q-17 -92 -25 -226q72 41 128.5 114.5
t56.5 169.5v1q0 12 -2 30q-8 52 -38 82q-18 18 -36 16q-20 -1 -43 -46.5t-41 -140.5zM302 152q35 73 62 173q-1 33 -1 105v23q-5 25 -15 47l-1 1q-14 30 -35 52t-43 22q-42 0 -79 -103q-37 -106 -37 -229q0 -84 20 -135q19 -48 53 -48q29 0 74 89l1 2z" />
    <glyph glyph-name="e" unicode="e" horiz-adv-x="536" 
d="M662 509q8 -2 13 -9t4 -15q-25 -140 -88 -255q-29 -53 -67 -101v-1q-12 -16 -34 -38q-32 -32 -63 -53q-83 -57 -174 -57q-30 0 -60 6q-95 19 -145 105t-48 188q1 79 29 144.5t78 105.5q68 54 144 39q40 -8 66.5 -36t29.5 -64q1 -9 0 -19q-4 -32 -28 -57t-59 -38.5
t-64.5 -20.5t-56.5 -10v-17q0 -114 43 -189q47 -83 126 -83q28 0 70 24t78 57q65 65 113.5 165t67.5 212q1 8 9 13.5t16 3.5zM246 519q-41 0 -68 -43.5t-36 -110.5q32 4 65 13t64 29.5t34 45.5q0 1 0.5 5t0.5 6q-9 33 -24 44t-36 11z" />
    <glyph glyph-name="e" unicode="&#xeb;" horiz-adv-x="536" 
d="M662 509q8 -2 13 -9t4 -15q-25 -140 -88 -255q-29 -53 -67 -101v-1q-12 -16 -34 -38q-32 -32 -63 -53q-83 -57 -174 -57q-30 0 -60 6q-95 19 -145 105t-48 188q1 79 29 144.5t78 105.5q68 54 144 39q40 -8 66.5 -36t29.5 -64q1 -9 0 -19q-4 -32 -28 -57t-59 -38.5
t-64.5 -20.5t-56.5 -10v-17q0 -114 43 -189q47 -83 126 -83q28 0 70 24t78 57q65 65 113.5 165t67.5 212q1 8 9 13.5t16 3.5zM246 519q-41 0 -68 -43.5t-36 -110.5q32 4 65 13t64 29.5t34 45.5q0 1 0.5 5t0.5 6q-9 33 -24 44t-36 11z" />
    <glyph glyph-name="e" unicode="&#xea;" horiz-adv-x="536" 
d="M662 509q8 -2 13 -9t4 -15q-25 -140 -88 -255q-29 -53 -67 -101v-1q-12 -16 -34 -38q-32 -32 -63 -53q-83 -57 -174 -57q-30 0 -60 6q-95 19 -145 105t-48 188q1 79 29 144.5t78 105.5q68 54 144 39q40 -8 66.5 -36t29.5 -64q1 -9 0 -19q-4 -32 -28 -57t-59 -38.5
t-64.5 -20.5t-56.5 -10v-17q0 -114 43 -189q47 -83 126 -83q28 0 70 24t78 57q65 65 113.5 165t67.5 212q1 8 9 13.5t16 3.5zM246 519q-41 0 -68 -43.5t-36 -110.5q32 4 65 13t64 29.5t34 45.5q0 1 0.5 5t0.5 6q-9 33 -24 44t-36 11z" />
    <glyph glyph-name="e" unicode="&#xe9;" horiz-adv-x="536" 
d="M662 509q8 -2 13 -9t4 -15q-25 -140 -88 -255q-29 -53 -67 -101v-1q-12 -16 -34 -38q-32 -32 -63 -53q-83 -57 -174 -57q-30 0 -60 6q-95 19 -145 105t-48 188q1 79 29 144.5t78 105.5q68 54 144 39q40 -8 66.5 -36t29.5 -64q1 -9 0 -19q-4 -32 -28 -57t-59 -38.5
t-64.5 -20.5t-56.5 -10v-17q0 -114 43 -189q47 -83 126 -83q28 0 70 24t78 57q65 65 113.5 165t67.5 212q1 8 9 13.5t16 3.5zM246 519q-41 0 -68 -43.5t-36 -110.5q32 4 65 13t64 29.5t34 45.5q0 1 0.5 5t0.5 6q-9 33 -24 44t-36 11z" />
    <glyph glyph-name="e" unicode="&#xe8;" horiz-adv-x="536" 
d="M662 509q8 -2 13 -9t4 -15q-25 -140 -88 -255q-29 -53 -67 -101v-1q-12 -16 -34 -38q-32 -32 -63 -53q-83 -57 -174 -57q-30 0 -60 6q-95 19 -145 105t-48 188q1 79 29 144.5t78 105.5q68 54 144 39q40 -8 66.5 -36t29.5 -64q1 -9 0 -19q-4 -32 -28 -57t-59 -38.5
t-64.5 -20.5t-56.5 -10v-17q0 -114 43 -189q47 -83 126 -83q28 0 70 24t78 57q65 65 113.5 165t67.5 212q1 8 9 13.5t16 3.5zM246 519q-41 0 -68 -43.5t-36 -110.5q32 4 65 13t64 29.5t34 45.5q0 1 0.5 5t0.5 6q-9 33 -24 44t-36 11z" />
    <glyph glyph-name="f" unicode="f" horiz-adv-x="489" 
d="M621 500q17 -13 5 -29q-50 -71 -202 -188.5t-251 -164.5q54 -37 94 -83q41 -41 66 -96q46 -91 27 -163q-11 -38 -40.5 -59.5t-72.5 -21.5q-164 0 -218 295q-29 154 -29 440q0 228 55 380q66 181 190 181q22 0 46 -12q65 -33 77 -126q3 -20 2 -35v-1q0 -209 -232 -330
q-7 -127 -4 -234q2 -70 4 -105q85 34 245 156t209 191q13 17 29 5zM165 731q-17 -100 -24 -195q187 107 187 281q0 12 -2 32q-8 50 -38 81q-16 16 -35 16q-13 -1 -27 -20.5t-31 -70t-30 -124.5zM236 7q-38 44 -94 82q14 -169 47 -258.5t70 -89.5q39 0 52 34q23 55 -14 141
q-23 47 -60 90z" />
    <glyph glyph-name="g" unicode="g" horiz-adv-x="817" 
d="M969 518q19 -11 9 -28q-16 -30 -63 -71.5t-86 -70t-126 -90.5q-4 -3 -47.5 -33t-66.5 -47q0 -306 -39 -430q-56 -173 -227 -173q-70 0 -108 58q-28 42 -30.5 101t21.5 115q54 126 251 281q-3 115 -11 222q-16 -76 -36 -130q-12 -34 -27 -63q-26 -53 -62 -91
q-66 -69 -152 -69q-66 0 -117.5 74.5t-51.5 170.5q0 136 66 227q74 103 203 103q8 0 22 -2q20 -3 37 -14q21 -14 39 -36q34 -44 48 -111q10 62 15 130l-1 1q0 5 2 15q0 1 0.5 1t0.5 1q11 34 59 39q31 2 55.5 -11t28.5 -41q13 -100 14 -317l90 63q75 52 118 83.5t86.5 70.5
t57.5 64q11 18 28 8zM377 256q9 34 6 84v2v1q-1 12 -5 41q-8 43 -28.5 84t-46.5 56q-12 6 -18 7h-1q-20 3 -49 -21q-36 -31 -63.5 -97t-27.5 -154q0 -116 33 -169q19 -31 43 -31q31 0 71.5 43.5t58.5 86.5q1 3 5 7q13 28 21 55q0 1 0.5 2.5t0.5 2.5zM456 -21q2 64 2 98
q-167 -138 -213 -245q-18 -44 -18 -88v-2q0 -68 40 -104q22 -19 52 -16q59 8 94.5 98.5t42.5 258.5z" />
    <glyph glyph-name="h" unicode="h" horiz-adv-x="763" 
d="M880 504q22 0 22 -26q0 -31 -14 -123.5t-36 -183.5v-1q0 -1 -1.5 -6t-2.5 -8q-85 -371 -250 -371q-128 0 -175 154q-26 87 -35 293l-3 63t-3.5 57t-6.5 55t-10.5 40t-16 30t-21.5 9q-41 0 -82 -78q-1 0 -1 -2t-1 -2q-78 -151 -77 -364q2 -32 -35 -40q-12 -2 -22 -2
q-59 0 -68 32q-19 61 -30 196t-11 261q0 273 53 397q56 132 184 132q57 0 90 -44q22 -30 30 -74q13 -69 -15 -154q-15 -51 -48 -99q0 -1 -0.5 -1t-0.5 -1t-1 -2q-49 -71 -148 -145q-2 -88 4 -239q11 46 20 73q14 42 30 77q34 71 77 114q53 53 108 53q82 0 114 -121
q15 -60 26 -239q2 -41 3.5 -64t4.5 -60.5t7 -59t9.5 -50.5t13.5 -45.5t18.5 -33t25 -23.5t31.5 -7q30 0 59 32q65 71 115 272q0 1 0.5 2.5t0.5 2.5q8 30 11 46q18 80 28 155t10 97q-1 2 -1 5q0 9 6.5 15t14.5 6zM223 950q-65 -75 -77 -400q68 55 111 115l1 1q28 45 42 83
q2 5 5 15.5t4 15.5q18 72 4 125q-5 18 -11 28q-18 34 -47 34q-18 0 -32 -17z" />
    <glyph glyph-name="i" unicode="i" horiz-adv-x="391" 
d="M517 520q8 -2 13 -9t4 -15q-6 -33 -31.5 -114t-61.5 -159l-3.5 -7t-3.5 -8q-8 -19 -13 -27q-102 -194 -215 -194q-79 0 -129 56q-106 119 -65 480q2 16 2 17q2 25 23.5 40t50.5 13q31 -3 52.5 -26t18.5 -62q-15 -131 -11.5 -256.5t39.5 -165.5q19 -20 50 -20
q35 0 76 42.5t70 92.5q5 9 13 27l1 2q1 3 3.5 7.5t3.5 5.5q33 73 58.5 152t30.5 111q2 8 9 13t15 4zM90 632q-28 0 -47.5 22t-19.5 53t19.5 53t47.5 22t47.5 -22t19.5 -53t-19.5 -53t-47.5 -22z" />
    <glyph glyph-name="i" unicode="&#xef;" horiz-adv-x="391" 
d="M517 520q8 -2 13 -9t4 -15q-6 -33 -31.5 -114t-61.5 -159l-3.5 -7t-3.5 -8q-8 -19 -13 -27q-102 -194 -215 -194q-79 0 -129 56q-106 119 -65 480q2 16 2 17q2 25 23.5 40t50.5 13q31 -3 52.5 -26t18.5 -62q-15 -131 -11.5 -256.5t39.5 -165.5q19 -20 50 -20
q35 0 76 42.5t70 92.5q5 9 13 27l1 2q1 3 3.5 7.5t3.5 5.5q33 73 58.5 152t30.5 111q2 8 9 13t15 4zM90 632q-28 0 -47.5 22t-19.5 53t19.5 53t47.5 22t47.5 -22t19.5 -53t-19.5 -53t-47.5 -22z" />
    <glyph glyph-name="i" unicode="&#xee;" horiz-adv-x="391" 
d="M517 520q8 -2 13 -9t4 -15q-6 -33 -31.5 -114t-61.5 -159l-3.5 -7t-3.5 -8q-8 -19 -13 -27q-102 -194 -215 -194q-79 0 -129 56q-106 119 -65 480q2 16 2 17q2 25 23.5 40t50.5 13q31 -3 52.5 -26t18.5 -62q-15 -131 -11.5 -256.5t39.5 -165.5q19 -20 50 -20
q35 0 76 42.5t70 92.5q5 9 13 27l1 2q1 3 3.5 7.5t3.5 5.5q33 73 58.5 152t30.5 111q2 8 9 13t15 4zM90 632q-28 0 -47.5 22t-19.5 53t19.5 53t47.5 22t47.5 -22t19.5 -53t-19.5 -53t-47.5 -22z" />
    <glyph glyph-name="i" unicode="&#xed;" horiz-adv-x="391" 
d="M517 520q8 -2 13 -9t4 -15q-6 -33 -31.5 -114t-61.5 -159l-3.5 -7t-3.5 -8q-8 -19 -13 -27q-102 -194 -215 -194q-79 0 -129 56q-106 119 -65 480q2 16 2 17q2 25 23.5 40t50.5 13q31 -3 52.5 -26t18.5 -62q-15 -131 -11.5 -256.5t39.5 -165.5q19 -20 50 -20
q35 0 76 42.5t70 92.5q5 9 13 27l1 2q1 3 3.5 7.5t3.5 5.5q33 73 58.5 152t30.5 111q2 8 9 13t15 4zM90 632q-28 0 -47.5 22t-19.5 53t19.5 53t47.5 22t47.5 -22t19.5 -53t-19.5 -53t-47.5 -22z" />
    <glyph glyph-name="i" unicode="&#xec;" horiz-adv-x="391" 
d="M517 520q8 -2 13 -9t4 -15q-6 -33 -31.5 -114t-61.5 -159l-3.5 -7t-3.5 -8q-8 -19 -13 -27q-102 -194 -215 -194q-79 0 -129 56q-106 119 -65 480q2 16 2 17q2 25 23.5 40t50.5 13q31 -3 52.5 -26t18.5 -62q-15 -131 -11.5 -256.5t39.5 -165.5q19 -20 50 -20
q35 0 76 42.5t70 92.5q5 9 13 27l1 2q1 3 3.5 7.5t3.5 5.5q33 73 58.5 152t30.5 111q2 8 9 13t15 4zM90 632q-28 0 -47.5 22t-19.5 53t19.5 53t47.5 22t47.5 -22t19.5 -53t-19.5 -53t-47.5 -22z" />
    <glyph glyph-name="j" unicode="j" horiz-adv-x="444" 
d="M596 518q18 -11 8 -28q-16 -30 -62.5 -66.5t-90 -62.5t-127.5 -73q-51 -28 -105 -60q0 -255 -45 -391q-58 -173 -224 -173q-69 0 -108 59q-28 42 -30.5 100.5t21.5 114.5q53 124 251 255q-4 118 -22 292q-4 41 -6 57q-1 22 14.5 37t42.5 18q29 3 55 -10t31 -40
q17 -96 20 -271l84 48q62 35 91 52t73 44.5t67.5 49t33.5 40.5q11 18 28 8zM82 25q3 59 3 118q-169 -116 -214 -221q-18 -44 -18 -89v-1q0 -69 40 -105q22 -19 53 -16q121 15 136 314zM111 661q-28 0 -47.5 22.5t-19.5 53.5t19.5 53t47.5 22t47.5 -22t19.5 -53t-19.5 -53.5
t-47.5 -22.5z" />
    <glyph glyph-name="k" unicode="k" horiz-adv-x="776" 
d="M924 520q8 -2 13 -9t4 -15q-13 -77 -53 -185t-91 -203q-27 -50 -54 -91q0 -2 -2 -4q-15 -26 -47 -62q-81 -96 -153 -96q-38 0 -74 17.5t-61 40t-54 64t-44 68.5t-40 74q-39 74 -53 93q-16 23 -27 27q-25 -88 -25 -176l3 -21q4 -33 -35 -42q-12 -2 -22 -2q-59 0 -68 32
q-19 61 -30 196t-11 261q0 273 53 397q56 132 184 132q41 0 72 -26q18 -15 29 -34q6 -11 13 -32q21 -68 -2 -155q-18 -70 -60.5 -129.5t-144.5 -142.5q-3 -119 4 -248q9 32 26 73q14 33 39 74q37 60 84.5 105.5t98.5 68.5q88 41 135 0q43 -36 24 -88q-24 -65 -127 -123
q-76 -42 -149 -54q29 -21 58.5 -62.5t45.5 -73t43 -88.5q56 -119 83 -149q21 -24 41 -24q49 0 110 67q78 93 149.5 254t90.5 274q2 8 9 13t15 4zM224 950q-66 -76 -78 -398q75 65 111 116q43 71 56 139.5t-2 105.5q-6 18 -17 33q-6 8 -10 11q-13 10 -29 10q-17 0 -31 -17z
M235 342q79 1 171 52t110 102q9 24 -12 42q-11 10 -31 10q-24 0 -59 -16q-96 -45 -166 -158q-4 -6 -18 -32h5z" />
    <glyph glyph-name="l" unicode="l" horiz-adv-x="468" 
d="M600 517q8 -1 14 -7.5t5 -14.5q-16 -185 -80 -384q0 -3 -1 -5v-1q-1 -1 -1 -2t-1 -3v-2l-1 -2l-1 -1v-2q-4 -12 -12 -34q-44 -123 -95 -192q-62 -86 -131 -86q-92 0 -156 75q-53 60 -88 173q-52 168 -52 398q0 228 55 380q65 180 190 180q24 0 42 -9q69 -33 81 -129v-1
q3 -19 2 -34v-1q-1 -113 -74 -200.5t-159 -132.5q-2 -82 -1 -125q5 -220 49 -366q46 -152 121 -152q47 0 95.5 74t84.5 173v1q1 1 1 2q2 6 6.5 18t6.5 18q62 193 78 375q1 8 7.5 14t14.5 5zM168 765q-21 -103 -29 -236q46 28 85.5 64.5t71.5 96.5t32 124q0 13 -2 31
q-8 51 -38 81q-18 18 -35 17q-12 -1 -26 -17t-30 -58t-29 -103z" />
    <glyph glyph-name="m" unicode="m" horiz-adv-x="1196" 
d="M1336 521q9 0 15 -6.5t6 -15.5q-2 -82 -59 -280v0q0 -2 -2 -7t-2 -7q-1 -2 -3 -10.5t-4 -14.5q-12 -44 -20 -71t-24.5 -78t-33.5 -84.5t-39.5 -68.5t-50.5 -53t-58 -18q-118 0 -168 157q-27 86 -44 296q-3 41 -5 61.5t-6.5 57t-8.5 55.5t-10.5 41t-15 31.5t-19.5 9.5
q-35 0 -72 -43.5t-66 -110.5v-1q-65 -165 -79 -347v-1q-1 -24 -44 -26q-61 -2 -63 27q-2 20 -4 120q-1 54 -2 85.5t-4.5 85t-10.5 86.5t-17.5 68t-28 52t-40.5 17q-26 0 -49 -22.5t-42 -67.5t-28 -71t-23 -74q-1 -3 -7 -24q-39 -167 -39 -279v-1q0 -22 -33 -32
q-22 -6 -47 -6q-51 0 -63 25q-25 50 -22 307q1 174 10 287q2 25 23.5 40t51.5 13q32 -2 54 -25.5t18 -62.5q-14 -157 -8 -327q2 14 8 40.5t7 30.5q8 34 12 50q71 264 183 264q70 0 119 -51q77 -81 90 -284q1 5 4.5 16t5.5 17v1q11 39 25 73q2 4 4.5 11.5l3.5 10.5
q87 212 203 212q102 0 144 -137q23 -73 39 -267q4 -51 6.5 -75.5t8.5 -67.5t12 -65t16 -47.5t23.5 -36t30.5 -10.5q12 0 30.5 20.5t48.5 82t61 156.5q3 11 10 33.5t11 33.5q0 1 0.5 1t0.5 1t0.5 4t1.5 4v1q55 189 57 270q0 9 6.5 15t14.5 6z" />
    <glyph glyph-name="n" unicode="n" horiz-adv-x="782" 
d="M922 521q9 0 14.5 -6.5t5.5 -15.5q-2 -86 -58 -280v0q0 -2 -2 -7t-2 -7q-1 -2 -3 -10.5t-4 -14.5q-12 -44 -20 -71t-24.5 -78t-33.5 -84.5t-39.5 -68.5t-50.5 -53t-58 -18q-119 0 -169 157q-26 82 -43 296q-3 41 -5 61.5t-6.5 57t-8.5 55.5t-10.5 41t-15 31.5t-19.5 9.5
q-39 0 -77 -54t-65 -133v-1q-11 -34 -14 -44v-3q-39 -137 -50 -276q1 -5 1 -13v-3q0 -22 -33 -32q-22 -6 -47 -6q-50 0 -63 26q-25 50 -22 306q1 174 10 287q2 25 23.5 40t51.5 13q32 -2 54 -25.5t18 -62.5q-14 -173 -7 -341q15 69 23 98h1v1q5 20 10 35v1q0 1 1 2t1 2
q7 22 17 49q81 217 197 217q102 0 144 -137q23 -73 39 -267q16 -186 38 -244q21 -58 58 -58q12 0 30.5 20.5t49 82.5t61.5 156q4 11 11 33.5t10 33.5v2q0 1 1 3t1.5 3.5t0.5 2.5q55 189 57 270q0 8 6 14.5t14 6.5h1z" />
    <glyph glyph-name="n" unicode="&#xf1;" horiz-adv-x="782" 
d="M922 521q9 0 14.5 -6.5t5.5 -15.5q-2 -86 -58 -280v0q0 -2 -2 -7t-2 -7q-1 -2 -3 -10.5t-4 -14.5q-12 -44 -20 -71t-24.5 -78t-33.5 -84.5t-39.5 -68.5t-50.5 -53t-58 -18q-119 0 -169 157q-26 82 -43 296q-3 41 -5 61.5t-6.5 57t-8.5 55.5t-10.5 41t-15 31.5t-19.5 9.5
q-39 0 -77 -54t-65 -133v-1q-11 -34 -14 -44v-3q-39 -137 -50 -276q1 -5 1 -13v-3q0 -22 -33 -32q-22 -6 -47 -6q-50 0 -63 26q-25 50 -22 306q1 174 10 287q2 25 23.5 40t51.5 13q32 -2 54 -25.5t18 -62.5q-14 -173 -7 -341q15 69 23 98h1v1q5 20 10 35v1q0 1 1 2t1 2
q7 22 17 49q81 217 197 217q102 0 144 -137q23 -73 39 -267q16 -186 38 -244q21 -58 58 -58q12 0 30.5 20.5t49 82.5t61.5 156q4 11 11 33.5t10 33.5v2q0 1 1 3t1.5 3.5t0.5 2.5q55 189 57 270q0 8 6 14.5t14 6.5h1z" />
    <glyph glyph-name="o" unicode="o" horiz-adv-x="550" 
d="M699 518q19 -9 11 -27q-25 -58 -117.5 -113t-182.5 -73v-11q0 -111 -56 -197q0 -1 -4 -6t-7 -9q-62 -81 -142 -81q-66 0 -120 57q-41 43 -62.5 106t-18.5 131q5 116 73 204t153 88q47 0 83 -28t57 -65q10 -18 14 -32q5 -20 -14 -25q-8 -2 -16 2t-10 12t-9 20l-1 1
q-14 23 -32 38.5t-31 15.5q-39 0 -66.5 -25t-41 -66.5t-19 -74.5t-6.5 -67q-6 -132 55 -197q27 -28 59 -28q28 0 61 39q1 1 3 3.5t3 3.5t2 3t2 3q49 74 49 174v5q-32 -2 -51 5q-22 8 -31 27t-2 44q5 19 21 29.5t36 7.5q46 -6 63 -66q49 11 108 37q62 28 104.5 61t55.5 63
q9 19 27 11zM331 344q14 -5 31 -4q-10 29 -26 31h-2q-8 0 -10 -8q-4 -15 7 -19z" />
    <glyph glyph-name="o" unicode="&#xf8;" horiz-adv-x="550" 
d="M699 518q19 -9 11 -27q-25 -58 -117.5 -113t-182.5 -73v-11q0 -111 -56 -197q0 -1 -4 -6t-7 -9q-62 -81 -142 -81q-66 0 -120 57q-41 43 -62.5 106t-18.5 131q5 116 73 204t153 88q47 0 83 -28t57 -65q10 -18 14 -32q5 -20 -14 -25q-8 -2 -16 2t-10 12t-9 20l-1 1
q-14 23 -32 38.5t-31 15.5q-39 0 -66.5 -25t-41 -66.5t-19 -74.5t-6.5 -67q-6 -132 55 -197q27 -28 59 -28q28 0 61 39q1 1 3 3.5t3 3.5t2 3t2 3q49 74 49 174v5q-32 -2 -51 5q-22 8 -31 27t-2 44q5 19 21 29.5t36 7.5q46 -6 63 -66q49 11 108 37q62 28 104.5 61t55.5 63
q9 19 27 11zM331 344q14 -5 31 -4q-10 29 -26 31h-2q-8 0 -10 -8q-4 -15 7 -19z" />
    <glyph glyph-name="o" unicode="&#xf6;" horiz-adv-x="550" 
d="M699 518q19 -9 11 -27q-25 -58 -117.5 -113t-182.5 -73v-11q0 -111 -56 -197q0 -1 -4 -6t-7 -9q-62 -81 -142 -81q-66 0 -120 57q-41 43 -62.5 106t-18.5 131q5 116 73 204t153 88q47 0 83 -28t57 -65q10 -18 14 -32q5 -20 -14 -25q-8 -2 -16 2t-10 12t-9 20l-1 1
q-14 23 -32 38.5t-31 15.5q-39 0 -66.5 -25t-41 -66.5t-19 -74.5t-6.5 -67q-6 -132 55 -197q27 -28 59 -28q28 0 61 39q1 1 3 3.5t3 3.5t2 3t2 3q49 74 49 174v5q-32 -2 -51 5q-22 8 -31 27t-2 44q5 19 21 29.5t36 7.5q46 -6 63 -66q49 11 108 37q62 28 104.5 61t55.5 63
q9 19 27 11zM331 344q14 -5 31 -4q-10 29 -26 31h-2q-8 0 -10 -8q-4 -15 7 -19z" />
    <glyph glyph-name="o" unicode="&#xf5;" horiz-adv-x="550" 
d="M699 518q19 -9 11 -27q-25 -58 -117.5 -113t-182.5 -73v-11q0 -111 -56 -197q0 -1 -4 -6t-7 -9q-62 -81 -142 -81q-66 0 -120 57q-41 43 -62.5 106t-18.5 131q5 116 73 204t153 88q47 0 83 -28t57 -65q10 -18 14 -32q5 -20 -14 -25q-8 -2 -16 2t-10 12t-9 20l-1 1
q-14 23 -32 38.5t-31 15.5q-39 0 -66.5 -25t-41 -66.5t-19 -74.5t-6.5 -67q-6 -132 55 -197q27 -28 59 -28q28 0 61 39q1 1 3 3.5t3 3.5t2 3t2 3q49 74 49 174v5q-32 -2 -51 5q-22 8 -31 27t-2 44q5 19 21 29.5t36 7.5q46 -6 63 -66q49 11 108 37q62 28 104.5 61t55.5 63
q9 19 27 11zM331 344q14 -5 31 -4q-10 29 -26 31h-2q-8 0 -10 -8q-4 -15 7 -19z" />
    <glyph glyph-name="o" unicode="&#xf4;" horiz-adv-x="550" 
d="M699 518q19 -9 11 -27q-25 -58 -117.5 -113t-182.5 -73v-11q0 -111 -56 -197q0 -1 -4 -6t-7 -9q-62 -81 -142 -81q-66 0 -120 57q-41 43 -62.5 106t-18.5 131q5 116 73 204t153 88q47 0 83 -28t57 -65q10 -18 14 -32q5 -20 -14 -25q-8 -2 -16 2t-10 12t-9 20l-1 1
q-14 23 -32 38.5t-31 15.5q-39 0 -66.5 -25t-41 -66.5t-19 -74.5t-6.5 -67q-6 -132 55 -197q27 -28 59 -28q28 0 61 39q1 1 3 3.5t3 3.5t2 3t2 3q49 74 49 174v5q-32 -2 -51 5q-22 8 -31 27t-2 44q5 19 21 29.5t36 7.5q46 -6 63 -66q49 11 108 37q62 28 104.5 61t55.5 63
q9 19 27 11zM331 344q14 -5 31 -4q-10 29 -26 31h-2q-8 0 -10 -8q-4 -15 7 -19z" />
    <glyph glyph-name="o" unicode="&#xf3;" horiz-adv-x="550" 
d="M699 518q19 -9 11 -27q-25 -58 -117.5 -113t-182.5 -73v-11q0 -111 -56 -197q0 -1 -4 -6t-7 -9q-62 -81 -142 -81q-66 0 -120 57q-41 43 -62.5 106t-18.5 131q5 116 73 204t153 88q47 0 83 -28t57 -65q10 -18 14 -32q5 -20 -14 -25q-8 -2 -16 2t-10 12t-9 20l-1 1
q-14 23 -32 38.5t-31 15.5q-39 0 -66.5 -25t-41 -66.5t-19 -74.5t-6.5 -67q-6 -132 55 -197q27 -28 59 -28q28 0 61 39q1 1 3 3.5t3 3.5t2 3t2 3q49 74 49 174v5q-32 -2 -51 5q-22 8 -31 27t-2 44q5 19 21 29.5t36 7.5q46 -6 63 -66q49 11 108 37q62 28 104.5 61t55.5 63
q9 19 27 11zM331 344q14 -5 31 -4q-10 29 -26 31h-2q-8 0 -10 -8q-4 -15 7 -19z" />
    <glyph glyph-name="o" unicode="&#xf2;" horiz-adv-x="550" 
d="M699 518q19 -9 11 -27q-25 -58 -117.5 -113t-182.5 -73v-11q0 -111 -56 -197q0 -1 -4 -6t-7 -9q-62 -81 -142 -81q-66 0 -120 57q-41 43 -62.5 106t-18.5 131q5 116 73 204t153 88q47 0 83 -28t57 -65q10 -18 14 -32q5 -20 -14 -25q-8 -2 -16 2t-10 12t-9 20l-1 1
q-14 23 -32 38.5t-31 15.5q-39 0 -66.5 -25t-41 -66.5t-19 -74.5t-6.5 -67q-6 -132 55 -197q27 -28 59 -28q28 0 61 39q1 1 3 3.5t3 3.5t2 3t2 3q49 74 49 174v5q-32 -2 -51 5q-22 8 -31 27t-2 44q5 19 21 29.5t36 7.5q46 -6 63 -66q49 11 108 37q62 28 104.5 61t55.5 63
q9 19 27 11zM331 344q14 -5 31 -4q-10 29 -26 31h-2q-8 0 -10 -8q-4 -15 7 -19z" />
    <glyph glyph-name="p" unicode="p" horiz-adv-x="774" 
d="M923 509q20 -7 13 -26q-64 -184 -369 -263q-22 -98 -83 -164q-75 -81 -178 -81q-47 0 -75 39q-20 29 -22 68q-2 21 3 42q0 3 1 4q1 2 2 4.5t1 3.5q9 24 27 40.5t52 27.5t60.5 16.5t78.5 14.5q10 60 10 114q0 86 -23 137q-22 49 -60 49q-29 0 -62 -22.5t-62 -66.5v-1
q-60 -94 -79 -255v-1v-1l-1 -2v-2q-8 -66 -8 -137q2 -116 15 -322q1 -21 3 -38v-2q0 -17 -16 -30t-42 -17q-14 -2 -22 -2q-54 0 -65 37q-16 52 -19.5 259.5t-0.5 378t6 237.5q2 37 23.5 57t48.5 18q33 -2 57 -35.5t21 -92.5q0 -7 -2.5 -56.5t-3.5 -74.5q14 39 30 68
q10 19 19 34q35 56 82.5 88t95.5 32q87 0 141 -63q75 -85 54 -258q81 23 142 52q143 72 181 180q7 19 26 12zM313 23q32 0 63 47t49 121q-78 -12 -119 -26.5t-51 -42.5q-5 -15 -5 -30v-3q2 -28 16 -45q16 -21 47 -21z" />
    <glyph glyph-name="q" unicode="q" horiz-adv-x="804" 
d="M989 517q18 -11 7 -29q-30 -52 -173 -185.5t-247 -206.5q52 -28 77 -97q26 -73 12 -167q-13 -80 -50 -133q-42 -59 -99 -59h-5q-44 1 -73 46q-71 108 -40 471q1 16 5 48q-12 -26 -19 -38q-15 -34 -45 -69q-79 -99 -182 -99q-67 0 -114 79q-43 72 -43 166q0 124 67 221
q75 109 190 109q13 0 27 -3q18 -3 35 -14q1 0 1 -0.5t1 -0.5q23 -15 38 -34q31 -38 48 -102q6 -23 10 -50q3 10 5.5 21t5.5 23.5t5 19.5q14 84 23 106v1q11 27 42.5 37.5t59.5 1.5q26 -8 37 -30t4 -51q-35 -145 -58 -377q97 65 243 200.5t176 186.5q5 8 13 10t16 -2z
M372 237q17 84 -5 171q-4 16 -18 48q-23 47 -50 65q-8 5 -24 9h-1l-2 1q-21 3 -49 -22q-36 -31 -63.5 -96.5t-27.5 -153.5q0 -116 33 -169q19 -31 43 -31q43 0 100 66v1q20 27 38 59l1 2q2 4 9 17t10 20q1 2 3 6.5t3 6.5zM614 -15q-24 65 -78 83q0 -8 -2 -24.5t-2 -24.5
q-11 -138 -6 -229q3 -76 18 -102q29 15 50.5 57.5t29.5 93.5q13 84 -10 146z" />
    <glyph glyph-name="r" unicode="r" horiz-adv-x="634" 
d="M760 501q8 0 14 -7t6 -15q-1 -31 -25 -138.5t-59 -212.5q0 -2 -19 -54q-1 -1 -2 -4t-1 -4q-41 -121 -75 -176q-66 -107 -158 -107q-125 0 -167 129q-24 74 -28 248q-1 59 -3 92.5t-9.5 72.5t-21.5 58q-13 19 -58 47q-26 17 -39.5 27t-36 31t-38 50t-26.5 67
q-16 39 -14 83q2 52 34 81q20 19 43 17q35 -3 53 -29q36 -51 -4 -203q24 -8 55 -15q27 -6 42.5 -10.5t38.5 -15t41.5 -28t33.5 -42.5q17 -29 28 -81t14.5 -95.5t7.5 -118.5q2 -47 4 -71.5t5.5 -66t9 -64t14 -47.5t21 -36t28.5 -11q39 0 83 62t86 175q7 20 12 32v1q1 3 3 9.5
t3 9.5q34 103 58 208t25 132q0 9 6 14.5t15 5.5zM88 574q32 124 8 159q-7 9 -22 11q-4 0 -10 -4t-13.5 -18t-8.5 -36q-2 -21 5 -47q2 -4 3 -7q0 -2 2 -7t2 -7q7 -15 13 -24q7 -8 21 -20z" />
    <glyph glyph-name="s" unicode="s" horiz-adv-x="481" 
d="M633 517q18 -9 9 -28q-22 -43 -52 -81.5t-72 -74.5t-71.5 -58.5t-82.5 -59.5q-7 -5 -25.5 -17.5t-27.5 -19.5q61 -75 94.5 -133.5t33.5 -116.5q0 -63 -39 -116.5t-104 -80.5q-48 -19 -90 -19q-67 0 -116 40q-19 16 -29 33q-24 43 -17 105t44 124q33 57 95 114
q-45 51 -71.5 87t-50.5 92.5t-24 111.5q0 76 38 133q45 68 126 71h6h1l2 -1h2q12 -2 16 -5q18 -9 18 -30q0 -23 -26.5 -52t-62.5 -49q-7 -42 -1 -68q7 -32 29.5 -71t42.5 -65.5t57 -71.5q9 6 27.5 19t27.5 20q50 35 79 57t68.5 56t68.5 70t49 76q9 18 28 9zM197 578
q-9 -8 -18 -24q17 15 23 26q-1 -1 -2 -1t-1.5 -0.5t-1.5 -0.5zM303 -78q3 38 -20 77t-73 97q-55 -50 -86 -103q-31 -52 -38 -103t12 -84q3 -5 9 -13l4 -4t5 -4q17 -12 34 -12q13 0 27 1.5t36.5 10t39.5 23t31.5 44.5t18.5 70z" />
    <glyph glyph-name="t" unicode="t" horiz-adv-x="460" 
d="M596 519q8 -1 13.5 -8t4.5 -15q-26 -203 -83 -386v-1h-1q-10 -32 -15 -47q-92 -257 -206 -257q-78 0 -132 74q-109 147 -116 551q-3 152 11 306q-135 12 -216 11q-129 -2 -151 -40q-6 -10 -18 -10q-5 0 -10 3q-18 11 -8 28q34 57 186 60q92 1 221 -10q10 94 26 149
q8 28 31 40t51 4q31 -9 50.5 -36t10.5 -58q-11 -45 -18 -113q117 -10 190 -10q115 0 140 29q5 7 14 7t16 -5q15 -12 2 -29q-31 -37 -134 -42.5t-232 9.5q-15 -174 -12 -347q3 -188 24.5 -317t56.5 -176q16 -21 34 -21q78 0 165 260q55 173 82 379q1 8 8 13.5t15 4.5z" />
    <glyph glyph-name="u" unicode="u" horiz-adv-x="729" 
d="M855 520q8 -2 13 -9t4 -15q-6 -34 -31 -114.5t-61 -158.5q-1 -3 -3.5 -8l-3.5 -7q-5 -13 -14 -27q-102 -194 -215 -194q-79 0 -130 57q-57 63 -71 196q-25 -87 -55 -135q-58 -106 -135 -106q-56 0 -92 41q-90 102 -46 462q2 20 2 23q2 25 24 40t53 13q32 -2 54.5 -25.5
t18.5 -62.5q-1 -17 -3.5 -45.5t-3.5 -39.5q-7 -78 -10 -119.5t-4.5 -90t3.5 -74.5t15 -38q6 -8 20 -8q34 0 64 44q58 103 92 300q0 3 2 7q2 28 8 84q2 16 2 18q2 25 23.5 40t50.5 13q31 -3 52.5 -26t18.5 -62q-15 -129 -11.5 -250.5t38.5 -159.5q19 -20 51 -20q35 0 76 42.5
t70 92.5q10 18 14 27v2q1 3 3.5 7.5t3.5 5.5q33 73 58.5 152t30.5 111q2 8 9 13t15 4z" />
    <glyph glyph-name="u" unicode="&#xfc;" horiz-adv-x="729" 
d="M855 520q8 -2 13 -9t4 -15q-6 -34 -31 -114.5t-61 -158.5q-1 -3 -3.5 -8l-3.5 -7q-5 -13 -14 -27q-102 -194 -215 -194q-79 0 -130 57q-57 63 -71 196q-25 -87 -55 -135q-58 -106 -135 -106q-56 0 -92 41q-90 102 -46 462q2 20 2 23q2 25 24 40t53 13q32 -2 54.5 -25.5
t18.5 -62.5q-1 -17 -3.5 -45.5t-3.5 -39.5q-7 -78 -10 -119.5t-4.5 -90t3.5 -74.5t15 -38q6 -8 20 -8q34 0 64 44q58 103 92 300q0 3 2 7q2 28 8 84q2 16 2 18q2 25 23.5 40t50.5 13q31 -3 52.5 -26t18.5 -62q-15 -129 -11.5 -250.5t38.5 -159.5q19 -20 51 -20q35 0 76 42.5
t70 92.5q10 18 14 27v2q1 3 3.5 7.5t3.5 5.5q33 73 58.5 152t30.5 111q2 8 9 13t15 4z" />
    <glyph glyph-name="u" unicode="&#xfb;" horiz-adv-x="729" 
d="M855 520q8 -2 13 -9t4 -15q-6 -34 -31 -114.5t-61 -158.5q-1 -3 -3.5 -8l-3.5 -7q-5 -13 -14 -27q-102 -194 -215 -194q-79 0 -130 57q-57 63 -71 196q-25 -87 -55 -135q-58 -106 -135 -106q-56 0 -92 41q-90 102 -46 462q2 20 2 23q2 25 24 40t53 13q32 -2 54.5 -25.5
t18.5 -62.5q-1 -17 -3.5 -45.5t-3.5 -39.5q-7 -78 -10 -119.5t-4.5 -90t3.5 -74.5t15 -38q6 -8 20 -8q34 0 64 44q58 103 92 300q0 3 2 7q2 28 8 84q2 16 2 18q2 25 23.5 40t50.5 13q31 -3 52.5 -26t18.5 -62q-15 -129 -11.5 -250.5t38.5 -159.5q19 -20 51 -20q35 0 76 42.5
t70 92.5q10 18 14 27v2q1 3 3.5 7.5t3.5 5.5q33 73 58.5 152t30.5 111q2 8 9 13t15 4z" />
    <glyph glyph-name="u" unicode="&#xfa;" horiz-adv-x="729" 
d="M855 520q8 -2 13 -9t4 -15q-6 -34 -31 -114.5t-61 -158.5q-1 -3 -3.5 -8l-3.5 -7q-5 -13 -14 -27q-102 -194 -215 -194q-79 0 -130 57q-57 63 -71 196q-25 -87 -55 -135q-58 -106 -135 -106q-56 0 -92 41q-90 102 -46 462q2 20 2 23q2 25 24 40t53 13q32 -2 54.5 -25.5
t18.5 -62.5q-1 -17 -3.5 -45.5t-3.5 -39.5q-7 -78 -10 -119.5t-4.5 -90t3.5 -74.5t15 -38q6 -8 20 -8q34 0 64 44q58 103 92 300q0 3 2 7q2 28 8 84q2 16 2 18q2 25 23.5 40t50.5 13q31 -3 52.5 -26t18.5 -62q-15 -129 -11.5 -250.5t38.5 -159.5q19 -20 51 -20q35 0 76 42.5
t70 92.5q10 18 14 27v2q1 3 3.5 7.5t3.5 5.5q33 73 58.5 152t30.5 111q2 8 9 13t15 4z" />
    <glyph glyph-name="u" unicode="&#xf9;" horiz-adv-x="729" 
d="M855 520q8 -2 13 -9t4 -15q-6 -34 -31 -114.5t-61 -158.5q-1 -3 -3.5 -8l-3.5 -7q-5 -13 -14 -27q-102 -194 -215 -194q-79 0 -130 57q-57 63 -71 196q-25 -87 -55 -135q-58 -106 -135 -106q-56 0 -92 41q-90 102 -46 462q2 20 2 23q2 25 24 40t53 13q32 -2 54.5 -25.5
t18.5 -62.5q-1 -17 -3.5 -45.5t-3.5 -39.5q-7 -78 -10 -119.5t-4.5 -90t3.5 -74.5t15 -38q6 -8 20 -8q34 0 64 44q58 103 92 300q0 3 2 7q2 28 8 84q2 16 2 18q2 25 23.5 40t50.5 13q31 -3 52.5 -26t18.5 -62q-15 -129 -11.5 -250.5t38.5 -159.5q19 -20 51 -20q35 0 76 42.5
t70 92.5q10 18 14 27v2q1 3 3.5 7.5t3.5 5.5q33 73 58.5 152t30.5 111q2 8 9 13t15 4z" />
    <glyph glyph-name="v" unicode="v" horiz-adv-x="688" 
d="M874 509q9 -19 -9 -28q-76 -39 -192 -64t-213 -18q-7 -58 -24 -118q-16 -62 -39 -112q-19 -44 -41 -80.5t-60 -70t-77 -33.5q-59 0 -104 49q-76 84 -103 296q-19 147 -11 233q2 25 23 40t50 13q31 -2 54.5 -25t22.5 -62q-4 -152 14.5 -283t58.5 -173q13 -13 26 -13
q25 0 56 38t57 96q1 3 3.5 9t3.5 9q18 46 26 77v1v1l1 1q15 55 22 112q-51 9 -85 30q-60 37 -60 104t48 87q24 11 51.5 5t48.5 -25q47 -43 42 -164q90 -6 201 17.5t181 59.5q19 9 28 -9zM422 446q5 97 -29 128q-18 16 -38 16q-9 0 -16 -3q-23 -10 -23 -49q0 -45 40 -69
q25 -15 66 -23z" />
    <glyph glyph-name="w" unicode="w" horiz-adv-x="1089" 
d="M1274 510q10 -17 -7 -28q-72 -42 -171.5 -68.5t-189.5 -26.5q-27 0 -51 3q-9 -57 -27 -112q-7 -21 -11 -32q-17 -49 -41 -99q-82 -162 -173 -162q-68 0 -116 54q-66 75 -85 244q-1 -5 -4 -15.5t-4 -15.5q-65 -267 -184 -267q-68 0 -116 54q-75 85 -90 296q-10 143 2 229
q4 25 28 39.5t56 11.5q34 -3 56.5 -26t19.5 -61q-12 -166 2.5 -291.5t49.5 -163.5q13 -13 25 -13q65 0 121 245q19 89 31 207q1 21 4 52q4 25 28 39.5t56 11.5q34 -3 56.5 -26t19.5 -61q-12 -166 2.5 -291.5t49.5 -163.5q13 -13 25 -13q30 0 71 59.5t69 134.5l9 27
q1 2 2 5.5t1 5.5l1 1q1 1 1 2q16 53 24 102q-36 8 -64 23q-66 38 -66 111q0 82 58 102q25 8 50.5 -0.5t42.5 -30.5q39 -51 25 -171q87 -9 198 16.5t187 70.5q8 4 16 2t13 -10zM819 438q10 104 -17 139q-15 18 -36 18q-3 0 -11 -2q-29 -9 -29 -62q0 -49 45 -75q21 -12 48 -18
z" />
    <glyph glyph-name="x" unicode="x" 
d="M830 519q8 -2 12 -10t2 -16q-42 -152 -117 -315q-139 -305 -272 -305q-136 0 -243 256q-65 -120 -71 -130q-7 -10 -18 -10q-7 0 -11 3q-18 10 -7 28q33 59 87 159q-39 104 -63.5 216.5t-26.5 181.5q-1 18 21 32t44 18q43 7 55 -25q3 -7 9 -41q23 -122 49 -219
q127 235 143 260q11 18 29 7t7 -29q-24 -38 -162 -295q16 -52 25 -77q85 -236 186 -236q24 0 47 16t48 53.5t41 67t46 88.5q29 64 57 138t41 115t16 54q2 8 10 12.5t16 2.5z" />
    <glyph glyph-name="y" unicode="y" horiz-adv-x="770" 
d="M928 510q11 -17 -7 -28q-57 -34 -172 -119.5t-225 -182.5q2 -249 -12 -363q-11 -95 -48 -157q-64 -106 -192 -106q-26 0 -46 7q-24 6 -40 20q-21 19 -33 45q-16 33 -16 79v2q0 49 17 96q43 121 236 310q0 93 -8 229q-11 -45 -24 -86v-1q-2 -4 -4.5 -12t-3.5 -12
q-79 -232 -184 -232q-56 0 -94 42q-98 107 -63 475q0 2 0.5 5t0.5 4q2 25 24 40t53 13q32 -2 54.5 -25.5t18.5 -62.5q-15 -139 -14.5 -257.5t27.5 -147.5q9 -10 24 -10q57 0 121 193q23 74 37.5 148.5t14.5 107.5q-1 22 15.5 37t43.5 17q29 2 53 -11t28 -40q8 -71 13 -293
q108 94 215 173.5t161 110.5q8 4 16 2t13 -10zM388 -24q2 52 2 78q-160 -161 -196 -265q-17 -49 -16 -90q2 -31 15 -59q1 -2 3 -5.5t3 -4.5q15 -22 39 -29q13 -3 29 0q51 8 82.5 105t38.5 270z" />
    <glyph glyph-name="y" unicode="&#xff;" horiz-adv-x="770" 
d="M928 510q11 -17 -7 -28q-57 -34 -172 -119.5t-225 -182.5q2 -249 -12 -363q-11 -95 -48 -157q-64 -106 -192 -106q-26 0 -46 7q-24 6 -40 20q-21 19 -33 45q-16 33 -16 79v2q0 49 17 96q43 121 236 310q0 93 -8 229q-11 -45 -24 -86v-1q-2 -4 -4.5 -12t-3.5 -12
q-79 -232 -184 -232q-56 0 -94 42q-98 107 -63 475q0 2 0.5 5t0.5 4q2 25 24 40t53 13q32 -2 54.5 -25.5t18.5 -62.5q-15 -139 -14.5 -257.5t27.5 -147.5q9 -10 24 -10q57 0 121 193q23 74 37.5 148.5t14.5 107.5q-1 22 15.5 37t43.5 17q29 2 53 -11t28 -40q8 -71 13 -293
q108 94 215 173.5t161 110.5q8 4 16 2t13 -10zM388 -24q2 52 2 78q-160 -161 -196 -265q-17 -49 -16 -90q2 -31 15 -59q1 -2 3 -5.5t3 -4.5q15 -22 39 -29q13 -3 29 0q51 8 82.5 105t38.5 270z" />
    <glyph glyph-name="y" unicode="&#xfd;" horiz-adv-x="770" 
d="M928 510q11 -17 -7 -28q-57 -34 -172 -119.5t-225 -182.5q2 -249 -12 -363q-11 -95 -48 -157q-64 -106 -192 -106q-26 0 -46 7q-24 6 -40 20q-21 19 -33 45q-16 33 -16 79v2q0 49 17 96q43 121 236 310q0 93 -8 229q-11 -45 -24 -86v-1q-2 -4 -4.5 -12t-3.5 -12
q-79 -232 -184 -232q-56 0 -94 42q-98 107 -63 475q0 2 0.5 5t0.5 4q2 25 24 40t53 13q32 -2 54.5 -25.5t18.5 -62.5q-15 -139 -14.5 -257.5t27.5 -147.5q9 -10 24 -10q57 0 121 193q23 74 37.5 148.5t14.5 107.5q-1 22 15.5 37t43.5 17q29 2 53 -11t28 -40q8 -71 13 -293
q108 94 215 173.5t161 110.5q8 4 16 2t13 -10zM388 -24q2 52 2 78q-160 -161 -196 -265q-17 -49 -16 -90q2 -31 15 -59q1 -2 3 -5.5t3 -4.5q15 -22 39 -29q13 -3 29 0q51 8 82.5 105t38.5 270z" />
    <glyph glyph-name="z" unicode="z" horiz-adv-x="632" 
d="M829 510q11 -17 -7 -28q-58 -34 -165 -129t-227 -219q-13 -13 -36.5 -39t-34.5 -37q44 -32 72 -71q64 -88 71 -183t-44 -175q-31 -47 -79.5 -71t-102.5 -24q-52 0 -95 21q-58 28 -86 86t0 140q6 19 23 47q18 31 38 56q44 60 135 161q-18 14 -35 26q-3 2 -9 4
q-18 9 -26 13.5t-13 11.5t-5 16q0 14 17 21q123 59 123 193q0 61 -29 116t-72 76q-53 26 -106 -16q-1 -2 -3.5 -5t-4.5 -4q-12 -15 -29 -2q-16 12 -3 29q2 2 5 6t5 6q94 103 202 64q63 -23 104.5 -88t41.5 -142q0 -84 -48.5 -150.5t-137.5 -107.5q1 -1 4 -2.5t4 -2.5h1
q19 -9 47 -26q44 48 76 82q121 126 230 222.5t170 132.5q8 4 16 2t13 -10zM377 -237q20 55 6 126.5t-63 126.5q-74 -82 -128 -155l-1 -1q-23 -31 -34 -49q-46 -80 -25 -137q15 -38 48 -43q76 -12 127 29t70 103z" />
    <glyph glyph-name="braceleft" unicode="{" horiz-adv-x="471" 
d="M330 -228q9 0 15 -6t6 -15t-6 -15t-15 -6q-5 0 -12.5 0.5t-11.5 0.5l-2 -1h-3q-136 0 -173 61q-12 19 -13.5 45t2.5 48.5t20 60t27 60.5t35 69q31 59 49 96t34 87t16 87q0 57 -22 125.5t-41.5 106t-58.5 106.5q-20 35 -30.5 54t-23 46.5t-16.5 45t-3 37.5t10 35
q33 58 188 58h4h25q9 0 15 -6t6 -15q0 -8 -6 -14.5t-15 -6.5h-29q-105 -5 -123 -37q-5 -8 -5.5 -18t4.5 -25.5t9 -27t16 -33.5t18.5 -33.5t21.5 -38.5q39 -68 60.5 -110.5t44 -114t22.5 -134.5q0 -42 -17 -96t-34.5 -91t-51.5 -102q-17 -33 -25 -49t-22 -45t-19.5 -46
t-11 -38.5t-4 -37t8.5 -26.5q21 -37 108 -41h29z" />
    <glyph glyph-name="verticalbar" unicode="|" horiz-adv-x="245" 
d="M123 1013q9 0 15 -6.5t6 -14.5v-1275q0 -8 -6 -14.5t-15 -6.5t-15 6.5t-6 14.5v1275q0 8 6 14.5t15 6.5z" />
    <glyph glyph-name="braceright" unicode="}" horiz-adv-x="477" 
d="M179 344q0 -37 16 -87t34 -87t49 -96q25 -48 35.5 -69t27 -59.5t20 -60.5t2.5 -48.5t-13 -45.5q-37 -61 -174 -61q-3 0 -5 1q-9 -1 -30 -1q-20 0 -20 21t20 21q23 0 33 1q84 6 105 40q7 11 8.5 26.5t-4 37t-11 38.5t-19.5 46t-22 45t-25 49q-35 67 -52 102t-34.5 90
t-17.5 97q0 48 10.5 96t33.5 99.5t38.5 81.5t45.5 82q15 27 21.5 38.5t18.5 33.5t16 33.5t9 27t4.5 25.5t-5.5 18q-19 32 -118 37h-35q-9 0 -14.5 6t-5.5 15q0 21 20 21q6 0 16 -0.5t15 -0.5l2 1h2q155 0 188 -58q9 -15 10 -35t-3 -37.5t-16.5 -45t-23 -46.5t-30.5 -54
q-39 -69 -58.5 -106.5t-41.5 -106t-22 -125.5z" />
    <glyph glyph-name="asciitilde" unicode="~" horiz-adv-x="837" 
d="M733 231q1 -1 1 -3t1 -3q7 -19 -13 -26q-2 -1 -7 -1q-15 0 -20 14q-13 38 -81 38q-49 0 -174 -25q-74 -15 -116 -21.5t-95.5 -4t-82.5 23.5q-35 24 -43 73q-1 6 2 13q-1 2 -1.5 5.5t-0.5 5.5q-1 8 4 15t13 9q8 1 15 -4.5t9 -13.5q4 -29 26 -45q23 -16 71.5 -16.5t85 5.5
t105.5 20q44 9 68 13t62 9t61 3t48.5 -7.5t40.5 -20.5t23 -38q3 -9 -2 -18z" />
    <glyph glyph-name="nonbreakingspace" unicode="&#xa0;" horiz-adv-x="565" 
 />
    <glyph glyph-name="copyright" unicode="&#xa9;" horiz-adv-x="645" 
d="M460 449q18 -9 9 -28q-6 -12 -10 -19q-15 -30 -24 -45.5t-26 -39t-36.5 -35t-41.5 -11.5q-62 0 -96 57q-29 47 -29 121q0 79 36 144t79 65q33 0 50 -42t19 -98q0 -8 -6 -15t-14 -7t-14.5 6.5t-6.5 14.5q-1 28 -6.5 52t-11.5 35t-10 12q-20 0 -46.5 -51t-26.5 -116
q0 -61 23 -99q22 -37 60 -37q37 0 91 108q2 3 3.5 6.5t3.5 7.5l3 6q4 7 12.5 9.5t15.5 -1.5zM322 744q91 0 155.5 -82.5t64.5 -199.5t-64.5 -200t-155.5 -83t-155.5 83t-64.5 200t64.5 199.5t155.5 82.5zM322 221q74 0 126.5 70.5t52.5 170.5q0 99 -52.5 169.5t-126.5 70.5
t-126 -70t-52 -170t52 -170.5t126 -70.5z" />
    <glyph glyph-name="softhyphen" unicode="&#xad;" horiz-adv-x="0" 
 />
    <glyph glyph-name="registered" unicode="&#xae;" horiz-adv-x="645" 
d="M322 744q91 0 155.5 -82.5t64.5 -199.5t-64.5 -200t-155.5 -83t-155.5 83t-64.5 200t64.5 199.5t155.5 82.5zM322 221q74 0 126.5 70.5t52.5 170.5q0 99 -52.5 169.5t-126.5 70.5t-126 -70t-52 -170t52 -170.5t126 -70.5zM420 547q0 -96 -67 -133q-1 -1 -3.5 -2.5
t-3.5 -1.5q6 -20 18.5 -43t22.5 -32q8 3 16 0q8 -4 11.5 -12t-0.5 -16q-8 -17 -25 -17h-6q-22 4 -45 40t-33 72q-16 0 -28 4v-90q0 -9 -6 -15t-15 -6t-15 6t-6 15v123v166q0 9 6 15t15 6q3 0 9 -2q7 7 16 13q36 25 73 11q27 -10 46.5 -37.5t19.5 -63.5zM333 450q45 24 45 97
q0 23 -12.5 39.5t-26.5 22.5q-18 7 -35 -6q-27 -19 -27 -52v-100q29 -15 56 -1z" />
    <glyph glyph-name="plusminus" unicode="&#xb1;" horiz-adv-x="706" 
d="M584 45q9 0 15 -6.5t6 -14.5q0 -20 -21 -20h-457q-21 0 -21 20q0 8 6 14.5t15 6.5h209v241h-213q-8 0 -14.5 6t-6.5 15q0 8 5 13q-5 5 -5 12q0 8 6.5 14.5t14.5 6.5h213v279q0 8 6 14.5t15 6.5q8 0 14.5 -6.5t6.5 -14.5v-279h202q9 0 15 -6.5t6 -14.5t-4 -12q4 -4 4 -13
t-6 -15t-15 -6h-202v-241h206z" />
    <glyph glyph-name="acute" unicode="&#xb4;" horiz-adv-x="446" 
d="M341 972q8 -18 -10 -27q-15 -7 -25 6q-24 -7 -74 -57q-54 -54 -92 -106q-6 -9 -17 -9q-7 0 -12 4q-17 13 -5 29q42 58 98 113q74 73 109 68q20 -2 28 -21z" />
    <glyph glyph-name="multiply" unicode="&#xd7;" horiz-adv-x="653" 
d="M546 44q13 -17 -3 -30q-7 -5 -13 -5q-10 0 -16 8q-31 38 -181 254q-144 -222 -171 -254q-6 -8 -16 -8q-6 0 -13 5q-16 13 -3 30q27 33 177 264q-166 241 -202 301q-11 17 7 28t29 -7q35 -58 191 -284q120 186 180 284q11 18 29 7q17 -11 7 -28q-56 -90 -191 -300
q158 -228 189 -265z" />
    <glyph glyph-name="divide" unicode="&#xf7;" 
d="M580 353q9 0 15 -6.5t6 -14.5q0 -9 -6 -15t-15 -6h-457q-8 0 -14.5 6t-6.5 15q0 8 6.5 14.5t14.5 6.5h457zM353 532q-36 0 -51 28q-11 19 -11 59q0 37 17 60t45 23q9 0 17.5 -3t19.5 -10.5t17.5 -26t6.5 -45.5q0 -41 -18 -63t-43 -22zM353 87q9 0 17.5 -3t19.5 -10.5
t17.5 -26t6.5 -45.5q0 -41 -18 -63t-43 -22q-35 0 -51 29q-11 19 -11 58q0 37 17 60t45 23z" />
    <glyph glyph-name="quoteleft" unicode="&#x2018;" horiz-adv-x="327" 
d="M214 856q11 -19 11 -58q0 -38 -16.5 -60.5t-44.5 -22.5q-15 0 -27 6q-18 4 -27 33q-7 19 -7 43q0 4 -0.5 12t-0.5 11q0 60 16 106q23 64 69 64q9 0 15 -6t6 -15q0 -8 -6 -14.5t-15 -6.5q-12 0 -23 -22q-10 -19 -14 -43q10 2 14 2q34 0 50 -29z" />
    <glyph glyph-name="quoteright" unicode="&#x2019;" horiz-adv-x="327" 
d="M225 908v-23q0 -60 -16 -106q-23 -64 -68 -64q-21 0 -21 20q0 8 6 14.5t15 6.5q12 0 23 22q9 18 14 44q-10 -2 -14 -2q-36 0 -51 28q-11 19 -11 59q0 37 17 60t45 23q14 0 26 -6q20 -4 28 -33v-1q7 -19 7 -42z" />
    <glyph glyph-name="quotedblleft" unicode="&#x201c;" horiz-adv-x="475" 
d="M361 856q11 -19 11 -58q0 -38 -16.5 -60.5t-44.5 -22.5q-15 0 -27 6q-18 4 -27 33q-7 19 -7 43q0 4 -0.5 12t-0.5 11q0 60 16 106q23 64 68 64q8 0 14.5 -6t6.5 -15q0 -8 -6.5 -14.5t-14.5 -6.5q-12 0 -23 -22q-8 -16 -13 -43q10 2 14 2q34 0 50 -29zM164 885
q34 0 50 -29q11 -19 11 -58q0 -38 -16.5 -60.5t-44.5 -22.5q-15 0 -27 6q-18 4 -27 33q-7 19 -7 43q0 4 -0.5 12t-0.5 11q0 60 16 106q23 64 69 64q9 0 15 -6t6 -15q0 -8 -6 -14.5t-15 -6.5q-12 0 -23 -22q-10 -19 -14 -43q10 2 14 2z" />
    <glyph glyph-name="quotedblright" unicode="&#x201d;" horiz-adv-x="475" 
d="M371 908q0 -4 0.5 -12t0.5 -11q0 -60 -16 -106q-23 -64 -68 -64q-9 0 -15 5.5t-6 14.5q0 8 6.5 14.5t14.5 6.5q12 0 23 22q8 15 13 44q-10 -2 -14 -2q-35 0 -50 28q-11 19 -11 59q0 38 16.5 60.5t44.5 22.5q15 0 27 -6q18 -4 27 -33v-1q7 -19 7 -42zM218 950q7 -19 7 -42
v-23q0 -60 -16 -106q-23 -64 -68 -64q-21 0 -21 20q0 8 6 14.5t15 6.5q12 0 23 22q9 18 14 44q-10 -2 -14 -2q-36 0 -51 28q-11 19 -11 59q0 37 17 60t45 23q14 0 26 -6q20 -4 28 -33v-1z" />
    <glyph glyph-name="quotedblbase" unicode="&#x201e;" horiz-adv-x="475" 
d="M371 -186q0 -4 0.5 -12t0.5 -11q0 -61 -16 -107q-23 -64 -68 -64q-9 0 -15 6t-6 15t6 15t15 6q12 0 23 22q8 16 13 43q-10 -2 -14 -2q-34 0 -50 29q-11 19 -11 58q0 38 16.5 61t44.5 23q13 0 27 -7q19 -4 28 -34q6 -17 6 -41zM218 -145q7 -19 7 -42v-22q0 -61 -16 -107
q-23 -64 -68 -64q-8 0 -14.5 6t-6.5 15t6.5 15t14.5 6q12 0 23 22q10 19 14 43q-10 -2 -14 -2q-35 0 -51 29q-11 19 -11 58q0 38 17 61t45 23q12 0 26 -7q19 -4 28 -34z" />
    <glyph glyph-name="perthousand" unicode="&#x2030;" horiz-adv-x="1241" 
d="M1099 81q39 -60 39 -150q0 -88 -39 -150q-15 -23 -35 -39q-33 -28 -71 -28q-63 0 -105 67q-39 62 -39 150t39 150q42 67 105 67q26 0 48 -12q35 -17 58 -55zM1044 -221q53 53 53 152q0 55 -20 101t-50 64q-18 -7 -35 -41q-26 -52 -26 -124q0 -64 25 -105t53 -47zM694 136
q35 -17 58 -55q40 -64 40 -150t-40 -150q-15 -25 -34 -39q-33 -28 -71 -28q-63 0 -105 67q-40 64 -40 150t40 150q42 67 105 67q25 0 47 -12zM697 -221q53 53 53 152q0 56 -19.5 101.5t-49.5 63.5q-18 -7 -35 -41q-27 -54 -27 -124q0 -64 25 -105t53 -47zM656 1012
q8 -1 13 -8.5t3 -15.5q-15 -68 -251 -901q-92 -323 -109 -386q-3 -15 -20 -15h-6q-8 2 -12.5 10t-2.5 16q10 37 109 386q236 830 251 898q1 8 9 13t16 3zM352 557q-17 -27 -34 -40q-32 -27 -71 -27q-63 0 -105 67q-40 64 -40 149q0 86 40 150q42 67 105 67q25 0 48 -12
q33 -17 57 -55q40 -64 40 -150q0 -85 -40 -149zM219 706q0 -63 25.5 -104t53.5 -47q52 52 52 151q0 56 -19.5 101.5t-49.5 63.5q-18 -7 -35 -40q-27 -54 -27 -125z" />
    <glyph glyph-name="trademark" unicode="&#x2122;" horiz-adv-x="905" 
d="M757 924q31 -31 39.5 -123.5t7.5 -258.5q0 -7 -0.5 -20t-0.5 -19q0 -21 -20 -21q-9 0 -15 6t-6 15v39q0 160 -4 215q-8 114 -31 137l-3 2q-14 0 -30 -26.5t-29.5 -90.5t-13.5 -151q1 -20 1 -60q0 -9 -6 -15t-15 -6t-15 6t-6 15q0 112 -12 198t-28 106q-24 -8 -43 -98
q-22 -102 -22 -249q0 -1 -0.5 -2.5t-0.5 -2.5q0 -3 0.5 -6.5t0.5 -4.5q1 -8 -5.5 -14.5t-14.5 -7.5h-1q-19 0 -21 19q-1 18 -9 342q-2 42 -2 57h-133v-404q0 -20 -21 -20t-21 20v404h-154q-9 0 -15 6t-6 15q0 20 21 20h349h2h2q6 -1 12 -7l1 -1l1 -2h1v-1l1 -1v-1v-1l1 -1
v-1v-1v-1v-1v-1q0 -13 2 -77q0 -5 0.5 -14t0.5 -13q27 92 76 92q40 0 59 -92q32 116 93 116q19 0 33 -14z" />
    <glyph glyph-name="u.alt1" unicode="&#xf02b;" horiz-adv-x="2179" 
d="M2305 517q8 -2 13 -9t4 -15q-6 -34 -31 -114.5t-61 -158.5l-3.5 -7t-3.5 -8q-6 -13 -14 -27q-102 -194 -215 -194q-79 0 -130 57q-57 63 -71 196q-25 -87 -55 -135q-58 -106 -135 -106q-55 0 -91 41q-91 103 -47 462q0 1 1 3v2q-55 -31 -93 -54q-73 -44 -114 -67.5
t-122.5 -66t-141.5 -65t-137 -41t-142 -18.5q-51 0 -89 13.5t-59.5 36.5t-32.5 43.5t-16 43.5q-10 42 -2 92q-124 0 -250.5 45.5t-202.5 141.5q-64 81 -64 191q0 118 78 185q36 31 92 44.5t108.5 11.5t102.5 -14q129 -31 152 -90q7 -20 -11 -27q-21 -8 -28 11
q-7 16 -39.5 34.5t-83.5 31.5q-58 18 -139.5 12t-125.5 -45q-65 -63 -64.5 -156.5t55.5 -163.5q69 -87 190.5 -129.5t239.5 -40.5q27 87 83 114q55 27 98 -27q23 -29 12 -60q-20 -49 -124 -64q-2 0 -36 -3q-8 -47 0 -85q24 -104 156 -104q62 0 135.5 18t132.5 40.5t137 62.5
t120 64.5t111 65.5q118 71 150 83q17 9 42 7q32 -2 54.5 -25.5t18.5 -62.5q-1 -17 -3.5 -45.5t-3.5 -39.5q-7 -78 -10 -119.5t-4.5 -90t3.5 -74.5t15 -38q6 -8 20 -8q34 0 64 44q58 103 92 300q0 3 2 7q2 21 5.5 50.5t3.5 33.5q1 8 1 18q2 25 23.5 40t50.5 13
q31 -3 52.5 -26t18.5 -62q-15 -129 -11.5 -250.5t38.5 -159.5q19 -20 52 -20q34 0 75 42.5t70 92.5q10 18 14 27l1 2q2 5 6 13q33 73 58.5 152t30.5 111q2 8 9 13t15 4zM628 540q-32 -14 -56 -75q3 1 9.5 2t9.5 1q81 12 91 37q3 6 -7 19q-15 19 -32 19q-9 0 -15 -3z" />
    <glyph glyph-name="m.alt3" unicode="&#xf04c;" horiz-adv-x="1796" 
d="M1692 543q9 -190 -75 -376q-26 -55 -38 -74q-65 -112 -149 -181q-16 -14 -50 -36q-85 -57 -163 -64h-1q-24 -4 -55 -4q-138 0 -200 163q-33 88 -59 307q-4 37 -7 57.5t-7.5 53t-9.5 51.5t-12 38.5t-15.5 28.5t-18.5 9q-36 0 -73 -44t-66 -112q-63 -160 -78 -345v-1
q-1 -25 -44 -27q-59 -2 -62 28q-3 34 -5 120q-1 54 -2 85.5t-4.5 85t-10.5 86.5t-17.5 68t-28 52t-40.5 17q-26 0 -49 -22.5t-42 -67.5t-28 -71t-23 -74q-2 -5 -4.5 -14.5t-2.5 -10.5q-39 -167 -39 -279v-1q0 -22 -33 -32q-22 -6 -47 -6q-50 0 -63 26q-25 50 -22 307
q1 173 10 286q2 25 23.5 40t51.5 13q32 -2 54 -25.5t18 -62.5q-13 -168 -8 -327q2 14 8 40.5t7 30.5q8 34 12 50q71 264 183 264q71 0 119 -50q77 -81 90 -285q1 5 4.5 17t5.5 17v1q11 40 25 72q6 16 9 23q87 211 202 211q98 0 142 -133q26 -75 48 -265q23 -184 44 -249
q33 -100 95 -100q14 0 21 1q74 12 145 58h1q2 1 5.5 3.5t5.5 3.5q102 73 175 196v1v1q24 44 35 68q48 107 65 224.5t-10 241.5t-105 213q-104 119 -334 104q-144 -9 -457 -94q-100 -27 -151.5 -40t-135.5 -29.5t-135 -18t-107.5 7.5t-96.5 34q-83 52 -106 169
q-24 128 44 237q63 99 184 163q183 98 398 95q227 -3 343 -116q6 -6 6 -15t-6 -15t-14.5 -6t-14.5 6q-67 65 -186 90.5t-255.5 5.5t-250.5 -81q-22 -12 -42.5 -25.5t-45.5 -33.5t-44 -41.5t-38 -50t-28 -59t-14 -68.5t5 -78q19 -100 87 -142q30 -18 67.5 -27.5t89 -7
t92.5 6.5t112 20.5t110 26.5t122 32q108 29 164 43t144.5 31t156.5 21q250 16 368 -118q121 -140 132 -347z" />
    <glyph glyph-name="m.alt4" unicode="&#xf04d;" horiz-adv-x="1196" 
d="M1563 -343q2 -40 -16.5 -74t-53.5 -54q-90 -51 -212 16h-1q-27 16 -31 19q-110 74 -172 136q-465 -138 -845 -184q-177 -22 -338 -22q-178 0 -312 26q-329 62 -481 270q-13 16 4 29q16 12 29 -5q142 -194 455 -253q261 -49 638 -4q366 44 818 177q-88 101 -105 222v1
q-11 71 -23 233q-12 174 -26 238q-19 88 -53 88q-36 0 -73 -44t-66 -112q-63 -161 -78 -346q-1 -25 -45 -27q-59 -2 -62 28q-2 20 -4 120q-1 54 -2 85.5t-4.5 85t-10.5 86.5t-17.5 68t-28 52t-40.5 17q-26 0 -49 -22.5t-42 -68t-28 -71t-23 -74.5q-1 -3 -7 -24
q-39 -167 -39 -278v-1v-1q0 -22 -33 -32q-22 -6 -47 -6q-50 0 -63 26q-25 50 -22 307q1 173 10 286q2 25 23.5 40t51.5 13q32 -2 54 -25.5t18 -62.5q-13 -168 -8 -327q11 63 27 121q71 264 183 264q71 0 119 -50q77 -81 90 -285q2 5 5 17t5 17v1q11 39 25 73q2 4 4.5 11.5
l3.5 10.5q87 211 203 211q107 0 145 -163q21 -90 27 -294q4 -126 11 -166q28 -154 67 -220q103 32 149 47l16.5 5.5t14.5 4.5q118 38 193 -15q67 -47 72 -141zM1473 -435q52 29 49 90q-3 73 -55 109q-58 40 -156 9q-4 -1 -14.5 -4.5l-16.5 -5.5q-71 -23 -137 -43
q24 -31 57.5 -59.5t101.5 -79.5q102 -55 171 -16z" />
    <glyph glyph-name="k.alt5" unicode="&#xf072;" horiz-adv-x="2797" 
d="M2935 512q19 -7 12 -27q-49 -119 -132 -239.5t-181 -214.5q-258 -249 -536 -249q-100 0 -225 55t-252 155q-38 30 -67 56q-22 -14 -35 -22q-25 -16 -77 -46q-19 -11 -57 -31q-282 -148 -516 -168q-30 -3 -60 -3q-160 0 -333 90q-34 14 -64 39.5t-57.5 66t-44.5 69
t-42 76.5q-41 78 -53 94q-16 23 -27 27q-25 -88 -25 -177l3 -21q4 -33 -35 -42q-12 -2 -22 -2q-58 0 -68 33q-19 61 -30 195.5t-11 260.5q0 274 53 398q56 132 184 132q41 0 72 -26q17 -14 29 -35q6 -11 13 -32q20 -67 -2 -154q-18 -70 -60.5 -130t-144.5 -143
q-3 -119 4 -247q9 32 26 73q12 29 39 73q77 126 183 175q87 40 135 -1q43 -36 24 -88q-23 -64 -127 -122q-71 -39 -142 -53q27 -17 52 -44t49.5 -67.5t38.5 -67t39 -77.5q24 -48 34 -67.5t28.5 -48t32.5 -40.5q3 -1 4 -4q54 -58 303 -69q226 20 498 163q37 23 51 30
q4 2 34.5 19.5t45.5 26.5h1q9 5 25 17q-181 170 -235 328q-57 165 53 250q63 49 143 12q45 -21 77 -61q19 88 77 150q65 68 156 68q107 0 152 -78q39 -66 25 -168q-12 -94 -65 -192q-85 -154 -315 -314q126 -111 262 -180t246 -69q111 0 222 45.5t199.5 117t167.5 163
t133 180t88 171.5q7 18 27 11zM224 950q-66 -76 -78 -397q77 66 111 115q43 71 56 139.5t-2 105.5q-6 20 -17 34q-4 6 -10 10q-13 10 -29 10q-17 0 -31 -17zM235 343q79 1 171 51.5t110 101.5q9 24 -12 42q-11 10 -31 10q-26 0 -59 -15q-95 -45 -166 -159q-3 -5 -9 -16
t-9 -16q1 0 2.5 0.5t2.5 0.5zM1327 419q51 -148 231 -317q158 121 250 318q40 86 54 164.5t-2 127.5q-18 56 -75 56q-68 0 -123.5 -60t-66.5 -184v-1q0 -1 -0.5 -1t-0.5 -1v-1v-1v-1h-1v-1l-1 -1v-1l-1 -1l-1 -2l-1 -1l-1 -1l-1 -1v0l-1 -1v0l-2 -1l-1 -1h-1h-1v0l-1 -1h-1
h-1h-1q-1 0 -1 -0.5t-1 -0.5h-1h-2l-1 1h-1h-2l-1 1h-1h-1l-1 1q0 1 -1 1t-2 1l-1 1h-1v1h-1v1h-1v1l-1 1v1v0l-1 1v1l-1 1v1v0v1l-1 1v1v1v1v1v0q-1 25 -26 57.5t-61 48.5q-56 26 -100 -8q-86 -68 -39 -204z" />
  </font>
</defs>
</svg>
